<svg xmlns="http://www.w3.org/2000/svg" width="1587" height="1573" viewBox="-60 -120 1827 1813">
  <title>studyresources.jp</title>
  <style>
    .color {
      fill: #0a0a0a;
    }

    @media (prefers-color-scheme: dark) {
      .color {
        fill: #ffffff;
      }
    }
  </style>
  <path class="color" transform="translate(12 8) scale(0.985)" d="M1587 714.059c-1.4 7.149-1.79 24.792-2.74 33.268-3.52 31.456-6.5 58.869-17.39 88.739-68.38 187.494-220.42 275.484-414.76 280.984-16.93.42-33.87.08-50.77-1-29.92-2.19-59.78-11.69-62.78 33.01-1.17 17.49-.22 36.22-.21 53.82l.02 97.17-.02 75.85c-.02 33.34-3.31 100.41 30.94 121.12 14.01 8.47 49.66 10.63 66.33 11.67 14.03.87 35.32-4.57 43.3 12.09 2.19 4.95 2.25 20.41.1 25.43-9.56 22.27-38.61 11.42-57.01 11.66-21.15-.37-42.3-.83-63.5-.98-71.25.17-142.499 1.04-213.734 2.6-29.527.62-59.106 1.62-88.653 2.02-6.714.01-22.534-.53-28.146-3.34-10.947-5.47-10.432-37.35 1.714-41.74 6.639-2.96 14.503-2.24 21.423-3.77 15.434-3.42 32.273-5.19 47.549-8.57 13.397-3.51 25.134-14.63 31.421-26.52 17.947-33.95 13.497-78.48 13.341-116.03l-.302-114.32-.813-375.206-.596-228.146-.136-57.287c.061-18.232.91-36.424-2.286-54.499-7.644-43.235-60.445-52.462-67.555-80.387-1.361-5.347-.319-10.754 2.646-15.374 4.127-6.432 10.899-11.293 17.675-14.647 16.39-8.114 41.754-13.783 60.133-20.709 35.743-13.468 70.197-30.473 103.82-48.522 7.581-4.07 15.114-8.186 22.429-12.725 11.107-6.892 25.1-19.677 38.01-21.845 6.07-1.019 12.49 1.427 17.24 5.166 23.84 18.767-2.88 62.134.19 89.741.51 4.605 1.34 11.906 5.63 14.763 3.05 2.033 6.57 2.003 10.06 1.288 11.87-2.436 22.13-10.849 32.31-16.955 6.69-4.009 13.7-7.657 20.66-11.175 41.39-20.924 88.29-36.872 134.23-43.714 78.3-11.662 168.6 3.551 233.03 51.394 64.14 47.621 97.64 122.229 110.52 199.359a402 402 0 0 1 4.36 33.858c.67 8.229.98 19.689 2.2 27.544l.12.746zm-331.08 317.461c97.94-51.819 125.15-158.403 128.49-260.444 4.45-136.317-27.65-266.048-175.55-307.876-17.94-5.075-39.37-8.678-58.35-6.471-34.95 2.92-71.34 14.038-94.67 41.798a83.56 83.56 0 0 0-18.25 39.607c-2.71 16.777-.85 36.703-1.63 53.873-2.21 49.035-.92 97.993-.64 147.054l.86 102.844c.09 18.973-.76 39.451.67 58.292 3.03 36.702 18.88 75.909 48.34 99.256 30.86 24.457 70.35 40.817 109.35 45.547 20.59 2.5 43.11-4.66 61.38-13.48M557.11 0h8.292c5.775 2.102 13.909 5.374 17.644 10.249 8.326 10.865.617 28.719-.106 40.988-.904 15.35-1.077 30.37-.942 45.628a28309 28309 0 0 1 1.696 693.118 9585 9585 0 0 1-5.142 246.057c-1.739 47.44-2.618 96.14-8.768 143.23-16.165 123.77-101.372 224.83-197.257 298.54-22.65 17.42-130.209 92.25-154.009 88.46-6.262-.99-11.833-4.8-15.496-9.91-5.115-7.14-7.627-17.29-6.089-25.91 2.953-16.55 21.927-24.33 34.64-32.97 20.078-13.65 39.953-28.21 56.849-45.73 49.752-51.6 74.234-125.48 87.292-194.47 15.785-83.39 13.203-168.99 13.306-253.51.25-89.597.048-179.2-.604-268.799A19851 19851 0 0 0 385.25 444.9a6117 6117 0 0 0-2.289-90.858c-1.498-47.563-4.203-97.831-14.653-144.347-4.345-19.337-13.986-53.562-31.217-64.576-3.453-2.207-13.43-5.945-14.969-8.928-3.786-7.34-3.212-18.898-1.743-26.857 1.048-7.827 5.152-10.34 12.729-11.812 25.589-4.971 48.468-14.255 72.619-24.176a2504 2504 0 0 0 78.706-34.31c19.714-8.964 40.568-18.488 59.682-28.665C546.567 9.066 552.699 2.854 557.11 0"/>
</svg>
