<?xml version="1.0" encoding="utf-8"?>
<!DOCTYPE svg PUBLIC "-//W3C//DTD SVG 1.0//EN" "http://www.w3.org/TR/2001/REC-SVG-20010904/DTD/svg10.dtd">
<svg version="1.0" xmlns="http://www.w3.org/2000/svg" width="1280px" height="714px" viewBox="0 0 1280 714" preserveAspectRatio="xMidYMid meet">
 <g fill="#000000">
  <path d="M265.4 712.9 c-0.3 -0.7 -0.3 -4.1 -0.1 -7.3 0.7 -7.1 2.9 -10.8 8.2 -13.1 3.1 -1.4 3.7 -2.1 3.7 -4.3 0 -6.1 7.2 -13.9 14.1 -15.3 2.4 -0.5 2.4 -0.6 1.1 -3.6 -1.9 -4.5 -1.7 -14.9 0.5 -19.4 2.1 -4.8 7.4 -9.4 12.2 -10.7 3.2 -0.8 3.7 -1.4 3.7 -3.5 0 -3.9 3.8 -10.6 7.3 -12.9 3.8 -2.6 8.6 -4 13.6 -4 3.3 -0.1 3.9 -0.5 6.2 -4.2 2.8 -4.7 7.4 -7.4 14 -8.4 6.9 -1 12.3 0.1 15.3 3.3 1.9 1.9 3.5 2.7 5.6 2.7 1.8 0 4 0.9 5.8 2.4 2.5 2 2.9 3 2.9 7 l0 4.6 -3.2 0 c-2.3 0 -4 -0.7 -6 -2.8 -2.3 -2.3 -3.6 -2.8 -7.1 -2.8 -3 0 -4.3 -0.4 -4.3 -1.2 0 -1.8 -3.1 -4.4 -5 -4.4 -3.4 0 -8.9 4 -10.8 7.9 -1 2.1 -1.9 4.4 -1.9 5.1 0 0.9 -1.5 1 -6.8 0.6 -6.1 -0.6 -7.2 -0.4 -10 1.5 -4.6 3.2 -6.7 6.5 -7.3 11.5 -0.5 5 -1.3 6 -4.9 6 -3.5 0 -9.5 4.7 -11.4 9.1 -1.7 3.7 -1.7 3.8 0.3 7.2 1 1.9 2 4.4 2 5.7 0 2.2 0.2 2.2 3.5 1.6 1.9 -0.4 6.9 -0.7 11.1 -0.7 6.7 0 7.8 0.3 9.9 2.1 1.3 1.2 2.6 3.2 2.9 4.4 0.4 1.3 2.2 2.9 5.2 4.4 l4.7 2.3 0 -2.2 c0 -5.9 5.7 -12.7 11.4 -13.8 2.1 -0.5 3.3 -1.4 4.4 -3.5 2.2 -4.7 6.7 -6.7 15.3 -6.7 10 0 12.6 1.6 12.6 7.4 l0 4.2 -3.5 0 c-2 0 -4.4 -0.7 -5.4 -1.4 -3.8 -2.9 -9.8 -0.5 -11.6 4.7 -0.9 2.4 -1.8 3.3 -3.4 3.3 -3.3 0 -7.3 2.4 -9.4 5.9 -1.5 2.5 -1.8 4 -1.3 8.4 l0.6 5.3 -3.4 0 c-1.9 0 -3.3 0.2 -3.3 0.5 0 0.3 1.6 1.9 3.4 3.6 3.3 3.1 3.5 3.4 3.5 9.1 l0 5.9 -4.4 0.3 c-4.4 0.3 -4.5 0.2 -4.5 -2.3 0 -3.3 -2.1 -6.4 -5.8 -8.3 -2.8 -1.4 -2.8 -1.6 -2.3 -6.5 0.5 -4.7 0.4 -5.1 -2 -6.8 -1.4 -0.9 -3.8 -2 -5.5 -2.3 -2.3 -0.6 -3.1 -1.3 -3.6 -3.6 -0.3 -1.7 -1 -3.5 -1.5 -4.1 -1.3 -1.6 -6.2 -1.5 -9.5 0.2 -3 1.6 -8.1 1.9 -9.4 0.6 -1 -1 -6.6 0.7 -10.2 3.1 -3.5 2.3 -6 7 -6 11.3 0 3.7 -0.2 3.9 -3.2 4.5 -2 0.4 -4.2 1.8 -5.7 3.5 -2 2.4 -2.3 3.3 -1.8 6.9 l0.6 4.1 -4.7 0 c-3.5 0 -4.9 -0.4 -5.4 -1.5z"/>
  <path d="M359.3 712.2 c0.2 -1.6 3.2 -4.5 10 -9.8 8.3 -6.5 10 -7.5 13.2 -7.5 l3.6 0 0 4 c-0.1 3.8 -0.2 4 -8.3 9.8 -7.8 5.5 -8.6 5.8 -13.5 5.8 -5.1 0 -5.3 -0.1 -5 -2.2z"/>
  <path d="M390.3 711.4 c-0.3 -1.7 -0.7 -15.4 -1 -30.5 -0.3 -15.1 -0.9 -35.6 -1.4 -45.6 -0.8 -17.2 -1 -18.2 -3 -19.7 -2 -1.5 -2.1 -2.2 -2.7 -22.3 -0.7 -21.2 -3.8 -55.6 -5.1 -55.6 -0.2 0 -4.1 1.1 -8.7 2.4 -7 2 -9.9 2.3 -17.4 2 -10.6 -0.4 -13.8 -2 -17.2 -8.5 -3.4 -6.4 -3.4 -27.7 -0.2 -44.1 0.5 -2.5 0.3 -3.1 -0.9 -3.1 -3.5 0 -0.7 -25.4 4.7 -42.3 4.6 -14.1 9.7 -23.8 16.9 -31.4 10 -10.6 28.9 -21.8 40.8 -24.2 3 -0.6 5.5 -1.1 5.6 -1.2 0.2 -0.1 -3 -4 -7.1 -8.7 -10 -11.3 -15.4 -19.2 -19.8 -28.4 -3.3 -7.2 -3.8 -7.8 -6.8 -8.3 -7.6 -1.2 -14.2 -6.8 -16.9 -14.4 -1.6 -4.6 -1.7 -17.7 0 -20.7 1.1 -2.1 0.9 -2.9 -2 -8.1 -1.7 -3.1 -4.3 -9.8 -5.6 -14.9 -2.2 -8.3 -2.4 -10.7 -2.4 -25.9 0 -25 3.3 -38.1 12.5 -49.7 4.7 -5.9 13.6 -12.4 21.5 -15.7 5.2 -2.1 7.2 -2.4 18.2 -2.7 l12.5 -0.2 5.3 -5 c9.1 -8.7 18 -11.8 34.6 -11.8 31.8 0 53.8 19.3 63.3 55.9 1.7 6.7 2 10.6 2.1 26.5 0.1 17.6 0.3 18.9 2.1 21.2 3.3 4.2 4.2 8.6 3.7 17.3 -0.7 11.9 -5.4 20.8 -12.3 23.3 l-3.2 1.1 -0.6 8 c-0.7 9.7 -4.2 24.1 -8.5 35.4 -1.8 5 -2.7 8.7 -2.1 8.9 0.5 0.3 11.3 0.8 24 1.1 l23.2 0.5 1 -2.6 c0.6 -1.5 0.9 -5 0.7 -7.8 -0.3 -5 -0.4 -5.2 -3.1 -5.7 -2.9 -0.5 -7.8 -3.8 -13.2 -9 -2.9 -2.7 -3.1 -3.3 -3.1 -9.1 0 -3.3 0.5 -7 0.9 -8 0.7 -1.3 0.7 -2.3 -0.5 -3.8 -1.6 -2.4 -2 -15.5 -0.5 -18.4 0.7 -1.2 0.5 -2.7 -0.5 -5 -0.7 -1.8 -1.4 -6.1 -1.4 -9.6 0 -7.9 2.3 -12.9 8.5 -18.2 4.3 -3.6 4.6 -4.2 4.6 -8.4 0 -4.9 2 -9.6 5 -12 1.5 -1.2 3.7 -1.7 9.1 -1.7 3.9 0 7.4 0.5 7.7 0.9 0.4 0.6 1.3 0.1 2.3 -1.2 0.9 -1.1 3.2 -3 5 -3.9 2.3 -1.3 3.3 -2.4 3.3 -4 0 -3.4 2.5 -7.3 6.2 -9.7 3 -1.8 4.7 -2.1 11.3 -2.1 l7.6 0 0 -34.4 c0 -19.2 0.4 -35 0.8 -35.7 0.7 -1.1 5.2 -1.6 22.1 -2.1 46.2 -1.6 70 -2.6 80.7 -3.5 6.1 -0.5 27.3 -1.4 47 -1.9 40.9 -1.1 80.1 -2.6 80.5 -3 0.2 -0.2 0.7 -10.1 1 -22.1 l0.8 -21.9 6.3 -0.3 6.2 -0.3 0 -11.8 c0 -6.5 0.5 -12.5 0.9 -13.2 0.7 -1.2 5 -1.4 29.5 -1.3 20.6 0 29.2 0.4 30.8 1.2 2 1 2 1.6 2 13.6 l0 12.5 5.9 0.3 5.8 0.3 0.3 21.7 0.2 21.6 35.6 -0.5 c19.5 -0.2 45.9 -0.7 58.4 -0.9 19.6 -0.5 23.2 -0.4 24.3 0.8 1.3 1.2 1.4 14.3 1 110.5 -0.3 60 -0.8 109.5 -1.2 109.9 -0.8 1 -8.1 1.2 -105.6 3 -78 1.5 -110.2 2.3 -110.2 2.9 0 0.2 1.5 2.3 3.3 4.7 1.9 2.4 5.7 9.3 8.6 15.3 2.9 6 5.7 11 6.3 11 0.6 0 1.4 1.6 1.8 3.4 1 5.4 1.9 6.4 8.4 9.7 l6 3 0 4.4 c0 3.8 -0.4 4.8 -2.7 6.7 l-2.7 2.3 3.2 4.8 c3.5 5.8 10.7 21.7 13.9 31.3 4.7 14 4 32.9 -1.7 43.6 -4.3 8.3 -17.1 20.7 -25.6 25 -7.3 3.6 -15.4 5.7 -20.3 5.1 l-3.1 -0.4 -0.3 5.2 c-0.2 2.8 0 7.4 0.4 10.2 1.2 8.7 2 53.6 1 54.2 -0.6 0.4 -4.7 1.6 -9.5 2.8 -4.7 1.2 -8.7 2.4 -8.9 2.7 -1 0.9 -6 34.7 -5.5 36.6 0.4 1 4.3 8.6 8.8 16.7 8.1 14.8 13.9 29.1 13.9 34.8 0 2.8 -0.1 2.9 -4.4 2.9 l-4.5 0 -1.7 -5.7 c-2.1 -7.3 -6.4 -16.2 -14.2 -29.7 -6.2 -10.6 -6.2 -10.8 -6.7 -18.6 -0.3 -6.9 1.5 -22.1 4 -33.1 l0.4 -1.9 -12.3 2 c-6.7 1.1 -15.2 2.3 -18.7 2.7 l-6.4 0.7 0.6 12.2 c1.1 22 2.8 28.8 10.1 40.8 6.1 10 13.8 25.8 13.8 28.5 0 1.9 -0.5 2 -4.7 2 l-4.7 0 -2.9 -5.8 c-4.4 -8.7 -9.4 -17.6 -9.8 -17.3 -0.2 0.2 0.3 4.3 1 9.1 0.7 4.8 1.4 10 1.4 11.4 0 2.5 -0.1 2.6 -4.4 2.3 l-4.4 -0.3 -1.6 -10.2 c-0.8 -5.6 -2 -11.9 -2.6 -14 -1.2 -4.5 -1.3 -18.1 -0.1 -23.2 0.5 -2 0.6 -11 0.3 -19.8 l-0.6 -16.1 -5.4 0 c-6.9 0 -10.1 -1.2 -10.1 -3.7 0 -1.8 -0.5 -2 -3.9 -1.7 l-4 0.3 -2 15.8 c-2.8 21.8 -2.7 25.9 1.2 44.9 1.8 9.1 3.5 19.1 3.8 22.3 l0.6 5.8 -4.2 0 -4.3 0 -3.9 -20.2 c-4 -20.1 -4 -20.3 -3.4 -35.2 0.4 -8.2 1.2 -18.9 2 -23.7 1.4 -9.5 1.1 -10.2 -3.1 -10.2 l-2.2 0 0.6 -16 c0.4 -8.8 1.2 -22.3 2 -30 0.7 -7.6 1.6 -23.1 1.9 -34.3 l0.5 -20.3 -8.2 -9.5 c-4.6 -5.2 -10 -11.9 -12.1 -14.9 -3.7 -5.3 -3.8 -5.4 -3.8 -2.7 0 2.6 -1.1 3.7 -12.7 12 -7.1 5 -20.6 14.8 -30 21.8 -26.4 19.4 -30.9 22.3 -34.2 22.3 l-2.9 0 0.6 19.5 c0.7 21 0.5 21.6 -4.2 22.8 -1.4 0.3 -6.8 2 -12 3.9 -7.1 2.4 -9.6 3.7 -9.6 4.9 0 0.8 -0.7 3.8 -1.5 6.5 -1.7 5.7 -7.3 12.1 -10.4 12.1 -1.1 0 -3.9 1 -6.3 2.3 -3 1.6 -5.9 2.3 -9 2.3 l-4.7 0 0.7 16.6 c0.3 9 0.8 28.5 1.1 43.3 l0.7 26.7 -75 0 -75 0 -0.5 -3z m155.8 -95.2 c1.4 -1.5 3.3 -2.3 5.1 -2.3 7.1 0 12.2 -12.1 8.8 -20.7 -1.8 -4.5 -1.1 -19.2 1.7 -40.8 5.7 -42.9 6 -54.6 2 -71.1 l-2 -8.5 -6.7 1.6 c-14.3 3.3 -18.4 4.8 -17.9 6.3 0.3 0.8 1.4 5 2.5 9.4 2 7.7 2 8.7 0.9 27.1 -0.6 11 -0.8 28.6 -0.5 41.4 0.3 12.3 0.3 24.8 -0.1 27.9 -0.7 5.2 -1 6 -6.1 11 -4.2 4 -5.1 5.3 -3.7 5.3 1.6 0 1.9 0.7 1.9 4.6 0 2.5 -0.5 5.8 -0.9 7.2 -1.2 3.2 -0.6 3.9 1.7 2 0.9 -0.9 3.3 -1.6 5.1 -1.6 2.8 0 3.4 0.4 3.4 1.9 0 2.5 2.1 2.3 4.7 -0.5z m-87.1 -8.4 c7.1 -1.2 24.6 -5.7 25.4 -6.4 0.4 -0.5 -5.4 -35 -8.2 -49.1 -1.8 -8.5 -2.8 -16.6 -2.8 -21.2 l0 -7.5 5.7 -2.7 c3.2 -1.5 16.4 -6.1 29.4 -10.4 l23.7 -7.7 -0.6 -3.7 c-0.3 -2 -1.3 -6.5 -2.4 -10 -1.5 -4.9 -2.3 -6.2 -3.9 -6.5 -1.9 -0.3 -2.3 -1.4 -4.2 -11 -1.1 -5.9 -2 -13.1 -2 -16 l-0.1 -5.4 3.7 0 c3.3 0 3.7 0.2 4.6 3.3 0.6 1.9 1.5 6.5 2.1 10.3 1 6.3 1.3 6.9 3.1 6.3 1 -0.3 7.9 -2 15.3 -3.9 7.4 -1.9 14 -3.4 14.7 -3.6 1.4 -0.4 1.1 -3.4 -1.8 -19.1 -3.3 -18.3 -7.6 -28 -16.6 -37.5 -11.7 -12.3 -22.4 -18.7 -38.7 -23.2 -13.9 -3.8 -14.4 -3.9 -14.4 -1.6 0 2.3 -2.1 6.7 -5.5 11.1 -5.9 7.8 -26.4 20.1 -37.1 22.3 -10.3 2.1 -24.1 0.5 -33.3 -4.1 -5 -2.5 -12.5 -9.7 -12.5 -12.1 0 -2 -2.3 -1.7 -9.9 1.3 -17.4 6.8 -33 19.6 -39.6 32.2 -4.6 8.7 -8.7 20.9 -11 32.1 -1 5 -1.9 9.6 -1.9 10.1 0 0.7 3.8 1 11.4 1.1 6.2 0 13.3 0.4 15.8 0.7 l4.4 0.7 0 -5.2 c0 -5.1 1.4 -16.7 2.4 -19.8 0.4 -1.2 1.5 -1.7 4.2 -1.7 l3.6 0 0 4.5 c0 5 -1.5 22 -2.8 30.9 -0.5 3.3 -0.7 6 -0.7 6.2 0.2 0.1 4.4 -1.5 9.4 -3.5 5 -2 9.7 -3.6 10.4 -3.6 0.7 0 1.3 -0.9 1.3 -2.2 0 -3.3 4.2 -7.8 8.2 -8.9 5.4 -1.5 18.8 -1.2 22 0.6 2.5 1.3 3.3 1.2 10.2 -0.7 6.3 -1.9 9.6 -2.1 21.9 -2.1 15.7 0.1 19.7 0.8 23.6 4.8 2.1 2 2.4 3.2 2.4 8.3 0 5.2 -0.3 6 -2.3 7.4 -1.2 0.8 -2.5 2.4 -2.9 3.4 -0.3 1.1 -2.1 3.7 -4 5.8 -2 2 -4.7 5.3 -6 7.3 -2.5 3.3 -2.6 3.4 -8.8 3.4 -3.7 0 -6.9 -0.5 -7.9 -1.2 -1.4 -1 -2.5 -1 -6.4 0 -2.6 0.7 -7.4 1.2 -10.7 1.2 -4.7 0 -7.2 0.6 -12 2.9 -3.3 1.6 -7.8 3.2 -10 3.4 -2.2 0.3 -6.1 2 -9.4 4.1 -3.1 2 -9.2 5.4 -13.7 7.5 -6.8 3.3 -8.1 4.2 -7.7 5.8 0.2 1 0.8 6.7 1.4 12.6 0.6 5.9 1.4 13.5 1.9 16.9 0.6 3.4 0.9 12.9 0.9 21 0 17.1 0.5 20.4 3.1 21.8 5 2.7 50.6 2.9 65.3 0.3z m305.1 -42.8 c14.1 -2.5 32 -9.6 33.4 -13.1 0.6 -1.5 -1 -23.3 -1.8 -24.5 -0.2 -0.5 -5.3 -3.6 -11.3 -7.2 -8.3 -4.8 -12.9 -8.3 -19 -14.3 l-8 -7.9 -4.6 5.9 c-6 7.8 -21.5 22.7 -26.9 25.9 -3.6 2 -5 2.4 -9.1 2 -2.7 -0.3 -5.8 -0.7 -6.8 -1.1 -2 -0.7 -2 -0.4 -2.7 10.9 -0.4 6.2 -0.5 13.8 -0.3 16.6 0.3 5 0.4 5.1 3.9 6.3 9.7 3.2 37.2 3.4 53.1 0.7z m-141.1 -40.3 c41.8 -30.5 45.5 -33 49.1 -32.6 1.8 0.2 3.2 0.3 3.2 0.1 0 -0.2 -2.2 -1.3 -4.9 -2.5 -5.7 -2.5 -9.5 -6.6 -10.9 -11.6 -0.8 -3.1 -1.9 -4.1 -7.1 -7.2 -7.6 -4.5 -10.6 -7.8 -10.6 -12 0 -4.3 0.8 -6 2.9 -6 1.7 0 1.7 -0.2 0.4 -2.2 -1 -1.5 -1.4 -3.8 -1.2 -6.8 l0.3 -4.5 4.5 -0.3 c4.3 -0.3 4.4 -0.4 4.4 -3.5 0 -1.7 -0.4 -3.2 -0.7 -3.2 -1 0 -8.2 5.1 -9 6.4 -0.7 1.3 -7.6 1.3 -8.4 0.1 -1 -1.7 -4 -0.9 -6 1.5 -1.4 1.8 -2 3.8 -2 7 0 4.1 -0.2 4.6 -2 4.6 -3.3 0 -8.1 3.3 -8.7 6 -0.4 1.5 0 3.2 0.9 4.7 0.8 1.2 1.5 3.7 1.5 5.6 0 3.3 0 3.3 -4.2 3.3 -2.8 0 -4.4 -0.5 -4.9 -1.5 -0.7 -1.2 -0.9 -0.8 -1.3 1.9 -0.2 2.1 0 3.3 0.7 3.3 0.6 0 2.1 0.8 3.4 1.9 1.4 1.1 3.7 1.9 5.7 1.9 6.7 0 12.7 4.2 12.7 8.8 0 1.3 1.2 2.4 4 3.7 5.4 2.6 8.1 6.9 8.1 13.1 l0 5 -4 0 c-3.9 0 -4.1 -0.1 -5.1 -3.6 -1.1 -3.7 -4.1 -6.3 -8.5 -7.5 -1.9 -0.5 -2.5 -1.4 -3 -4 -0.8 -5.4 -2.9 -6.5 -11.5 -6.2 -4 0.1 -4.7 -0.2 -5.6 -2 -2.1 -4.8 -9.6 -1.7 -12.7 5.5 -1.9 4.3 -2 4.7 -0.5 17 0.8 6.9 1.8 15.5 2 19.1 0.3 3.6 0.7 8.7 1 11.4 l0.5 4.8 2.8 -1.6 c1.6 -0.9 12.7 -8.9 24.8 -17.8z m-255.5 4.8 c5 -1.7 12.3 -4.6 16.2 -6.4 7.4 -3.3 22.3 -12 23.3 -13.5 0.6 -0.8 -1.2 -15.9 -1.9 -16.6 -0.7 -0.7 -7.7 2 -21.4 8.3 -10.3 4.7 -14.9 6.4 -17.9 6.4 l-4 0 0 -3.8 c0 -3.5 0.3 -3.9 3.6 -5.3 3.4 -1.5 3.6 -1.9 4.2 -6.6 0.4 -2.8 0.3 -5.4 -0.1 -5.8 -1.5 -1.4 -20.6 -3.1 -22.9 -2 -2.7 1.2 -4.7 8.1 -6.4 22 -1.8 14.2 0.6 22.2 7.7 26 3.9 2 7.3 1.6 19.5 -2.7z m366.5 -20.7 c7.7 -7.8 17.7 -20.5 24.4 -31 l3.3 -5.2 -11.3 -2.1 c-6.2 -1.2 -11.7 -2.2 -12.3 -2.2 -0.5 0 -3.3 4.3 -6 9.4 -2.8 5.2 -7 12 -9.2 15.2 -3.7 5.2 -4.4 5.7 -7.4 5.7 -2.9 0 -4.2 -0.7 -7.5 -4.3 -2.3 -2.3 -7.2 -6.3 -10.9 -8.9 -3.7 -2.5 -6.9 -5.3 -7.2 -6.2 -0.2 -0.8 -0.7 -6.4 -1 -12.4 l-0.7 -11 -3.5 0 c-2.7 0 -4 -0.6 -5 -2 l-1.5 -2 0 2 c0 1.7 -0.6 2 -2.8 2 -2.1 0 -2.8 0.4 -2.8 1.9 0 1.4 -0.7 1.9 -2.3 1.9 -2 0 -2.3 0.5 -2.3 2.8 0 2.2 -0.4 2.8 -2 2.8 -2 0.1 -2 0.2 -0.6 1.2 0.8 0.7 1.9 2.4 2.2 4 0.4 1.5 1.2 3.8 1.9 5.2 1.4 2.7 8.3 7.3 11 7.3 0.9 0 2.2 1.6 3.4 4.4 3.5 8.3 21.5 28.5 29.1 32.8 l4.6 2.7 4.3 -2.9 c2.3 -1.7 7.8 -6.5 12.3 -10.9z m115 -2.6 c1.6 -4.2 2.3 -17.2 1 -18.4 -0.3 -0.3 -3.6 0 -7.3 0.6 -4 0.7 -11.3 0.8 -17.3 0.6 l-10.5 -0.5 1.5 2.8 c3.8 7.3 13.7 15.3 22 18 7.3 2.3 8.7 2 10.6 -3z m-399.8 -6.6 c1.3 -0.8 3.3 -1.9 4.3 -2.2 1.7 -0.5 1.7 -0.6 0.2 -0.7 -1.4 -0.1 -1.7 -0.7 -1.4 -3.5 0.3 -3.5 0.3 -3.5 4.7 -3.8 l4.4 -0.3 0 -4.2 0 -4.1 5.9 -0.1 5.8 -0.1 -5.1 -0.8 c-9.5 -1.5 -30.4 3.1 -35.9 7.9 -2.4 2 -2.4 2.3 -1.9 8.3 l0.7 6.1 3.9 0.3 c5.4 0.4 11.7 -0.8 14.5 -2.8z m341.3 -7.3 c-2.5 -20.2 -5.6 -41.9 -6 -43.1 -0.3 -0.7 -1.3 2.9 -2.2 8.2 -2 10.8 -3.8 15.8 -6 16.5 -0.7 0.3 -2 0.7 -2.8 0.9 -1.2 0.4 -1.1 0.9 0.7 3.7 1.7 2.5 16.6 19.9 17 20 0 0 -0.3 -2.8 -0.7 -6.2z m-317.1 -2.2 c-0.7 -0.5 -2.5 -0.8 -4.1 -0.7 l-2.8 0 3.3 1.2 c3.4 1.2 5.8 0.9 3.6 -0.5z m110.1 -2.8 c0.8 -6.3 7.7 -12 14.5 -12 2.3 0 2.6 -0.3 2.2 -2 -0.3 -1.1 -2 -2.6 -3.6 -3.3 -2.3 -1 -3.2 -2 -3.2 -3.5 0 -4 -9.6 -6.6 -11.7 -3.3 -0.3 0.5 -2.3 0.8 -4.7 0.8 l-4.1 0 0 -4.3 c0 -3.9 0.2 -4.3 3.3 -5.6 4.5 -1.9 16.5 -1.8 20.7 0.3 1.8 0.8 3.6 2.4 4.2 3.6 0.6 1.1 2.1 2.9 3.6 4 l2.7 2 -0.6 -2.7 c-0.9 -4.6 1.3 -11.9 4.4 -14.4 1.5 -1.3 3.5 -2.5 4.6 -2.9 1.2 -0.4 2 -1.8 2.4 -4 1.5 -8.3 5.3 -11.3 13.9 -11.3 4.2 0 5.9 -0.5 8.5 -2.4 1.8 -1.4 4.7 -3 6.6 -3.7 3.7 -1.3 13.1 -1.6 17 -0.5 2 0.6 2.9 0.1 5.7 -3.1 3.1 -3.3 3.7 -3.7 9 -4.1 3.2 -0.2 6.8 -0.1 8.1 0.2 2 0.6 2.3 1.1 2.3 4.7 l0 4.2 -5 0 c-4.4 0 -5.3 0.4 -7 2.4 -2.9 3.7 -2.4 6 2.2 10.6 2.2 2.2 4.3 3.9 4.4 3.6 0.2 -0.2 1.4 -1.7 2.8 -3.2 2 -2.2 2.7 -4.4 3.5 -10.5 0.6 -4.2 2.6 -14.1 4.6 -22 l3.5 -14.2 -5.2 2.4 c-4.3 2 -6.9 2.4 -15 2.7 -13.7 0.5 -18.2 -1.3 -26.4 -10.2 l-6 -6.5 -46 0.6 c-25.2 0.3 -51.1 0.8 -57.5 1.1 l-11.5 0.6 3.2 1.7 c4.7 2.4 17.1 13.3 21.5 18.8 2 2.7 5 7.3 6.5 10.2 5.7 11.2 10.3 35 10 51 -0.1 5.3 0.6 12.7 1.6 18.4 l1.8 9.5 3.8 0 c3.8 0 3.8 0 4.4 -3.8z m138.1 -11.6 c4.5 -7.4 4.6 -7.8 5.1 -17.2 0.7 -9.8 3.3 -22.3 7.3 -33.4 1.9 -5.4 2.1 -7.4 1.9 -18.3 l-0.3 -12.3 -4.2 3.2 c-4.5 3.4 -20.6 12.7 -25.9 14.9 -2.3 1 -3.5 2.1 -3.9 4 -0.3 1.4 -0.9 4 -1.4 5.8 -0.5 1.8 -1.3 8.5 -1.8 14.8 -1.1 12.9 -1.3 11.7 5.8 30.8 3.5 9.5 5.4 13.2 7.5 15.2 3.5 3.1 3.5 3.1 9.8 -7.3z m50.3 -15.3 c1.8 -5.5 4.7 -27.8 4.7 -35.4 0 -3.9 0.4 -7.3 0.8 -7.7 1 -0.6 -1.7 -11.1 -5.1 -19.3 -2.2 -5.7 -10.5 -19.2 -11.7 -19.3 -0.9 0 -4.6 11.4 -4.5 14.5 0 1.5 0.2 4.7 0.6 7.1 0.5 4.1 0.4 4.5 -1.7 5.3 -1.2 0.5 -3.3 2.9 -4.7 5.3 -4.4 8 -14.7 40.3 -14.7 46 0 1.1 3.3 2 14.5 4.1 8 1.4 15.6 3 17 3.3 2.9 0.8 3.3 0.6 4.7 -3.8z m43.7 -47.5 c1.8 -1.1 1.7 -1.5 -3.3 -11.3 -8.9 -17.5 -19.2 -26.2 -30.3 -26 -2.9 0 -6 0.6 -7 1 -1.5 0.9 -1.5 0.9 0.2 1 3.3 0 10 4.2 13.7 8.3 2 2.2 6.4 8.7 9.9 14.2 3.3 5.6 7.8 11.8 9.9 13.9 3.5 3.5 3.8 3.6 4.6 1.9 0.4 -1 1.5 -2.4 2.5 -3.1z m-370 -7.5 c4.2 -1.3 16.8 -7.3 16.4 -7.8 -0.2 -0.1 -6.3 0.8 -13.8 2.1 -9.7 1.8 -15.4 2.3 -20.7 2 -7 -0.5 -7.2 -0.4 -4.7 1 6.9 3.6 15.9 4.7 22.8 2.6z m2.7 -15.6 c21.8 -4.1 21.6 -3.9 26.4 -14.2 5.2 -10.9 10.2 -24.5 13.2 -35.8 4.3 -15.8 4.1 -36.7 -0.7 -69.2 -2.8 -19.3 -8.1 -32.2 -17.2 -40.9 -4.2 -4 -5 -4.3 -5 -1.3 0 3.4 -6.9 16.6 -11.3 21.5 -5.7 6.4 -11.3 9.9 -16.4 9.9 -3.8 0 -4 -0.1 -4 -2.8 0 -1.5 -0.2 -2.8 -0.5 -2.8 -0.3 0 -2.2 1.3 -4.4 2.8 -3 2.2 -4.7 2.8 -8.4 2.8 l-4.5 0 0 -3.3 c0 -1.9 0.7 -5.7 1.5 -8.6 1.9 -6.1 1.3 -12.4 -1.5 -17.9 -2.8 -5.4 -4.3 -5.7 -8.5 -1.2 -4.7 5 -6.8 12.1 -5.4 17.4 1.5 5.5 3.3 8.9 7.1 12.7 2.6 2.7 3.2 4 2.9 6.5 l-0.3 3.2 -6.7 0.3 c-7.3 0.3 -10.1 -0.7 -14.6 -5.1 l-2.7 -2.6 0.7 3.3 c0.3 1.8 1.7 4.3 2.9 5.6 1.3 1.3 2.3 3.3 2.3 4.5 0 1.8 0.5 2 4.2 2 5 0 10 2.3 14.1 6.7 4 4.3 8.7 19.1 9.4 29.4 0.4 7.3 0.2 8.1 -2.6 14.2 -3 6.5 -3 6.6 -1.5 10.5 1.8 4.7 3.5 6.4 8.3 8.5 3.2 1.3 3.4 1.8 3.4 5.1 0 3.2 -0.4 3.8 -2.3 4.3 -6.1 1.5 -13.8 -2.4 -16.9 -8.9 -1.8 -3.3 -2.1 -5.7 -2.1 -12.6 0 -7.3 0.4 -9 2.7 -13.7 2.3 -4.6 2.6 -5.9 1.9 -8.5 -0.5 -1.8 -1.6 -3.8 -2.5 -4.7 -1.5 -1.4 -1.6 -1.1 -1.3 4.9 0.2 3.5 -0.1 7.3 -0.7 8.3 -2.2 4 -12.9 4.8 -16.2 1.2 -0.8 -0.8 -1.6 -3.7 -1.8 -6.2 l-0.3 -4.7 -1.7 3.1 c-0.9 1.8 -2 4.8 -2.3 7 -0.7 3.8 -0.8 3.9 -4.7 4.2 l-3.9 0.3 0 -6.3 c0.1 -13.8 8.9 -23.6 23 -25.4 l6.3 -0.8 -7 0.4 c-6.1 0.3 -8.1 0.9 -16.3 5.1 -5.1 2.5 -9.9 4.7 -10.5 4.7 -0.7 0 -1 0.7 -0.7 2.1 0.3 1.1 1.6 7.1 2.9 13.2 4.8 21.8 7.9 29 19 43.7 8.3 10.9 24.5 27.3 29.3 29.4 5.1 2.3 8.1 2.2 25.6 -1.1z m268.7 -3.3 c4.4 -2.9 11.9 -9 16.7 -13.8 l8.8 -8.5 -4.2 -2.5 c-5.2 -3.1 -11.3 -11.7 -13.6 -19.3 -1.6 -5.3 -1.6 -5.4 -5.3 -5.7 -3.6 -0.3 -3.7 -0.4 -4 -4.1 l-0.3 -3.8 3.9 -0.6 c5.6 -0.7 7 -2.5 2 -2.5 -3.8 0 -3.9 -0.1 -3.9 -3.2 0 -2.9 -0.3 -3.2 -3.4 -3.7 -2 -0.3 -4.7 -0.6 -6 -0.6 -2.9 0 -4.1 -2.6 -3.3 -7.3 0.4 -2.4 0.1 -2.7 -3.8 -3.7 -11.7 -3.2 -21.7 -13.8 -27.5 -29.4 -6 -15.8 -15.5 -24.7 -28.5 -26.2 -4.7 -0.6 -4.7 -0.6 -4.1 1.7 1.7 5.3 5.7 9 11.9 11 3.2 1.1 3.4 1.4 3.4 4.8 0 3.5 0.1 3.6 3.3 3.6 1.8 0 4.9 0.7 7 1.5 3.5 1.5 3.7 1.7 3.7 5.7 l0 4.2 -4.4 -0.6 c-2.5 -0.3 -6.2 -0.7 -8.5 -1.1 -3.3 -0.5 -4.6 -0.2 -7.7 1.9 -2 1.4 -4.4 3.9 -5.2 5.7 -1.4 2.9 -2 3.3 -5.1 3.3 l-3.5 0 0 -4.2 c0 -2.4 0.7 -5.5 1.4 -7.1 1.6 -3 8.3 -8.3 10.6 -8.3 0.8 -0.1 -0.6 -0.9 -3.1 -1.9 -5.5 -2.1 -9.1 -5.4 -11.3 -10.3 l-1.7 -3.6 -1.8 4.8 c-3.1 8.6 -3.6 13.5 -2.6 23.1 1.1 11.3 3 18.3 7 26.8 5.3 11.2 6.2 22 2.8 33.4 l-1.2 3.8 4 1 c5.8 1.4 7.5 3.4 9.8 11 2.4 8.6 3.7 9.4 3.7 2.5 0 -6.9 1.6 -8.7 7.3 -8.7 7.5 0 11.3 4.7 11.3 14 0 6.7 -1.6 8.3 -8.2 8.3 l-5.1 0 2.2 2.4 c3.3 3.4 7.3 5.8 12.2 6.8 5.8 1.3 13.6 -1 23.9 -7.3 5.2 -3.2 8.7 -4.7 10.9 -4.7 3.2 0 3.2 0 3.2 4.2 0 2.9 -0.5 4.4 -1.4 4.7 -1.4 0.6 -2.1 7.8 -0.8 7.8 0.4 0 4.2 -2.3 8.6 -5.3z m-147.3 -23.8 c0.8 -10.7 0.6 -12.2 -2.1 -12.6 -1.1 -0.2 -2.7 -1.3 -3.5 -2.5 -0.7 -1.2 -2.7 -2.4 -4.5 -2.7 -3.3 -0.7 -5.6 -2.6 -6.5 -5.9 -0.4 -1.2 -1.1 -2.1 -1.6 -2.1 -1.1 0 -1 2.6 0.6 19.1 0.7 7.7 1.4 14.2 1.4 14.7 0 0.4 3.5 0.7 7.8 0.7 l7.8 0 0.7 -8.7z m71.7 7.3 c0 0 -0.6 -2 -1.2 -4.5 -1.3 -4.3 -1.5 -4.5 -6.6 -6 -2.9 -0.8 -5.9 -2 -6.4 -2.4 -1.8 -1.5 -1.5 -9.2 0.7 -17.1 2.3 -8.7 2 -11.8 -2.5 -21.6 -3 -6.3 -4.3 -10.5 -6.3 -19.9 -0.6 -2.3 -1 -2.6 -4.2 -2.6 -3.3 0 -3.9 -0.5 -5.9 -3.4 -1.9 -3.1 -2.1 -4.7 -2.1 -12.4 0 -7.6 0.4 -9.6 2.4 -14 1.4 -2.9 4.1 -7.1 6 -9.2 2.7 -3 3.1 -3.7 1.5 -2.9 -7.3 3.8 -13.2 14.4 -13.2 23.3 0 2.4 -0.5 5.8 -1 7.4 -0.8 2.4 -0.7 3.7 0.9 7.5 2.4 5.7 2.7 17.2 0.6 21.5 -1 2 -1.3 4 -0.8 7.3 1 8 -0.2 12.4 -4.8 17.6 -3 3.3 -5.7 5.2 -8.8 6.3 l-4.6 1.7 0 12.4 0 12.4 28.2 -0.7 c15.4 -0.4 28.1 -0.7 28.2 -0.7z m258 -3.3 c22.8 -0.6 42.6 -0.9 44 -0.9 2.3 0 2.6 -0.3 2.3 -2.5 l-0.3 -2.5 -9.8 0.2 c-5.4 0.2 -19.2 0.7 -30.7 1.1 -11.5 0.5 -34.7 1.1 -51.6 1.4 -16.8 0.3 -34.1 0.7 -38.3 1 -6.9 0.5 -7.7 0.7 -7.7 2.4 0 1.8 0.6 1.8 25.4 1.2 13.9 -0.3 43.9 -0.9 66.7 -1.4z m-118.4 -4.4 c-1.6 -2.8 -2 -4.9 -2 -11 l0 -7.4 3.4 -0.3 c3 -0.3 3.6 0.1 4.8 2.5 2.2 4.3 7.9 9.3 11.3 10 3.3 0.6 7.3 -1 10 -4.1 1.6 -1.8 1.6 -1.9 -1.1 -2.3 -1.6 -0.4 -4.5 -2.1 -6.5 -3.9 -8 -7.3 -8.7 -19.6 -2.1 -39.7 5.1 -15.4 7.1 -26.9 6.3 -36.6 -1 -14 -5.9 -26.6 -13.3 -34.9 -4.4 -4.8 -7.2 -6.7 -11.6 -7.8 -2.2 -0.5 -2.6 -0.3 -3.1 2 -0.4 1.5 -1.1 3.9 -1.9 5.6 -1.2 2.7 -1.1 3.5 1.9 10.9 6.5 16.1 7.4 20.7 7.4 38.2 0 14 -0.3 16.7 -2.1 22.8 -2.8 8.8 -7.3 17.7 -14 27.8 -3 4.4 -5.9 9.4 -6.4 11.1 -1 3.1 -0.7 5.8 0.8 5.8 0.5 0 0.8 1.4 0.8 3.1 0 2.3 0.8 3.8 3.5 6.4 4.7 4.6 6.5 5.3 11.5 5.4 l4.4 0 -2 -3.4z m184.7 -19.3 c0.5 -16.8 0.9 -22.4 1.9 -23 0.7 -0.5 5.2 -0.8 10.1 -0.8 6.9 0 9.2 0.4 10.1 1.4 0.9 1 1 4.6 0.5 14.3 -0.4 7.1 -0.3 16.7 0 21.4 l0.7 8.5 14.5 -0.2 14.5 -0.3 0.6 -30.2 c0.3 -16.7 0.7 -62.6 0.7 -102.2 l0.1 -72 -19.7 0.7 c-10.9 0.4 -35.7 0.8 -55.1 1 -19.4 0.3 -35.5 0.7 -35.8 1 -0.5 0.5 -0.2 95.4 0.3 95.8 0 0.1 8 0.6 17.7 1.1 12.4 0.7 17.9 1.4 18.4 2.2 0.9 1.2 0.3 54.9 -0.8 77.2 l-0.6 11.8 5 0.3 5 0.3 0.3 6 c0.4 8.6 0.3 8.6 6 8.2 l4.9 -0.3 0.7 -22.2z m13.8 3.6 l0 -18.1 -2.3 0 c-2.3 0 -2.3 0.1 -2.3 7.7 0 4.2 -0.3 12.4 -0.7 18.1 l-0.6 10.4 2.9 0 3 0 0 -18.1z m-139.3 7.9 l5.6 0 -0.7 -24.8 c-0.4 -13.8 -0.8 -25 -0.9 -25.2 -0.2 -0.1 -5.5 0.1 -11.8 0.5 l-11.5 0.7 -0.3 16.1 -0.2 16 2.3 0 c2.1 0 2.3 0.3 2.3 4.5 0 3 -0.7 5.9 -2.4 8.9 l-2.4 4.6 7.2 -0.6 c4 -0.4 9.8 -0.7 12.8 -0.7z m36.5 -1.1 c0.1 -0.2 0.6 -11.3 0.8 -24.7 l0.7 -24.5 -12.7 0 -12.7 0 0.7 3.5 c0.3 1.9 0.6 13.2 0.6 25.2 l0 21.8 11.3 -0.6 c6.2 -0.3 11.4 -0.7 11.5 -0.8z m25.4 -0.5 l7.6 -0.6 0 -23.4 0 -23.4 -3.4 -0.7 c-2 -0.3 -7.2 -0.6 -11.6 -0.6 l-8.2 0 0 24.7 0 24.7 4 0 c2.1 0 7.3 -0.3 11.6 -0.7z m32.7 -1.9 c0.7 -0.7 1.7 -33.7 1.8 -59.5 l0.1 -22.4 -9.5 -0.7 c-5.3 -0.3 -31.7 -0.2 -58.9 0.4 -27.1 0.6 -50.4 1 -51.8 1 l-2.6 0 0 7.8 c0 10 -2 20.5 -6.7 34.9 -2 6.3 -3.7 12.8 -3.7 14.5 0 5.2 4.6 12.6 7.8 12.6 0.5 0 0.7 -9.4 0.7 -20.9 0 -20.7 0 -20.8 2.1 -22 1.6 -0.9 13 -1.2 50.4 -1.2 26.6 0 49.5 0.3 51 0.7 l2.5 0.7 0 27.7 0 27.7 8.2 -0.4 c4.5 -0.2 8.3 -0.6 8.6 -0.8z m-188 -4 c1.9 0 3.9 0.5 4.6 1.1 0.8 0.8 1.1 0.4 1.1 -2 0 -5.8 1.8 -9.7 9.3 -21.5 15.3 -23.5 18 -39.2 11 -62.2 l-2.1 -7 -0.5 9.8 c-0.5 7.9 -1 10.8 -2.8 14.4 -2.1 4.3 -2.6 4.7 -6 4.9 l-3.5 0.3 0.5 -4.5 c0.2 -2.4 1.1 -6.8 2 -9.6 1.9 -6.4 1.9 -13.2 0.1 -19.2 -1.6 -5.2 -1.9 -10.6 -0.5 -10.6 0.6 0 0.9 -1.2 0.9 -2.6 0 -5.3 -14.3 -19 -26.3 -25 -14.3 -7.2 -31.5 -9.3 -48.9 -6 -13.3 2.6 -20.5 5.3 -29.8 11.3 -8.1 5.2 -17.6 14.7 -20.6 20.5 -1 2 -1.9 3.8 -1.9 3.9 0 0.2 4.7 0.3 10.5 0.3 10 0 10.8 0.2 16.7 3.1 7.9 3.8 14 10.5 18.1 19.7 9.6 21.1 12.8 25.5 23 30.6 l5.6 2.8 2.7 -2.3 c3.4 -3 5.9 -3.4 13.8 -3 6.2 0.4 6.8 0.6 9.8 3.7 4.1 4.5 6.3 12.3 5.8 19.8 -0.5 5.6 -3.1 12.1 -5.7 14.3 -2.4 2 0.6 10.2 6.1 16.6 l3 3.4 0.3 -2.5 c0.3 -2.2 0.7 -2.5 3.8 -2.5z m-208.3 -5.1 c0 -3.5 -0.6 -4.7 -3.3 -7.9 l-3.3 -3.7 -1.8 3.4 c-1 2 -1.6 4.1 -1.3 4.9 0.4 1.1 8.5 7.4 9.6 7.4 0.1 0 0.2 -1.9 0.2 -4.2z m32.5 -18.3 c0.1 -3.6 -0.3 -5.6 -1.2 -6 -0.7 -0.4 -3.2 -3 -5.6 -5.8 -3.9 -4.7 -4.3 -5.5 -4.3 -10 l0 -4.9 3.5 0 c3 0 3.8 0.5 5.3 3.1 l1.9 3 0.7 -11.2 c0.4 -6.1 1 -14.3 1.4 -18.1 l0.7 -7 3.7 -0.3 c4.9 -0.5 6 1.3 6 9.7 0 10.8 0.6 12.3 4.6 12.7 3.3 0.3 3.3 0.4 3.6 4.3 0.3 3.5 -0.1 4.4 -3.2 7.4 l-3.5 3.4 0.3 15.3 c0.1 8.5 0.4 15.5 0.7 15.7 0.7 0.7 4.9 -2.8 6.9 -6 1.9 -3 2 -3.8 1.1 -6.3 -1.8 -4.7 -1.3 -9.3 1.3 -13.9 l2.3 -4.3 -2.5 -6.1 c-2.5 -6.4 -2.6 -8.8 -0.7 -21.7 0.5 -3.3 0.2 -4.6 -2 -7.6 -2.3 -3.4 -2.4 -4 -1.9 -10.6 0.6 -6.1 0.5 -7.3 -1.3 -10.1 -2.8 -4.5 -7.7 -6.8 -11.3 -5.3 -3.7 1.6 -6.4 5.2 -6.4 8.7 0 2.4 -0.7 3.3 -3.4 4.7 -5.4 2.9 -7.7 7.1 -7.7 13.8 0 4.7 -0.4 6 -2.2 8 -1.3 1.4 -3 3.9 -3.7 5.8 -1.3 3.2 -1.3 3.6 0.4 7 2.5 4.8 2.3 10.1 -0.5 15.6 -2 4.1 -2.1 4.7 -0.9 7.1 0.7 1.5 1.8 3 2.3 3.3 0.5 0.3 0.9 2.9 0.9 5.6 0 4.7 0.2 5.2 2.8 6.5 2 1 2.8 2.1 2.8 3.8 0 1.2 0.6 2.4 1.2 2.6 0.6 0.2 2.4 0.7 3.9 1.1 2.8 0.9 2.8 0.8 3.4 -3.3 0.3 -2.3 0.7 -6.6 0.7 -9.5z m-203.6 7.3 c0 -0.2 -0.8 -4.2 -2 -9 -2.1 -9.8 -3.2 -11.8 -5.2 -10 -4.1 3.3 -3.3 9.1 2.1 15.4 2.7 3.3 5 4.8 5 3.6z m162.8 -11 c0 -0.7 1.4 -0.9 4.2 -0.7 3.6 0.5 4.2 0.3 4.2 -1.2 0 -0.8 -0.6 -2.2 -1.2 -2.9 -5 -5.3 -6.2 -7.5 -6.2 -11.5 l0 -4.2 7.3 0.3 7.2 0.3 -0.3 -2.3 c-1.9 -13.3 -0.9 -20.2 3.2 -25.6 l2.2 -3 -2.1 -3.2 c-4.6 -6.8 -9.5 -3.2 -9.1 6.6 l0.2 5.5 -5.1 3.8 c-3 2.2 -5.9 5.4 -7 7.6 -1.8 3.6 -1.8 4 -0.4 7.2 2.3 4.9 2.6 13.2 0.7 16.8 -1.3 2.5 -1.4 3.4 -0.4 5.2 1.2 2.3 2.7 3 2.7 1.2z m199.7 -5.7 c-0.2 -1.2 -0.4 -0.5 -0.4 1.6 -0.1 2 0.1 3 0.4 2.1 0.2 -0.9 0.2 -2.6 0 -3.7z m-2.5 -7.3 c-0.6 -1 -2 -2.5 -3.3 -3.3 -2.1 -1.4 -2.5 -1.4 -4.8 0.2 l-2.6 1.8 4.4 0.3 c2.3 0.2 4.8 0.9 5.4 1.7 1.7 1.9 2.1 1.6 0.9 -0.6z m-222.7 -7 c2.8 -5.9 2.9 -11.4 0.3 -14.8 -4.5 -5.8 -6.2 -2.1 -5.7 11.8 0.4 8.9 0.6 9.9 1.9 8.8 0.7 -0.7 2.4 -3.3 3.5 -5.9z m-129.1 -18.3 l3 -2.5 -3.2 -1.9 c-1.7 -1.1 -4.9 -3.9 -7.1 -6.3 l-4 -4.3 0.6 6 c0.3 3.3 1 8.9 1.7 12.3 l1 6.1 2.6 -3.5 c1.4 -2 3.8 -4.7 5.4 -6z m242 -2.8 l-0.1 -6.8 -1.4 4.2 c-1 3.2 -1.1 4.8 -0.4 6.8 0.6 1.4 1.2 2.5 1.5 2.5 0.3 0 0.5 -3.1 0.4 -6.7z m202.9 -46 c0 -15.3 -0.3 -37.5 -0.7 -49.5 l-0.6 -21.8 -17.8 0.6 c-9.8 0.4 -28 1 -40.6 1.6 -12.6 0.6 -33.5 1.4 -46.5 1.9 -13 0.5 -30.8 1.3 -39.5 1.9 -12.7 0.7 -66.4 2.7 -75.5 2.8 l-2.1 0 0 35.6 c0 24.4 0.3 35.9 1 36.7 0.6 0.6 1.2 3.5 1.5 6.6 l0.6 5.7 4 -4.1 c4.8 -4.8 10.9 -7.9 15.5 -7.9 1.9 0 3.4 -0.2 3.4 -0.4 0 -0.2 0.3 -1 0.6 -1.9 0.5 -1.2 -0.1 -1.5 -2.3 -1.5 -3.5 0 -4 -1.5 -3.6 -11.6 l0.3 -7.4 9.7 -0.3 9.7 -0.3 3.9 -3.4 c15.2 -13.2 35.3 -19.3 62.7 -18.6 l15 0.3 0 -8.9 0 -8.9 6.3 -0.6 c13.6 -1.3 14.1 -0.9 14.1 9.7 0 7.1 -0.1 7.4 -2.4 8.3 -1.3 0.6 -5.1 0.9 -8.6 1 l-6.2 0 6.5 1.7 6.5 1.8 4.2 -4.4 c7.3 -7.6 10.5 -9.6 15.1 -9.2 l4 0.3 -0.1 6.2 c-0.1 3.4 -0.7 7.7 -1.3 9.6 -1 3 -0.9 3.5 0.7 4.7 0.9 0.8 3.9 1.3 7.1 1.4 6.9 0 11.5 2 12.4 5 0.5 2.1 1 2.4 4.9 2.4 8.4 0 16.9 6 22.8 16.1 3.1 5.2 8 19.3 8 22.9 0 3.3 0.6 3.8 4.4 3.8 l3.1 0 0 -27.6z m12.7 -44 l-0.2 -71.6 -2 0 c-2.1 0 -2.1 0.2 -2.2 13.8 -0.1 7.5 -0.2 17.5 -0.2 22 -0.1 4.7 0.2 30.7 0.7 58 0.7 47 0.8 49.5 2.5 49.5 1.6 0 1.7 -2.9 1.5 -71.6z m52.7 60.8 c0.4 -5.5 0.9 -35.9 1.2 -67.7 0.5 -54.1 0.5 -57.6 -1 -55 -4 7.3 -8.8 9.8 -19.1 9.8 -8.7 0 -11.7 -1.2 -15.5 -6.2 -2.1 -2.8 -2.6 -4.5 -3 -10.3 -0.2 -3.8 0.2 -8.6 0.7 -10.6 1.5 -4.9 6.9 -10.7 11.1 -11.9 4.5 -1.2 13.3 -1.2 16.7 0.1 3.4 1.3 7.6 5.3 9.2 8.7 1.1 2.6 1.2 2.1 1.3 -6.1 l0 -8.9 -7.6 -0.6 c-4.3 -0.4 -14.2 -0.7 -22.2 -0.7 l-14.5 0 -0.6 17.4 c-0.8 22.7 -0.8 113.2 0 135 l0.6 16.9 21.1 0 21.1 0 0.6 -9.9z m13.7 -61.3 c0 -58.3 -0.2 -70.2 -1.3 -70.2 -1 0 -1.3 10.1 -1.9 57.4 -0.3 31.6 -0.8 63.3 -1.2 70.3 l-0.6 12.7 2.5 0 2.4 0 0 -70.2z m-36.6 -69 c-0.1 -4 0.2 -8.3 0.7 -9.6 l0.8 -2.3 -2.1 1.9 c-2.7 2.4 -4.7 6.3 -4.7 9.2 0 1.9 3.9 8 5.1 8 0.2 0 0.3 -3.3 0.2 -7.2z m15.1 -0.4 c0.7 -2 0.5 -3.3 -1 -6.4 l-2 -3.9 -1.1 2.7 c-0.6 1.4 -1.4 5.5 -1.7 9 l-0.7 6.4 2.8 -2.6 c1.5 -1.4 3.1 -3.7 3.6 -5.2z"/>
  <path d="M419 375.9 c-5.7 -2.6 -7.8 -5.3 -7.8 -10 0 -2.1 0.6 -4.3 1.2 -4.7 1.3 -1 23.9 -7.8 33.2 -10 3.3 -0.7 8.8 -1.4 12.4 -1.4 l6.2 0 0 5.1 c0 6 -2.3 10.4 -8.5 15.6 -6.1 5.3 -12.3 7.2 -23.4 7.2 -7.3 0 -10.4 -0.5 -13.3 -1.8z m20 -8.2 c2.6 -0.8 6.3 -2.9 8.3 -4.6 l3.4 -3.1 -10.7 2.9 c-5.9 1.6 -11.7 3.2 -13 3.5 l-2.3 0.7 2.3 0.9 c3.3 1.4 6.6 1.3 12 -0.5z"/>
  <path d="M446.9 306.6 c-2 -1.6 -2.7 -3.3 -3.2 -6.7 l-0.7 -4.6 -2 4.5 c-2 4.2 -2.2 4.4 -5.9 4.4 l-3.7 0 0.4 -5.5 c0.5 -6.6 3.2 -11.1 9 -15 4.7 -3.2 4.6 -3.4 -0.2 -1.4 -1.9 0.7 -5.5 1.4 -8.1 1.4 l-4.7 0 0 -4.2 c0 -5.4 1.7 -8.7 6.5 -12.8 5 -4.3 10.6 -5.8 21.4 -5.8 14 0 23.3 4.1 23.3 10.2 0 1.7 -0.6 3.4 -1.1 3.9 -0.7 0.6 -4.9 1.2 -9.6 1.6 -4.6 0.4 -10.9 1.2 -14 1.9 l-5.6 1.3 7.9 0.1 c6.2 0.1 8.9 0.6 12.6 2.3 6.4 3 10 7.3 9.6 11.6 -0.3 3.2 -0.5 3.3 -3.9 3.6 -3 0.3 -4.1 -0.2 -6.5 -2.4 -1.6 -1.5 -3.9 -3.3 -5.1 -3.9 -2 -1 -2.1 -1 -1.4 0.6 0.5 1 0.8 4.5 0.8 7.6 0 5.1 -0.3 6.1 -2.2 7.7 -3.3 2.6 -10.4 2.4 -13.7 -0.5z"/>
  <path d="M648.7 323.5 c-3.8 -4.2 -5.3 -8.5 -5.7 -16.7 -0.5 -9.5 0.7 -13.8 4.6 -17.1 2.5 -2 3.7 -2.3 9.8 -2.3 4.3 0 8 0.6 9.6 1.4 6.2 3.2 12.2 13.7 12.2 21.7 l0 4.8 -3.5 0 c-3.4 0 -3.6 -0.2 -5.7 -5 -3.2 -7.6 -10.6 -15.6 -13.2 -14 -0.5 0.4 0.5 1.5 2 2.6 4.7 3.3 6.4 7.4 6.4 16.1 0 9.5 -0.9 10.6 -9 10.6 -4.6 0 -5.9 -0.4 -7.4 -2z"/>
  <path d="M787 280.4 l0 -10.8 7.3 0.7 c3.9 0.4 7.5 0.9 7.9 1.3 0.4 0.4 0.7 4.5 0.5 9 l-0.3 8.3 -4.4 0.3 c-2.5 0.2 -4.5 0.7 -4.5 1.2 0 0.5 -1.5 0.8 -3.3 0.8 l-3.3 0 0 -10.8z"/>
  <path d="M970 296.2 c-0.4 -0.4 -0.7 -4.9 -0.7 -10.1 l0 -9.5 3.5 -0.7 c4.5 -0.7 12.7 -0.7 14.5 0 1.2 0.5 1.5 2.2 1.5 9.7 0 5.1 -0.3 9.4 -0.7 9.6 -1.4 0.8 -17.6 1.7 -18.2 1z"/>
  <path d="M971.7 242.6 c-0.3 -1.2 -0.6 -5.6 -0.6 -9.7 0 -9.9 0.3 -10.1 11.6 -9.4 4.8 0.3 9.2 0.7 9.8 1.1 1.4 0.8 1.2 17.5 -0.2 18.9 -0.7 0.7 -4.5 1.1 -10.6 1.1 -9 0 -9.5 -0.1 -10 -2z m12.3 -8.5 c0.2 -1.1 -0.3 -1.6 -1.6 -1.6 -1.4 0 -2 0.6 -2 2 0 2.3 3.1 2 3.5 -0.4z"/>
  <path d="M925.1 234.8 c-0.5 -6.3 -0.4 -9.2 0.4 -10 0.7 -0.7 4.9 -1.1 11.5 -1.1 l10.4 0 0 9.8 0 9.8 -10.8 0.3 -10.9 0.3 -0.7 -9z m13.5 -0.8 c0 -0.8 -0.8 -1.4 -2.3 -1.4 -1.5 0 -2.3 0.6 -2.3 1.4 0 0.8 0.8 1.4 2.3 1.4 1.5 0 2.3 -0.6 2.3 -1.4z"/>
  <path d="M925.6 186.1 l0 -10.4 10.5 0.3 10.4 0.3 0.3 8.7 c0.1 4.8 -0.1 9.1 -0.7 9.7 -0.5 0.5 -5.3 1 -10.7 1.3 l-9.9 0.6 0 -10.4z m12.8 -0.3 c-0.3 -0.7 -1.2 -1.2 -2.1 -1.2 -0.9 0 -1.9 0.6 -2 1.2 -0.3 0.7 0.5 1.1 2 1.1 1.6 0 2.3 -0.5 2.1 -1.1z"/>
  <path d="M972.1 183.8 c0 -9.7 0 -9.9 2.3 -10.4 4.3 -1 17.2 0 18.1 1.5 1.1 1.8 1.2 15 0 16.7 -0.7 1 -3.3 1.4 -10.6 1.7 l-9.9 0.4 0 -9.9z m12.1 -0.6 c0 -0.5 -0.7 -0.9 -1.4 -0.9 -0.7 0 -1.4 0.5 -1.4 0.9 0 0.6 0.7 0.9 1.4 0.9 0.7 0 1.4 -0.4 1.4 -0.9z"/>
  <path d="M707.1 289.7 c-12.1 -5.2 -23.3 -23.3 -24.9 -40.1 l-0.6 -5.9 4.2 0 4.1 0 1.1 5.5 c2.5 12 12 26.6 21.1 32.4 3.7 2.3 4.2 3 4.2 6.1 0 3.3 -0.2 3.4 -3 3.4 -1.7 -0.1 -4.5 -0.7 -6.2 -1.5z"/>
  <path d="M718.1 272 c-7.9 -3.4 -13 -11.9 -13 -21.5 l0 -5.9 3.7 0 c3.3 0 3.7 0.3 3.7 2.1 0 3.4 4.2 11.2 7.7 14.3 1.9 1.7 5.1 3.4 7.2 4 3.5 0.9 3.7 1.2 3.7 4.7 l0 3.7 -4.8 0 c-2.7 -0.1 -6.4 -0.7 -8.2 -1.5z"/>
  <path d="M728.1 259.4 c-6.1 -4 -9.4 -9.1 -9.4 -14.6 l-0.1 -4.4 3.4 -0.3 c3.2 -0.3 3.6 0 5.3 3.3 2 4.1 6.3 8 11.1 10.2 2.7 1.3 3.1 1.9 2.8 4.8 -0.3 3.2 -0.4 3.3 -4.5 3.5 -3.4 0.2 -5 -0.3 -8.7 -2.7z"/>
  <path d="M740.5 250.5 c-1.3 -0.8 -3.7 -2.8 -5.3 -4.3 -2.5 -2.4 -3.1 -3.5 -3.1 -6.9 l0 -4 3.5 0 c2.9 0.1 4.3 0.9 8.8 5.1 4.5 4.3 5.3 5.5 5.3 8.4 0 3.2 -0.1 3.3 -3.5 3.3 -2 0 -4.6 -0.7 -5.8 -1.6z"/>
  <path d="M619.3 204.1 c-0.4 -0.4 -0.7 -5.4 -0.7 -11.1 l0 -10.4 3.5 -0.7 c4.5 -0.7 12.2 -0.7 15.9 0 l2.9 0.7 0 10 0 10 -2.5 0.6 c-5.1 0.9 -18.4 1.6 -19.2 0.9z m13.1 -11.3 c-0.2 -1 -1.3 -1.8 -2.9 -2 -2 -0.3 -2.5 0.1 -2.5 1.6 0 1.6 0.6 2 2.9 2 2.2 0 2.8 -0.4 2.5 -1.6z"/>
  <path d="M664.4 188.3 l0.3 -10.1 9.7 -0.3 c7.2 -0.2 10 0.1 10.5 0.9 1 1.7 0.9 17.2 -0.1 17.9 -0.5 0.4 -5.3 0.8 -10.7 1.2 l-10 0.6 0.3 -10.1z m11.9 -0.4 c0 -0.5 -0.8 -0.9 -1.9 -0.9 -1 0 -1.9 0.5 -1.9 0.9 0 0.6 0.8 0.9 1.9 0.9 1 0 1.9 -0.4 1.9 -0.9z"/>
  <path d="M774.9 186.1 l0 -10.1 9.7 -0.7 c5.4 -0.4 10.2 -0.4 10.7 0 0.7 0.4 1 4.4 1 9.9 0 9.1 0 9.3 -2.4 10.1 -1.3 0.6 -6.1 0.9 -10.7 0.9 l-8.3 0 0 -10.1z m13 -0.6 c0 -0.8 -0.8 -1.4 -2.3 -1.4 -1.5 0 -2.3 0.6 -2.3 1.4 0 0.8 0.8 1.4 2.3 1.4 1.5 0 2.3 -0.6 2.3 -1.4z"/>
  <path d="M859.1 248.2 c-0.3 -1.7 -0.5 -7.1 -0.3 -11.9 l0.3 -8.8 7.9 0.3 c4.7 0.2 8.2 0.7 8.6 1.4 1.1 1.7 0.8 18.2 -0.2 20.3 -0.8 1.5 -2 1.8 -8.4 1.8 l-7.3 0 -0.6 -3z"/>
  <path d="M858.3 208.7 c-0.4 -0.4 -0.7 -5.9 -0.7 -12.2 l0 -11.4 8.4 0 8.5 0 -0.3 11.9 -0.3 11.8 -7.4 0.3 c-4.2 0.1 -7.8 0 -8.2 -0.4z"/>
 </g>
 <g fill="#ffffff">
  <path d="M0 357.2 l0 -357.2 640 0 640 0 0 357.2 0 357.2 -238.1 0 c-217.9 0 -238.1 -0.1 -238.1 -1.5 0 -4.4 -6.6 -20.2 -14.1 -33.8 -5.6 -10.1 -8.6 -16.6 -8.8 -19.1 -0.4 -3.5 4.7 -38.4 5.8 -39.4 0.3 -0.3 4.3 -1.5 8.9 -2.7 4.7 -1.2 8.9 -2.4 9.5 -2.8 1 -0.7 0.2 -40.2 -1.1 -49.1 -0.5 -3.1 -0.6 -9.6 -0.3 -14.5 l0.5 -8.8 3.5 1.8 c3.3 1.6 3.8 1.7 9.3 0.3 9.2 -2.4 16.4 -6.8 25 -15.4 13.2 -13.1 17.2 -24.2 15 -41 -1.5 -11.2 -9.5 -30.8 -18.3 -45.1 -2.2 -3.6 -4.1 -6.9 -4.1 -7.2 0 -0.4 0.9 -0.7 2.1 -0.7 2.4 0 6.2 -3.5 6.2 -5.8 0 -0.8 -2.5 -2.6 -6 -4.4 -6.5 -3.3 -7.3 -4.3 -8.4 -9.7 -0.4 -1.9 -1.2 -3.4 -1.9 -3.4 -0.7 0 -2.7 -3.4 -4.6 -7.6 -5 -11.2 -10.1 -19.4 -15 -24.4 -2.3 -2.4 -4.2 -4.5 -4.2 -4.7 0 -0.5 35 -1.3 116.3 -2.9 95.6 -1.9 104.3 -2 105.1 -3 0.4 -0.4 0.9 -48.7 1.1 -107.1 0.4 -84.1 0.2 -106.6 -0.7 -107.5 -1.2 -1.3 -24.3 -1.1 -83.7 0.4 -5.6 0.2 -15.7 0.2 -22.4 0.2 l-12.4 -0.2 -0.2 -21.6 -0.3 -21.7 -5.8 -0.3 -5.9 -0.3 0 -12.5 c0 -12 -0.1 -12.6 -2 -13.6 -1.5 -0.8 -9.9 -1.1 -28 -1.2 -21.9 -0.1 -26 0.2 -26.7 1.3 -0.5 0.7 -0.9 6.7 -0.9 13.2 l0 11.8 -6.2 0.3 -6.3 0.3 -0.8 21.9 c-0.4 12 -0.8 22 -1 22.1 -0.4 0.4 -39.5 1.9 -80.5 3 -19.7 0.5 -40.8 1.4 -47 1.9 -10.7 0.9 -34.5 2 -80.7 3.5 -16.9 0.6 -21.4 1 -22.1 2.1 -0.5 0.7 -0.8 17 -0.8 36.9 0 19.5 -0.3 35.5 -0.7 35.5 -0.5 0 -2.6 -0.7 -4.9 -1.5 -8.9 -3.1 -19.4 2.8 -19.5 11 -0.1 1.5 -1.3 2.9 -4.3 4.7 -2.7 1.7 -4.7 3.7 -5.6 6 l-1.4 3.3 -2.9 -2.9 c-2.3 -2.4 -3.5 -2.9 -7.2 -2.9 -7 0.1 -11.3 5.2 -11.3 13.7 0 4.2 -0.3 4.7 -4.6 8.4 -8.2 7.1 -10.3 14.8 -6.4 23.6 1.9 4.5 1.9 4.8 0.5 7.9 -2.2 4.6 -2 10.9 0.5 15.3 2 3.4 2 3.6 0.5 7 -2.6 5.4 -2.1 9.5 1.5 12.8 5.4 5.2 10.3 8.6 13.2 9 l2.8 0.5 0 9.5 c0 5.2 -0.4 9.9 -0.9 10.4 -1.1 1 -33.8 1.4 -45.1 0.5 -11.9 -0.9 -11.6 -0.5 -7.3 -11.7 5 -13.1 8.8 -28.4 9.6 -38.5 l0.7 -8.5 3.1 -1.1 c6.1 -2.1 11.2 -10.7 12.2 -20.4 0.7 -6.5 -0.6 -11.2 -4.3 -15.4 -2.6 -3 -2.7 -3 -1.7 -10.3 2 -15.7 -0.6 -35.8 -6.3 -50.6 -12.2 -30.6 -39.4 -46.8 -68.4 -40.7 -8.6 1.9 -13.3 4.5 -20.4 11.3 l-6 5.9 -4.2 -0.9 c-2.3 -0.6 -7.5 -0.8 -11.6 -0.6 -9 0.6 -16.7 3.4 -25.1 9.4 -15.7 11.3 -22.1 27.5 -22.1 55.9 0 12.1 0.3 15.2 2.4 23.2 1.6 5.9 4 12 6.7 16.7 l4.2 7.4 -2 2.2 c-2.5 2.6 -3.3 10.1 -1.9 15.7 2.1 8 9.3 14.6 17.3 15.9 3.1 0.5 3.5 1.1 7.3 9 4.7 10 12.1 20 23.3 31.9 5.2 5.6 7.6 8.8 6.8 9.1 -0.7 0.2 -4.2 1 -7.9 1.8 -13.4 2.7 -31.7 13.4 -42.2 24.5 -7.3 7.6 -12.4 17.3 -16.9 31.4 -3.2 9.8 -6.2 26.3 -6.2 33.4 0 3 0.3 3.3 2.4 3.3 1.9 0 2.2 0.4 1.9 1.7 -2.8 9 -3.7 15.7 -3.7 28.1 -0.1 12.2 0.1 13.9 2 17.4 1.2 2.1 3.4 4.8 5.1 6 2.7 1.9 4.1 2.1 11.4 2.1 7 -0.1 9.9 -0.6 17 -3.1 4.7 -1.7 9 -3 9.4 -3 0.5 0 1 2.4 1.4 5.4 2.8 23.1 3.6 34 4.2 52.1 0.6 20.1 0.7 20.8 2.7 22.3 2 1.5 2.1 2.5 3 21.1 0.9 19.1 2.7 79.7 2.3 80.3 -0.1 0.1 -6.9 0.1 -15 0 l-14.7 -0.3 10 -7 c5.4 -3.8 10 -7.5 10 -8.3 0 -2 -2.2 -0.7 -12.9 7.8 l-10 7.9 -7.1 0 -7.2 0 1 -2.5 c1.4 -3.7 0.2 -7.3 -3.8 -10.8 -3.3 -2.7 -3.5 -3.4 -3.5 -7.4 0.1 -5.2 -1.6 -7.5 -7.3 -10.1 -2.6 -1.1 -4.2 -2.5 -4.6 -3.9 -1 -4.2 -4.6 -6.4 -9.9 -6.5 -9.9 0 -23.6 2 -27.3 4 -7.1 3.7 -10.6 8.4 -10.6 13.9 0 2.1 -0.7 2.9 -3.7 4.3 -2 0.8 -4.5 2.8 -5.5 4.2 -2.4 3.3 -3.3 9.1 -2 12.5 l1 2.5 -134.9 0 -134.9 0 0 -357.2z m346.3 332.4 c-2.1 -8.1 3.6 -17 11.1 -17 1.7 0 2.5 -0.8 3.4 -3.3 0.7 -2 2.2 -3.8 3.8 -4.7 3.5 -1.9 10.6 -1.8 13.6 0.1 2.6 1.8 4 1 2.6 -1.3 -1.4 -2.2 -7.6 -4.1 -11.6 -3.4 -4.7 0.8 -9.2 3.8 -10.4 7 -0.7 2 -1.8 2.8 -4.1 3.3 -6.4 1.2 -11.4 7.9 -11.4 15.3 0 4.6 0.7 6.6 2.4 6.6 1 0 1.2 -0.7 0.7 -2.5z m-45.9 -19.3 c0 -0.2 -0.8 -1.8 -1.9 -3.4 -2.3 -3.9 -2.3 -9.1 0 -13.8 2 -4 7.6 -8.4 10.9 -8.4 3.7 0 4.9 -1 4.9 -4.2 0 -10.8 9.8 -17.7 21.2 -15 2.1 0.5 3 0.4 3 -0.5 0 -3.2 4 -9 7.3 -10.9 6.3 -3.5 15.9 -2.1 15.9 2.3 0 0.8 1.3 1.2 4.3 1.2 3.4 0 4.7 0.5 7.1 2.8 3.3 3.3 3.5 3.3 3.5 1 0 -2.7 -5.2 -6.6 -8.7 -6.6 -2 0 -3.7 -0.8 -5.5 -2.7 -4.1 -4.3 -10.2 -4.6 -17.7 -0.9 -3.4 1.8 -8.2 7.5 -8.2 10 0 0.9 -0.9 1.1 -3.6 0.7 -4.4 -0.7 -9.9 0.7 -14.1 3.5 -3.5 2.3 -7.3 9 -7.3 12.9 0 2.1 -0.6 2.7 -3.8 3.5 -8.2 2.2 -14.6 11.5 -13.7 20 0.6 4.7 2.9 8.8 4.9 8.8 0.7 0 1.4 -0.2 1.4 -0.5z"/>
  <path d="M271.6 711.1 c-0.7 -1.8 -0.8 -4.3 -0.6 -5.5 0.9 -3.7 5 -7.8 8.6 -8.5 3 -0.6 3.2 -0.7 3.2 -4.6 0 -4.9 2.9 -9.5 7.9 -12.3 4.6 -2.6 11.3 -3.7 13.6 -2.3 1.2 0.8 2.3 0.7 4.5 -0.4 3.5 -1.8 12.5 -2.1 14.3 -0.6 0.7 0.7 1.7 2.6 2 4.4 0.6 2.7 1.1 3.3 3.9 3.8 1.8 0.3 4.5 1.8 6 3.3 2.9 2.7 3.2 4.6 1.3 9.3 -0.4 1.1 0.4 2 2.7 3.4 4.1 2.4 6.3 6.5 5.6 10.3 l-0.6 2.9 -35.6 0 -35.6 0 -1.1 -3.3z"/>
  <path d="M461.8 712.9 c0.3 -0.8 0.6 -2.3 0.7 -3.4 0.1 -1.9 0.2 -1.9 0.8 0.3 1.2 3.6 1 4.7 -0.6 4.7 -1 0 -1.3 -0.5 -0.9 -1.5z"/>
  <path d="M537.3 691 c-0.3 -12.9 -0.8 -33.2 -1.1 -45 l-0.7 -21.5 4.6 0.4 c3.6 0.4 5.5 -0.1 9 -2 2.4 -1.3 5.3 -2.4 6.4 -2.4 3.2 0 8.7 -6.4 10.4 -12.1 0.8 -2.7 1.5 -5.7 1.5 -6.5 0 -1.2 2.5 -2.5 9.6 -4.9 5.2 -1.8 10.5 -3.5 11.8 -3.9 5 -1.5 4.9 -1 4.2 -24.7 -0.6 -22.1 -2.4 -46.6 -4.5 -61.8 -1.1 -8.3 -1.1 -8.3 -4.8 -10.5 -2.4 -1.4 -4.9 -2 -7.3 -2 l-3.6 0.2 -2.5 -12.5 c-1.5 -7.3 -2.2 -12.9 -1.8 -13.4 3.5 -3.8 -2.9 -40.7 -9.3 -53.4 -6.2 -12.3 -19.1 -24.6 -33.5 -31.8 l-8.8 -4.4 20.5 -0.6 c11.2 -0.4 40.8 -0.9 65.8 -1.2 l45.4 -0.7 6 6.6 c7.7 8.6 13.1 10.8 23.9 10.2 6 -0.4 8.4 -1 14.9 -4.3 4.6 -2.2 8 -3.4 8.5 -3 0.6 0.6 -0.8 7.9 -3.4 18.8 -2.4 9.9 -4.8 21.3 -5.4 25.4 -0.8 6 -1.5 7.9 -3.7 10.5 -1.6 1.8 -3.3 4.3 -3.7 5.6 -0.9 2.3 -1 2.2 -7.6 -4.9 -3.7 -4 -7.3 -8.1 -8 -9.1 -1.2 -1.8 -1.2 -1.9 0.7 -1.4 1.8 0.5 2 0.2 2 -2 0 -1.5 1 -3.8 2.2 -5.3 2 -2.2 2.9 -2.6 7 -2.4 3.4 0.1 4.7 -0.3 4.7 -1.2 0 -1.7 -3.9 -2.6 -7.8 -1.9 -3.8 0.7 -8.9 6.1 -8.9 9.4 l0 2.2 -3.3 -2.1 c-3.8 -2.6 -9.4 -3.8 -13.7 -2.9 -3.7 0.7 -9.9 4.2 -12.2 6.8 -1.4 1.6 -2.2 1.8 -4.1 1 -7.5 -2.8 -14.7 2 -15.3 10.3 -0.2 2.3 -0.9 3.3 -3.5 4.7 -5.6 2.9 -7.8 6.6 -7.6 12.7 0.2 3.8 2.6 8.7 4.4 8.7 1.6 0 1.9 -1.5 0.5 -2.3 -0.5 -0.3 -1.3 -2.1 -1.9 -4.2 -1.8 -6.5 2.9 -13 9.3 -13 1.6 0 1.9 -0.6 1.9 -4.6 0 -6.5 2.9 -9.9 8.4 -9.7 2.1 0.1 4.5 0.7 5.2 1.3 1 0.8 2 0.5 4.6 -1.9 6.9 -6 14.6 -8.2 19.9 -5.4 1.7 0.8 2.2 2 2.4 4.4 0.1 1.8 0.5 4.1 0.9 5.1 0.5 1.1 -1 0.2 -3.5 -2.2 -2.3 -2.2 -4.7 -3.7 -5.2 -3.4 -1.7 1 -1.2 5.1 1.2 9.8 l2.1 4.4 -5.3 -2.8 c-9.9 -5.2 -11.6 -0.5 -2.8 8 3.1 2.9 5.6 5.5 5.6 5.8 0 0.3 -1.8 -0.1 -3.8 -0.8 -5 -1.8 -7.9 -1.8 -8.7 0.1 -1.1 3 4.3 8.3 13.1 12.8 2.2 1.1 3.3 2.5 4 5.2 1.4 5.1 5.2 9.2 10.9 11.7 2.7 1.2 4.9 2.8 4.9 3.4 0 2 7 11.4 16.4 22.2 l8.7 10 -0.9 10.5 c-0.5 5.8 -0.9 16.2 -0.9 23.1 0 6.9 -0.7 18.3 -1.3 25.3 -0.7 7.1 -1.7 19.1 -2 26.8 l-0.7 14 2.2 0 c4.9 0 5.1 0.7 3.3 14.1 -0.9 6.8 -1.9 17.6 -2.1 24 -0.5 10.9 -0.2 12.8 3.3 30.8 2.1 10.5 3.8 20 3.8 21.1 l0 2 -85 0 -84.9 0 -0.7 -23.4z m68.2 -145.1 c3.9 -2.7 14.8 -10.5 24.3 -17.5 9.5 -7 23 -16.7 30 -21.8 7 -5 12.7 -9.5 12.7 -9.9 0 -2.9 -3.5 -0.6 -48.5 32.1 -10.5 7.7 -21.1 15.3 -23.4 16.9 -4.2 2.9 -5.6 4.9 -3.3 4.9 0.6 0 4.3 -2.1 8.1 -4.8z m34.5 -41.1 c0 -3.4 -3.8 -8.3 -8.1 -10.3 -2.8 -1.3 -4 -2.4 -4 -3.7 0 -4.7 -6 -8.8 -12.7 -8.8 -2 0 -4.3 -0.7 -5.7 -1.9 -2.9 -2.2 -10 -2.5 -14.5 -0.6 -4.3 1.9 -8.1 6.2 -8.7 10.1 -0.7 4.8 1.1 4.4 3.3 -0.7 2.4 -5.6 6.5 -8 12.7 -7.7 3.8 0.3 4.8 0.7 5.6 2.4 0.8 1.9 1.4 2 5.2 1.5 3.1 -0.5 5.2 -0.1 7.7 1 3.2 1.5 3.7 2.5 4.5 7.3 0.2 1 1.3 2.1 2.7 2.4 4.4 1.2 7.3 3.8 8.5 7.5 1.1 4 3.5 4.9 3.5 1.4z m-34.4 -35 c0 -0.9 -1.4 -2.9 -3.2 -4.4 -1.7 -1.4 -3.5 -3.5 -4.1 -4.6 -2.4 -4.6 -12.6 -6.5 -19.3 -3.7 -1.8 0.7 -3.3 2 -3.3 2.8 0 1.9 0.9 1.9 4.3 0.1 5.9 -3.1 16.2 -0.6 16.2 3.9 0 1.7 0.7 2.5 2.9 3.3 1.6 0.6 3.2 2 3.7 3.3 0.9 2.5 2.7 2 2.7 -0.7z"/>
  <path d="M710.3 709.6 c-0.4 -2.7 -2.1 -12.1 -3.9 -20.9 -3.8 -19.2 -4 -27 -1 -50 l2 -15.8 6.8 -0.3 c6.2 -0.3 6.7 -0.1 6.7 1.7 0 2.5 3.3 3.7 10.1 3.7 l5.4 0 0.6 18.9 c0.4 11.2 0.3 20.3 -0.3 22.5 -1.2 4.8 -1.2 13.1 0 17.2 0.7 2.6 4.7 25.5 4.7 27.3 0 0.3 -6.9 0.6 -15.3 0.6 l-15.2 0 -0.7 -4.8z"/>
  <path d="M743.3 706.3 c-0.7 -4.6 -2 -12.1 -2.9 -16.9 -1.9 -9.1 -2.3 -16.8 -1 -16.8 0.5 0 1.3 1.6 1.9 3.5 0.6 1.9 3.4 7.3 6.2 12.2 5.2 8.7 11 19.7 12.6 23.9 l0.9 2.2 -8.3 0 -8.3 0 -1.1 -8.1z"/>
  <path d="M760.5 706.3 c-2 -4.5 -6 -11.9 -8.7 -16.5 -9.4 -15.7 -10.9 -21.4 -11.8 -46.2 l-0.7 -15.5 6 -0.7 c6.6 -0.7 31.7 -4.7 35.1 -5.7 1.8 -0.6 2 -0.3 2 2.4 0 1.7 -1.1 9.3 -2.4 17.1 -3.3 18.9 -3 22 3.3 32.7 8 13.7 12.9 23.7 15.3 31.4 1.3 4 2.3 7.6 2.3 8.2 0 0.5 -7.4 0.8 -18.4 0.8 l-18.4 0 -3.6 -8.1z"/>
  <path d="M527.4 620.8 c-1 -1.2 -1 -2.1 0 -5.8 0.7 -2.4 1.4 -5.5 1.7 -7 l0.4 -2.5 -5.2 0.6 c-7.1 0.8 -7 -1.1 0.2 -6 3 -2 6.9 -5.3 8.7 -7.3 4.5 -4.9 4.9 -8.7 4.1 -36.9 -0.4 -14 -0.3 -28.6 0.5 -39.1 l1 -16.7 -2.9 -10.9 c-1.6 -6 -2.9 -11.2 -2.9 -11.4 0 -0.8 4.5 -2.3 15.8 -5.2 16 -4 15.3 -4.3 17.6 5.5 3 12.6 3.7 22.3 2.8 35.8 -0.4 6.6 -1 13.8 -1.3 15.9 -6.4 47.7 -7 54.7 -4.6 62.4 2.6 8.7 -0.4 20.7 -6.1 24 -1.6 0.9 -3.6 1.5 -4.6 1.1 -1.1 -0.4 -2.1 0 -2.6 0.8 -1.1 2 -5.9 4.3 -8.8 4.3 -2.1 0 -2.6 -0.4 -2.6 -2.3 0 -2.8 -0.3 -2.9 -3.5 -0.6 -3.8 2.7 -6.2 3.2 -7.6 1.4z"/>
  <path d="M494 614.7 c-1.6 -4.9 -3.7 -15.8 -7.1 -36.6 -1.8 -10.7 -4.3 -24.7 -5.6 -31.1 -3.2 -15.4 -3.2 -15.1 1.2 -13.6 3.3 1.1 3.5 1.6 4.6 6.6 0.7 3.1 3.3 20.6 5.9 39 2.6 18.4 4.9 34.6 5.2 36.1 0.5 2 0.2 2.5 -1.3 2.5 -1.3 0 -2.2 -0.9 -2.9 -3z"/>
  <path d="M406.4 612.1 c-7.4 -0.4 -14.4 -1.1 -15.4 -1.7 -2.6 -1.4 -3.1 -4.7 -3.1 -21.5 0 -8 -0.4 -17.7 -0.9 -21.5 -1.8 -13.5 -4 -36.3 -3.6 -36.5 0.2 -0.2 3.9 -2 8.3 -4.2 4.4 -2.1 10.6 -5.7 13.9 -7.8 3.8 -2.5 7.3 -4 9.4 -4.1 1.9 -0.1 6 -1.5 9.4 -3 4.8 -2.3 7.5 -3 14.3 -3.3 5.8 -0.4 9.9 -1.1 12.8 -2.4 l4.4 -2 2.3 2.3 c1.6 1.6 3.3 2.2 6 2.2 3.3 0 4.1 -0.5 6.2 -3.4 1.4 -2 4.1 -5.2 6 -7.3 1.9 -2 3.7 -4.7 4 -5.8 0.4 -1 1.7 -2.6 2.9 -3.4 3 -2 3.2 -6.8 0.4 -9.8 -3.2 -3.3 -7.4 -4.7 -17.3 -5.3 -10.1 -0.7 -19.9 0.8 -30.5 4.7 -5.6 2 -6 2 -6.3 0.5 -0.9 -3.3 -10.8 -4.8 -18.5 -2.7 -3.9 1.1 -8.2 5.7 -8.2 8.7 0 1.7 -1 2.4 -5.4 3.8 -2.9 0.9 -9 3.3 -13.6 5.4 -4.6 2 -8.4 3.4 -8.6 3.3 -0.1 -0.2 0.2 -3.3 0.7 -6.8 0.5 -3.6 1.2 -10.7 1.7 -15.8 0.6 -5.1 1.2 -12.1 1.6 -15.5 0.5 -4.3 0.3 -6.3 -0.4 -6.3 -0.6 0 -1.2 0.7 -1.5 1.7 -1 3.2 -2.4 14.7 -2.4 20.1 l0 5.4 -6.2 -0.7 c-3.5 -0.5 -12 -0.8 -19 -0.7 l-12.7 0 0.5 -3.7 c1.8 -15.8 7 -33.9 13 -45.6 8.2 -15.5 32.2 -32.5 50.2 -35.4 3.8 -0.6 4 -0.6 5.2 2.5 4.4 10.4 24.4 18.5 39 15.7 18.2 -3.5 43.5 -23 43.5 -33.6 0 -1.6 0.6 -1.9 3.5 -1.9 8.5 0 31.1 7.5 39.6 13.2 6.9 4.5 18.2 15.6 22.1 21.6 6.1 9.5 11.9 31.9 12.3 47.2 l0.1 6.7 -9.8 2.1 c-5.4 1.2 -13.8 3.4 -18.6 4.9 -4.8 1.6 -8.9 2.6 -9.1 2.4 -0.2 -0.2 -1.1 -4.4 -2.1 -9.3 -2 -10.9 -2.6 -12.6 -3.7 -12.6 -1.3 0 -0.9 4 1.4 15.8 1.9 9.7 2.2 10.7 4 10.5 1.6 -0.2 2.2 0.8 3.9 6.6 2.9 9.6 4.3 18.1 3.3 19.1 -0.5 0.5 -11.8 4.4 -25.2 8.7 -13.4 4.5 -26.5 9.1 -29.1 10.4 l-4.7 2.3 0 4.7 c0 2.6 1.1 10 2.4 16.6 3.9 19.3 9.7 55.4 8.9 56.1 -1.1 1.1 -16.8 5.3 -25.8 7 -10 1.8 -36 2.4 -55.4 1.3z"/>
  <path d="M719.4 569.2 c-4.2 -0.5 -9.2 -1.3 -11.2 -2 l-3.6 -1.2 -0.3 -11.1 c-0.3 -10.9 0.9 -28.9 2 -30 0.3 -0.3 1.5 0.1 2.7 0.8 1.1 0.8 3.9 2 6 2.6 3.6 1 4.2 0.9 8.1 -1.4 5.9 -3.4 19.7 -16.8 27.6 -26.7 3.6 -4.6 6.9 -8.3 7.2 -8.3 0.4 0 1.7 1.5 2.9 3.3 4.4 6.5 15.4 15.8 26.4 22.2 6 3.5 11.2 6.8 11.4 7.2 0.7 1.3 2.4 26.8 1.9 29 -1 4.3 -17.5 11.3 -33.6 14.1 -10 1.8 -36.8 2.6 -47.5 1.3z"/>
  <path d="M346 535.7 c-6.3 -2.7 -9.3 -9.4 -9.3 -21.2 0 -12.7 3.7 -31.2 6.5 -32.7 3.5 -1.9 27.9 0 29.6 2.2 0.4 0.6 0.4 4.4 -0.1 8.5 l-0.8 7.4 -3.6 1.6 c-3.5 1.5 -4.9 3.5 -2.4 3.5 0.7 0 7.4 -2.9 15.1 -6.4 14.9 -6.8 21.9 -9.4 25.1 -9.4 1.9 0 2.1 0.8 3.4 9.6 0.7 5.2 1.7 10.1 2 11 0.6 1.2 -1.1 2.7 -8 7 -21.8 13.5 -49.1 22.5 -57.5 18.9z"/>
  <path d="M482.5 530 c-1.4 -0.5 -2.4 -1.4 -2.2 -2 0.5 -1.5 13.5 -6.4 34.1 -12.9 10 -3.1 18.7 -5.9 19.3 -6 0.7 -0.3 1.1 0.4 1.1 1.7 0 2 -1.2 2.7 -11.4 6.3 -6.2 2.2 -17.3 6.3 -24.7 9.1 -7.3 2.7 -13.4 4.9 -13.5 4.8 -0.1 0 -1.4 -0.5 -2.8 -1z"/>
  <path d="M710.2 522.9 c-7.8 -4.5 -25.7 -24.7 -29.2 -32.9 -1.2 -2.8 -2.5 -4.4 -3.4 -4.4 -2.7 0 -9.6 -4.6 -11 -7.3 -0.7 -1.4 -1.6 -3.8 -1.9 -5.4 -0.6 -2.3 -1.9 -3.5 -7.4 -6.7 -11 -6.2 -12.1 -9.2 -2.3 -5.9 6.1 2 10.1 2.5 10.1 1.1 0 -0.5 -3.3 -3.8 -7.4 -7.5 -7 -6.3 -8.7 -8.4 -6.6 -8.4 0.5 0 4.7 2.5 9.2 5.6 4.7 3.1 8.7 5.6 8.9 5.6 1.5 0 0.2 -2.8 -3.3 -7 -2 -2.5 -4.4 -5.7 -5.1 -7.2 -2.9 -5.5 -0.9 -4.6 6 3 4.1 4.4 7.7 7.5 8.1 7.2 0.5 -0.4 -1.2 -4.5 -3.6 -8.9 -2.4 -4.6 -4.4 -8.6 -4.4 -9 0 -1.1 7 5.9 12.4 12.5 2.6 3.2 5 5.8 5.5 5.8 0.4 0 1.8 -2.2 3 -5 1.2 -2.7 2.6 -5.2 3 -5.5 0.5 -0.3 0.8 6.7 0.9 15.4 0.1 8.8 0.4 16.9 0.7 18 0.4 1.1 3.3 3.8 6.4 6 3.2 2.2 8.2 6.3 11.2 9.2 l5.4 5.2 1.8 -2.3 c4.3 -5.4 10.2 -15 14 -22.1 2.9 -5.7 4.4 -7.5 5.5 -7.3 0.8 0.3 7.4 1.6 14.6 3 7.3 1.3 13.8 2.8 14.4 3.2 1.5 1 -3.8 10 -13.7 23.2 -9 12.2 -17.5 21.1 -25.4 27.1 -7.3 5.5 -9.8 5.8 -16.4 2z"/>
  <path d="M835.6 512.1 c-9.8 -3 -18.9 -11.3 -23.5 -21.2 -1.6 -3.2 -2.8 -6.2 -2.8 -6.8 0 -0.7 1.6 -0.6 4.9 0.4 6.8 2 26.5 1.9 32.7 -0.1 2.9 -1 4.9 -1.2 5.5 -0.7 0.5 0.5 0.9 5.4 0.9 10.9 0.1 7.6 -0.3 11.1 -1.6 14.5 l-1.8 4.4 -5.2 -0.1 c-2.9 0 -7.1 -0.6 -9.2 -1.3z"/>
  <path d="M432 505.4 c-3.8 -0.4 -3.9 -0.5 -4.5 -4.7 -0.3 -2.3 -0.6 -6.5 -0.6 -9.2 0 -6.1 1.8 -7.7 12.5 -11.2 10.8 -3.3 21.2 -4.6 30.4 -3.3 8.6 1 12.3 3.2 12.7 7 0.4 2.9 -1.9 3.3 -4.8 1.1 -2.6 -2 -13.6 -2 -13.6 0 0 1.1 1.2 1.4 5.2 1.4 8.6 0 10.9 2.6 6.8 7.8 l-1.9 2.4 -3.8 -2 c-4.4 -2.2 -14.1 -3.4 -15.1 -2 -0.4 0.7 0.7 1.2 2.9 1.6 11.3 1.8 13.5 3.5 10.5 8.4 -1.6 2.6 -2.6 3.3 -4.9 3.3 -2.5 -0.1 -2.7 -0.2 -1.3 -1 2.4 -1.4 0.6 -3.3 -4 -4.1 -2.8 -0.5 -4.2 -0.2 -6.2 1.3 -2.6 2 -10.8 4 -14.6 3.6 -1 -0.1 -3.7 -0.3 -5.8 -0.5z"/>
  <path d="M788.7 501.2 c-7.1 -7.3 -14.9 -16.4 -18.2 -21.3 -2.7 -4 -2.8 -4.5 -1.5 -6.3 0.7 -1 2.2 -2 3.2 -2 1 0 2.5 -1 3.3 -2.2 2 -2.9 4.8 -16.7 6.2 -29.9 0.6 -5.6 1.4 -10.6 1.7 -11 0.8 -1 3.9 15.5 7 37.5 3.9 28.7 4.9 38.6 4.1 39.4 -0.4 0.5 -2.9 -1.4 -5.7 -4.3z"/>
  <path d="M573 500.1 c0 -1.8 0.7 -2.4 2.9 -2.9 2 -0.5 3.3 -0.3 4.3 0.7 1.2 1.1 0.9 1.5 -2.4 2.9 -4.8 1.9 -4.7 2 -4.7 -0.7z"/>
  <path d="M710.6 487.2 c-3.9 -3.4 -4.8 -5.3 -9 -16.5 -7.1 -19 -7 -18.5 -6.3 -30.6 0.6 -10.1 2.9 -25.3 4.2 -27.6 0.3 -0.7 4.7 -3.3 9.9 -6 12.6 -6.6 20.4 -11.8 26.3 -17.6 2.7 -2.6 5.1 -4.7 5.2 -4.7 0.2 0 -0.3 2.4 -0.9 5.4 -1.3 5.5 -1.6 23.2 -0.5 27.2 0.5 1.6 -0.2 4.7 -2 9.7 -5.7 15.7 -9.2 33.7 -7.3 37.3 0.9 1.8 0.7 2.8 -1.4 7.1 -3.3 6.5 -12.3 20.4 -13.2 20.4 -0.5 -0.1 -2.7 -1.9 -5 -4z"/>
  <path d="M814.6 480.5 c-2.5 -0.7 -4.7 -1.4 -4.8 -1.6 -0.2 -0.2 5.4 -0.3 12.4 -0.4 9.9 -0.1 14.4 -0.6 20.1 -2.1 4.1 -1 7.4 -1.9 7.5 -1.8 0.2 0.2 0.6 1.2 0.8 2.3 0.6 1.8 0.2 2.1 -2.9 3.2 -5.5 1.7 -27.7 2 -33.1 0.4z"/>
  <path d="M698.2 477.9 c-3.2 -3 -3.3 -3.5 -3.3 -8.9 0 -3.1 0.2 -5.7 0.4 -5.7 0.6 0 7.3 16.8 6.8 17.3 -0.2 0.3 -2 -0.9 -3.8 -2.7z"/>
  <path d="M766.3 467.4 c-2.3 -0.7 -10.7 -2.3 -18.6 -3.7 -7.8 -1.5 -14.6 -3 -15 -3.3 -2.2 -2 7.3 -36.1 14 -50 2.2 -4.8 3.9 -7.1 5.6 -7.7 1.8 -0.7 2.1 -1.2 1.6 -2.5 -3.3 -6.6 3.5 -29.4 7.9 -26.7 0.6 0.3 3.4 4.3 6.5 8.8 8.1 12.3 15.1 33 12.4 37.2 -0.7 1 -1.1 4.8 -1.1 8.6 0 8.3 -3.2 30.1 -5.2 36.3 -1.6 4.8 -1.6 4.8 -8 3.1z"/>
  <path d="M828.7 429.2 c-3 -1.9 -5.4 -3.6 -5.4 -4.1 0 -2 4.4 -1.7 7.7 0.6 2 1.2 4.6 2.7 5.9 3.3 2 0.7 2.2 1.1 1.3 2.2 -1.8 2 -3.6 1.7 -9.5 -2z"/>
  <path d="M812.5 421.3 c-4.4 -1.2 -9.6 -7.1 -16.2 -17.8 -9.4 -15.5 -14.6 -20.8 -22.4 -22.8 -4.3 -1.1 -5.6 -3.6 -3 -5.8 2.4 -2 12.7 -3.3 17.2 -2.4 10.6 2.3 19.5 11.2 27.7 27.5 3.1 6.1 5.6 11.7 5.6 12.4 0 0.7 -1.3 2.1 -2.9 3.3 -2.1 1.6 -2.8 2.7 -2.4 4.4 0.2 1.2 0.1 2.2 -0.2 2.1 -0.3 0 -1.9 -0.5 -3.4 -0.9z"/>
  <path d="M820.7 419.9 c-0.6 -1.5 1 -3.2 3.3 -3.2 1.8 0 1.3 2.6 -0.7 3.7 -1.5 0.8 -2 0.7 -2.5 -0.6z"/>
  <path d="M741.4 408.2 c0 -3.6 1.3 -6.1 2.2 -4.6 0.8 1.3 -0.2 6.4 -1.4 7.1 -0.5 0.4 -0.8 -0.8 -0.8 -2.5z"/>
  <path d="M427.5 408.3 c-8.7 -2.1 -19.2 -9.9 -19.2 -14 0 -3.1 2 -3.6 5 -1.4 8.9 6.7 14 7.2 34.5 3.4 25.9 -4.7 28.2 -5.8 32.1 -15.4 3.1 -7.6 7.2 -6.7 4.2 1 -2.8 7.3 -16.8 18.4 -31.2 24.6 -5.8 2.4 -19 3.4 -25.5 1.8z"/>
  <path d="M701.4 405.5 c0 -1.1 1.1 -2.5 2.9 -3.4 9 -4.9 25.7 -16.7 32.2 -22.9 4.2 -3.9 7.8 -7.1 8.1 -7.1 1.8 0 -3.9 7.8 -9.9 13.6 -8.2 8 -22.5 17.7 -31.1 20.8 -1.9 0.7 -2.2 0.7 -2.2 -1z"/>
  <path d="M703.8 395.6 c0.4 -2 0.7 -5.8 0.7 -8.5 0.1 -3.7 0.5 -5.2 1.8 -5.9 1.4 -0.8 2.3 -3.6 1.2 -3.6 -0.3 0 -3.9 2.1 -8.1 4.7 -7.8 4.7 -17.5 8.4 -22.3 8.4 -5.1 0 -11.9 -2 -15.5 -4.7 -6 -4.3 -12.9 -14.4 -15.2 -21.9 -2.1 -7.3 -4 -9.4 -9.9 -10.8 -2.2 -0.6 -4.3 -1.5 -4.6 -1.9 -0.3 -0.5 0.2 -2.9 1 -5.4 3.9 -11.9 3.5 -19.3 -1.9 -30.8 -1.8 -3.8 -3.8 -9.5 -4.7 -12.6 -2 -7.7 -3.5 -24.1 -2.9 -30.2 0.8 -7.3 4.4 -16.8 7.1 -19.3 2.2 -2 2.2 -2 0.4 -2.1 -2.6 0 -9.5 4.6 -13.3 8.8 -3.9 4.5 -7.3 11.8 -8.1 17.3 -1 7.3 3.1 16.7 6.6 15.3 1.6 -0.6 1.6 -0.7 -0.4 -2.5 -6.4 -6 -4.5 -19.1 4.3 -28.7 4.6 -5.1 6 -5.5 3.6 -1.1 -2.8 5.3 -3.6 14.9 -2.6 26.8 1.2 13.3 2.7 19 7.3 28.7 4.6 10 5.1 16.2 2.1 27.5 -1.6 6.1 -1.9 8.8 -1.2 10 0.6 0.8 3.5 2.2 6.6 3.2 l5.7 1.7 2 6.4 c1.1 3.5 2 6.9 2 7.4 0 0.7 -3.7 1 -11.3 1 -6.3 0 -20.6 0.3 -31.6 0.7 l-20.3 0.6 0 -15.3 0 -15.3 4.6 -1.7 c3.2 -1.1 5.9 -3.1 8.7 -6.2 5 -5.6 6 -9.8 4 -15.8 -1.3 -3.9 -1.3 -4.2 0.9 -7.9 3.1 -5.3 3 -11.2 -0.3 -18.3 -2.4 -5.5 -2.4 -5.6 -0.9 -10.4 0.9 -2.7 1.6 -6.9 1.6 -9.2 0 -13.6 11.3 -25.8 23.8 -25.8 5 0 5.2 -0.1 4.7 -2.1 -1.6 -6.3 10.8 -22.1 23.7 -30.4 9.3 -6 16.5 -8.7 29.8 -11.3 19.3 -3.6 39.8 -1.4 54.6 6 12.6 6.3 28 21.4 26.6 26 -0.4 1.2 0 1.9 1.4 2.2 3.3 0.8 9.6 16.3 12.7 30.5 2.7 13 1.2 28.8 -4 41.2 -1.5 3.5 -5.8 11.1 -9.5 16.8 -3.7 5.7 -7.3 11.9 -8 13.9 -1.5 4.2 -1.7 9.9 -0.4 12.4 0.7 1.2 0.7 1.8 0 1.8 -1.6 0 -6 -2.5 -7.3 -4.1 -0.7 -0.8 -1.7 -1.5 -2.1 -1.5 -0.9 0 -0.7 1.7 0.7 6.4 0.7 2 0.5 2.1 -2 1.6 -6 -1.5 -13.1 -10.9 -15.5 -20.4 -1.4 -5.2 -1.4 -5.4 0.7 -7.9 5.5 -6.5 7 -12.7 4.7 -20.2 -2 -7.1 -6.2 -11.5 -11.3 -12.3 -5.2 -0.7 -8 0.1 -11.8 3.4 l-3.2 2.8 -4.6 -1.5 c-6.5 -2.2 -11.7 -5.5 -16 -10.1 -3.6 -3.9 -5 -6.5 -12.5 -22.8 -4.2 -9.3 -10.2 -15.9 -18.1 -19.7 -5.6 -2.8 -7 -3.1 -14.2 -3.1 -4.5 0 -8.5 0.3 -8.8 0.7 -0.4 0.4 -0.7 2.5 -0.7 4.8 0.1 4.5 2.7 10.1 6 13.3 3.8 3.6 12.8 6.4 12.8 4 0 -0.5 -1.8 -1.4 -3.9 -2 -5.4 -1.6 -10.4 -6.8 -11.8 -12.3 -0.6 -2.4 -0.8 -4.7 -0.6 -5.3 0.8 -1.3 10.8 -1 16.1 0.6 9.6 2.9 17.8 11.6 22.6 24.2 1.5 4.1 3.9 9.3 5.2 11.5 5.1 8.7 14 16.3 22.1 18.7 2 0.6 4.2 1.2 4.8 1.4 0.7 0.3 0.8 1.4 0.3 3.8 -0.8 3.5 -0.4 6 1 6 0.5 0 0.8 -1 0.8 -2.3 0 -6.8 6 -13.5 12.3 -13.5 4.9 0 8.5 3.5 10.5 10.6 3 10.1 -2 19.6 -10.6 20.7 -5 0.7 -4.5 2.6 0.7 2.5 3.3 -0.1 3.8 0.2 3.8 1.9 0.1 3.2 4.1 12.2 7.7 17.1 2.2 3.1 5.2 5.5 8.6 7.3 2.8 1.5 5.1 3.2 5.1 3.7 0 0.6 -4.6 5.5 -10.1 10.8 -9.1 8.8 -22.7 18.9 -31.6 23.5 l-3.2 1.6 0.8 -3.6z m-36.4 -22.6 c3.3 -3.5 -0.1 -12.5 -5.4 -14.3 -4.7 -1.8 -7.7 3.8 -5.3 10 2.1 5.7 7.4 7.8 10.7 4.3z m-6.8 -51.8 c1.2 -1 1.7 -2.8 1.7 -6.1 0 -8 -4.7 -14.6 -10.3 -14.6 -3.4 0 -3.5 -2.1 -0.3 -5.1 1.8 -1.7 3.5 -2.3 6.2 -2.3 3.3 0 4.4 0.6 8.1 4.5 2.4 2.5 5.3 6.9 6.5 9.8 1.2 2.9 2.5 5.3 3 5.3 2.6 0 -1.6 -11.1 -6.2 -16.6 -3.4 -4.1 -7 -5.8 -12 -5.8 -7.9 0 -12.4 6.5 -11.4 16.7 1 11.9 8.9 19.5 14.8 14.2z m63.9 -0.8 c1.1 -1.4 2 -3.4 2 -4.6 0 -2.6 -3.3 -7 -5.4 -7 -2.1 0 -5.8 3.7 -5.8 5.9 0 1.7 0.2 1.6 2.3 -0.7 2.5 -2.7 3.3 -2.9 4.9 -1.3 1.8 1.8 1.3 5.2 -0.7 6.5 -1 0.7 -1.9 1.7 -1.9 2.3 0 2 2.6 1.3 4.6 -1.2z m-83.6 -33 c0.7 -1.6 2.9 -4.1 4.9 -5.6 4.7 -3.3 10.1 -4.2 15.5 -2.3 5.2 1.8 5.6 1.9 5.6 0.2 0 -2.1 -7.7 -4.6 -13 -4.1 -7.4 0.7 -15.8 7.6 -15.8 13.1 0 2.5 1.5 1.9 2.8 -1.3z m72.6 0.4 c0 -0.5 -1.9 -2 -4.2 -3.3 -9.1 -5.8 -18.6 -20.4 -21.1 -32.4 -0.7 -3.4 -1.6 -5.5 -2.3 -5.5 -1 0 -1.1 0.8 -0.7 3.5 2.9 16.1 13.6 32.1 24.7 36.8 3.8 1.7 3.6 1.7 3.6 0.8z m52.6 -14.5 c2.5 -8.6 1 -27 -2.4 -29.1 -1.7 -1 -1.8 0 -0.4 4.7 1.8 5.9 1.8 18.1 -0.1 24.7 -2.6 9.4 -2.6 9.1 -0.5 6.7 1.1 -1.2 2.6 -4.4 3.3 -7z m-37.7 -3.4 c0 -0.5 -1.7 -1.3 -3.7 -1.9 -2 -0.6 -5.3 -2.3 -7.2 -4 -3.5 -3.2 -7.7 -10.9 -7.7 -14.3 0 -1.2 -0.4 -2.1 -0.9 -2.1 -1.7 0 -0.9 6 1.3 10.7 2.5 5.4 6.1 9 10.8 11.1 3.7 1.6 7.4 2 7.4 0.6z m9.7 -11 c0.3 -0.5 -0.8 -1.5 -2.5 -2.2 -4.7 -2.2 -8.9 -6.2 -11 -10.2 -2 -4 -4.2 -4.1 -2.6 -0.1 1.5 4.1 4.4 7.4 8.9 10.4 4.4 3 6.3 3.5 7.2 2.1z m8.7 -10.2 c-0.5 -1 -10.6 -10.4 -11.3 -10.4 -1.6 0 -0.4 2.7 2.4 5.3 4.7 4.5 9.9 7.4 8.8 5.1z"/>
  <path d="M420 393.6 c-4.8 -2.1 -21 -18.5 -29.3 -29.4 -11.3 -15 -14.2 -22 -19.4 -45.8 -1.6 -7.1 -3.5 -14.8 -4.3 -17 -2.4 -6.7 -5.1 -24.7 -5.1 -33.5 0 -11.7 0.5 -12.4 4.7 -5.9 4 6.4 9.9 11.9 15.3 14.3 7.6 3.4 11.4 1.2 6.5 -3.9 -2.3 -2.4 -2.7 -3.6 -3 -9.7 -0.2 -3.8 -0.1 -8.1 0.3 -9.5 l0.7 -2.6 1.5 2.9 c4.2 7.7 10.5 12.5 16.6 12.5 2.1 0 4.2 -0.4 4.5 -0.7 0.3 -0.5 -0.9 -2.2 -2.7 -3.9 -9.7 -9.4 -10.2 -26.8 -0.9 -36 5.8 -5.9 10 -5.2 13.7 1.9 2.7 5.3 3.3 16.2 1.3 23.2 -1.9 6.4 -1.9 6.3 0.3 6.3 3.6 0 12.5 -7.8 16.3 -14.2 2 -3.4 3.8 -6.2 4.1 -6.2 0.9 0 -0.8 10.4 -2.6 15 -1.1 2.6 -1.7 5 -1.4 5.4 1.2 1.1 9.1 -4.2 13.7 -9.1 4.7 -5.2 11.9 -18.3 11.9 -21.9 0 -1.1 0.4 -2.5 0.8 -3.3 2 -3.1 10.7 3.6 16.7 12.8 5 7.8 8.3 18.1 10.3 32.4 4.7 33 5 58.9 0.7 74.8 -3.1 11.4 -8.1 24.9 -13.3 35.8 -4.8 10.3 -4.7 10.1 -26.4 14.2 -17.5 3.3 -25.8 3.6 -31.2 1.1z m24 -20.6 c8.5 -3.2 17.4 -12.5 17.4 -18.1 0 -2 -0.4 -2.3 -3.4 -2.3 -6.4 0 -40.4 9.3 -43 11.7 -2.1 2 0.4 5.6 5.9 8.3 6 3 15.8 3.3 23.2 0.5z m-18.1 -22.4 c-0.2 -0.5 -2.1 -1.8 -4.5 -2.9 -3.1 -1.6 -4.7 -3.3 -6.2 -6.3 -2.9 -5.7 -2.7 -10.4 0.7 -17.7 3.5 -7.4 3.3 -11.8 -1 -25.6 -3.3 -10 -6 -14 -12.3 -17.3 -7.9 -4.1 -20.2 -1 -27.2 6.7 -3.9 4.4 -7 10.5 -5.8 11.7 0.3 0.4 4.9 -1.7 10.3 -4.4 l9.7 -5 9.5 0 9.4 -0.1 1.8 4.6 1.9 4.6 -2.1 -0.7 c-1.2 -0.4 -3.6 -1.1 -5.5 -1.7 -10 -2.8 -23.6 8.7 -24.8 20.7 -0.4 3.8 -0.2 4.7 0.8 4.4 0.7 -0.3 1.6 -2.2 2 -4.4 1.6 -9.6 10 -17.8 18.1 -17.8 4.7 0 10.8 2.8 12.8 6 0.8 1.2 1.7 4.2 2 6.7 0.5 3.8 0.1 5.4 -2.3 10.1 -4.4 8.6 -3.7 19.1 1.6 25 3.2 3.5 12.2 6.2 11.2 3.3z m-21.2 -33.4 c1.1 -2 1.2 -7.4 0.2 -8.9 -1.6 -2.4 -4.9 -3.3 -7.7 -2.1 -6.3 2.6 -6.2 12 0.1 14 2 0.7 6.4 -1.1 7.4 -3z m52.7 -12.6 c2.7 -2 3.5 -6.1 1.8 -9.6 -2.3 -4.6 -6.8 -5.2 -10.3 -1.6 -3.1 3.1 -3 6.5 0.4 9.9 3.1 3 5.2 3.3 8.2 1.3z m-19.7 -6.7 c3.2 -7.5 9.9 -11.8 18.6 -11.8 6.2 0 10.3 1.7 15.2 6.2 2 2 3.3 2.6 4 1.9 1.5 -1.5 -3.5 -6.7 -8.9 -9.2 -5.9 -2.8 -14.1 -3 -19.5 -0.5 -6.4 2.9 -12.6 10.4 -12.6 15.4 0 2.6 1.9 1.5 3.3 -2z m1.7 -18.9 c7.5 -2.7 17.1 -4.6 26.5 -5.2 9.3 -0.7 11.3 -1.6 8.9 -4.2 -4.5 -4.9 -20 -7.4 -29.4 -4.7 -6.9 2 -14.7 9.7 -14.7 14.5 0 1.9 2.2 1.8 8.7 -0.5z"/>
  <path d="M422.3 370 c-2.2 -1.2 -4.3 -2.6 -4.5 -3.3 -0.2 -0.7 2.3 -1.9 6.5 -3.2 7.6 -2.2 31.2 -8.3 32.5 -8.3 2.3 0 0.3 3.7 -4.5 8.4 -3.9 3.7 -6.8 5.6 -10.4 6.8 -7.1 2.2 -14.6 2 -19.6 -0.5z"/>
  <path d="M550.3 369.1 c-2 -18.4 -4.5 -51.1 -4 -51.6 1.1 -1 3.9 5.3 3.9 8.8 0.1 3.3 0.7 4.6 3.1 6.8 1.7 1.6 3 3.3 3 4 0 1.9 3.1 4.2 6.3 4.8 1.6 0.4 3.5 1.6 4.3 2.7 0.8 1.2 2.4 2.3 3.5 2.5 1.9 0.3 2.1 0.9 2.4 4.9 0.2 2.6 0.1 8.6 -0.3 13.3 l-0.7 8.6 -10.5 0 -10.6 0 -0.5 -4.8z"/>
  <path d="M763.9 370.2 c-2.2 -3 -6.5 -5.6 -10.9 -6.5 -2.3 -0.5 -2.7 -0.9 -2.8 -3.8 l-0.2 -3.3 4 0.8 c2.1 0.6 4.6 0.7 5.4 0.4 1.9 -0.7 2 -3.2 0.1 -4.9 -1.7 -1.7 -1.8 -6.3 -0.4 -10.7 0.6 -1.8 3.5 -6.8 6.5 -11.2 11.3 -17 15.5 -28.3 16.4 -44.1 0.4 -7.7 0.2 -12.2 -1 -18.1 -1.7 -8.3 -6.9 -23.2 -10 -28.9 l-1.9 -3.3 2.4 -3.5 c1.3 -2 2.4 -4.3 2.4 -5.2 0 -3.3 1.1 -4.6 4.1 -4.6 6.1 0 10.2 2 15.5 7.3 8.9 9.1 13.6 21.7 14.5 38.7 0.7 12.7 -1 23 -6.3 39.3 -2 6.4 -4 13.8 -4.3 16.6 -1.2 11.3 6.5 21.9 15.9 21.9 1.9 0 3.3 0.4 3.3 0.9 0 1.5 -6.6 8.4 -9.6 9.9 -3.1 1.7 -9.3 1.9 -12.8 0.6 -3 -1.2 -7.9 -6 -9.8 -9.6 -2.7 -5.3 -4.2 -0.5 -2.1 7.1 0.6 2 2.6 5.2 4.6 7.2 2.2 2.3 3.2 3.8 2.5 4.2 -0.7 0.4 -4.7 0.8 -9.1 1 -8.8 0.5 -11.4 -0.4 -16.1 -5.3 -2.8 -3 -4.3 -3.6 -4.3 -2 0 1.5 6.5 8.3 8.5 8.8 1.5 0.5 1.7 0.9 0.7 2 -1.6 2 -3.1 1.6 -5.3 -1.5z m27.8 -86.7 c0.8 -4.4 0.1 -11 -1.1 -11 -0.5 0 -0.8 3.6 -0.8 8.1 0 8.5 0.7 9.5 2 2.9z m7.8 -3.5 c0 -3.3 -0.4 -6 -0.9 -6.2 -0.6 -0.2 -0.9 2.3 -0.9 6.2 0 3.9 0.4 6.4 0.9 6.2 0.6 -0.2 0.9 -3 0.9 -6.2z"/>
  <path d="M753.2 370.1 c-0.9 -1 -1.5 -2.1 -1.2 -2.5 0.9 -0.8 5.4 1.6 5 2.8 -0.7 1.9 -2.1 1.8 -3.8 -0.3z"/>
  <path d="M795.3 371.1 c-1.2 -0.5 -2.4 -1.1 -2.6 -1.3 -0.6 -0.6 6.3 -7 7.4 -7 0.5 0 0.7 2 0.6 4.4 -0.3 4.8 -1.3 5.6 -5.4 3.9z"/>
  <path d="M804.7 366.6 l0 -4.6 7.7 -0.6 c4.2 -0.3 21.3 -0.7 38 -1 16.7 -0.3 45.4 -1.1 63.7 -1.9 18.3 -0.7 33.7 -1 34 -0.8 0.5 0.3 0.7 2.7 0.7 5.4 l0 5 -21.6 0.6 c-21.4 0.7 -109.7 2.4 -118.1 2.4 l-4.5 0 0 -4.6z"/>
  <path d="M952.1 367.3 c-0.2 -0.7 -0.6 -3.9 -0.7 -7.3 l-0.3 -6 -5 0.2 -5 0.3 0.6 -17 c1.3 -35.4 1.7 -71.8 0.8 -73 -0.6 -0.8 -6 -1.5 -18.4 -2.2 -9.7 -0.6 -17.7 -1 -17.8 -1.1 -0.4 -0.4 -0.7 -100.9 -0.2 -101.4 0.3 -0.3 16.4 -0.7 35.8 -1 19.3 -0.3 45.4 -0.7 57.9 -1.1 l22.5 -0.5 -0.1 74.7 c-0.1 41.1 -0.5 88.4 -0.7 105 l-0.6 30.2 -17.4 0.3 -17.3 0.2 -0.7 -10 c-0.4 -5.6 -0.5 -15.3 -0.1 -21.6 0.4 -8.1 0.3 -11.9 -0.5 -12.7 -1.2 -1.5 -12.6 -1.9 -14.6 -0.5 -0.9 0.6 -1.4 6.1 -1.9 23 l-0.7 22.2 -7.7 0.3 c-5.6 0.2 -7.8 -0.1 -8.1 -0.9z m32.8 -74.7 c0.7 -0.3 1.1 -2.5 1.1 -6.9 0 -7.6 -0.7 -8.1 -8.9 -7.1 l-5 0.6 0 6.8 c0 3.7 0.2 7 0.5 7.3 0.5 0.5 10.3 -0.1 12.4 -0.7z m4.7 -52 c0.7 -0.8 1 -3.7 0.8 -7.3 l-0.3 -5.9 -6.4 -0.8 c-4.2 -0.6 -6.9 -0.6 -7.9 0.1 -1.7 1 -2.4 7.2 -1.5 12.1 l0.6 3.1 6.8 0 c4.7 0 7.2 -0.4 7.9 -1.3z m-45 -7.1 l0 -7 -7.6 0 c-4.2 0 -8 0.5 -8.6 0.9 -0.5 0.6 -0.7 3.6 -0.4 7.3 l0.6 6.3 8 -0.3 8 -0.3 0 -7z m-1.1 -41.8 c0.4 -0.4 0.7 -3.4 0.5 -6.7 l-0.3 -6 -7.6 -0.3 -7.7 -0.3 0 7.6 0 7.6 7.2 -0.7 c3.9 -0.3 7.5 -0.9 8 -1.4z m46.3 -3 c1 -1.7 1 -9.3 0 -11 -0.9 -1.5 -9 -2.5 -12.6 -1.6 -2.3 0.6 -2.4 0.8 -2.4 7.7 l0 7.1 7.1 -0.5 c4.7 -0.3 7.3 -0.9 7.9 -1.8z"/>
  <path d="M975.8 286.1 l0 -4.3 3.8 0 3.7 0 -0.3 4 c-0.3 3.8 -0.4 3.9 -3.7 4.2 l-3.5 0.3 0 -4.2z"/>
  <path d="M977.7 234.5 l0 -4.7 4.7 0 4.7 0 -0.3 4.5 -0.3 4.4 -4.4 0.3 -4.5 0.3 0 -4.7z"/>
  <path d="M931.2 234 l0 -4.2 5.1 0 5.1 0 0 4.2 0 4.2 -5.1 0 -5.1 0 0 -4.2z"/>
  <path d="M931.3 185.9 l0.3 -4 4.7 0 4.7 0 0.3 4 0.3 3.9 -5.2 0 -5.2 0 0.3 -3.9z"/>
  <path d="M978.6 183.8 l0 -4.3 4.2 0 4.2 0 0 3.7 c0 3.3 -0.3 3.7 -2 3.7 -1.2 0 -3.1 0.3 -4.2 0.6 -2 0.6 -2.1 0.3 -2.1 -3.7z"/>
  <path d="M971.4 352.8 c0.4 -8.1 0.7 -17.5 0.7 -20.9 l0 -6.3 5.1 0 5.1 0 0 20.9 0 20.9 -5.8 0 -5.7 0 0.6 -14.6z"/>
  <path d="M787.8 360.1 c-1.5 -1.5 -2.7 -3.4 -2.7 -4.4 0 -1.2 0.5 -1 1.9 0.8 1 1.3 3.3 3 5.1 3.5 3.8 1.4 4.3 2.7 0.8 2.7 -1.4 0 -3.5 -1.1 -5.1 -2.7z"/>
  <path d="M814 357.8 c0 -0.2 1.7 -2.9 3.7 -6 2 -3.1 4 -6.9 4.3 -8.6 0.7 -2.8 0.6 -3 -1.3 -2 -1 0.6 -2.1 1 -2.5 1 -0.3 0 -0.4 -8.9 -0.3 -19.7 l0.3 -19.8 14.2 -0.8 c7.8 -0.4 14.4 -0.7 14.6 -0.4 0.2 0.2 0.7 12.7 1 27.8 l0.7 27.5 -12 0.6 c-13.5 0.7 -22.7 0.8 -22.7 0.3z"/>
  <path d="M851.2 337 c0 -11.2 -0.3 -23.7 -0.7 -27.9 l-0.6 -7.7 15.5 0 15.5 0 -0.3 27.3 -0.3 27.3 -6 0.7 c-3.3 0.3 -10 0.6 -14.6 0.6 l-8.7 0 0 -20.2z"/>
  <path d="M883.7 328.8 l0 -27.4 11 0 c6 0 12.5 0.3 14.4 0.6 l3.4 0.7 0 26.2 0 26.2 -7.6 0.6 c-4.3 0.4 -10.8 0.7 -14.4 0.7 l-6.8 0 0 -27.4z"/>
  <path d="M915.3 327.5 l0 -28 -2.5 -0.7 c-1.5 -0.4 -23.1 -0.7 -48.2 -0.7 -34.5 0.1 -46 0.4 -47.6 1.2 -2.1 1.2 -2.1 1.3 -2.1 23.1 l0 22 -2.5 -0.7 c-7.8 -1.9 -11.9 -7.7 -11.8 -16.7 0 -3.9 1.1 -9 3.8 -17.2 4.7 -14.3 6.8 -24.8 6.8 -34.9 l0 -7.7 24.5 -0.6 c59.8 -1.4 85.8 -1.7 94.5 -1 l9.4 0.7 -0.1 25.3 c-0.1 28 -1 61.6 -1.8 62.2 -0.3 0.2 -5.4 0.7 -11.3 1 l-11 0.7 0 -27.9z"/>
  <path d="M532.5 346.8 c-3 -2.1 -6 -4.6 -6.6 -5.4 -1.7 -2.1 -1.4 -5.5 0.7 -8.9 2 -3.4 1.9 -5.6 -1.1 -9.9 -2 -2.9 -2.2 -8.7 -0.4 -11.9 1.9 -3.2 1.7 -5.6 -0.5 -10.3 -1 -2.2 -1.9 -5.3 -1.9 -6.8 0 -4.7 3.4 -10.3 8.9 -14.5 l5.1 -3.8 -0.7 -4.5 c-1.8 -13.4 12 -16.9 16.8 -4.3 l1.6 4.1 -2.7 3.5 c-5 6.4 -6.1 14 -3 21.4 1.1 2.8 1 3.4 -1 7.4 -1.9 3.7 -2.3 4.1 -2.6 2.4 -0.4 -2.5 -3 -2.9 -3 -0.5 0 3.1 -1.2 3.1 -4.4 0 -5.5 -5.3 -5.3 -0.9 0.2 5.2 3.2 3.4 3.3 3.8 3.3 10.9 0 4.1 -0.4 7.3 -0.9 7.3 -0.5 0 -1.8 -1.2 -2.9 -2.8 -2.4 -3.2 -4.2 -4.1 -4.9 -2.3 -0.2 0.7 1.6 3.6 4.2 6.5 l4.6 5.2 0 7.9 c0 9.5 -0.7 9.8 -8.9 3.9z"/>
  <path d="M568.3 341.8 c-1.4 -1.3 -3.9 -2.7 -5.6 -3.1 -2.5 -0.5 -3.3 -1.1 -3.4 -3.2 -0.2 -1.7 -1.2 -3 -2.9 -3.9 -3.3 -1.6 -3.9 -3.1 -3.2 -7.3 0.4 -2.3 -0.1 -3.9 -2 -6.6 -3.1 -4.6 -3.1 -8.3 -0.1 -14.1 2.8 -5.5 2.8 -5.6 0.5 -10.1 -1 -2 -1.9 -4.8 -1.9 -6.2 0 -3.6 2.4 -9 5.3 -12.1 2 -2.1 2.3 -3.1 1.9 -6.4 -0.8 -6.5 2.9 -13.3 8.7 -15.7 2.1 -0.9 2.7 -1.8 2.7 -4.1 0 -10.6 17.3 -13.6 23.2 -3.9 2.5 4.2 3 7 2 12.7 -0.7 4.5 -0.6 5.3 1.2 7.8 2.7 3.7 3.5 11 2 16.3 -1.8 5.7 -1.7 7.1 1 13.5 2.9 7.2 2.9 11.1 -0.1 16.3 -2.3 4.1 -2.3 4.2 -0.8 9.1 1.6 4.8 1.6 5 -0.7 9.3 -2.2 4.3 -7.3 8.6 -11.6 9.9 l-2.1 0.7 0 -12.5 c0 -6.9 -0.3 -15.6 -0.6 -19.4 l-0.7 -7 3.1 -2.7 c3.5 -3.2 4.9 -5.6 4.1 -7 -0.4 -0.7 -1.6 0 -3.3 1.6 -1.5 1.4 -2.9 2.3 -3.2 2 -0.3 -0.3 -0.7 -5.8 -1.1 -12.3 -0.6 -11.9 -1.8 -16.1 -4 -14 -0.7 0.7 -1.5 9.1 -2.1 21.4 l-1.1 20.3 -3.1 -3.2 c-1.7 -1.8 -3.7 -4.4 -4.7 -5.8 -1.9 -3.2 -3 -3.3 -3 -0.5 0 2 6.7 10.9 10 13.3 1.2 0.8 1.3 3.1 0.8 14.4 -0.4 7.3 -0.7 13.7 -0.7 14.1 0 1.4 -2.5 0.6 -4.7 -1.8z"/>
  <path d="M363.6 333.7 c-5.1 -3.4 -8.4 -8.9 -8.9 -15.2 -0.4 -4.7 -0.2 -5.9 1.6 -8 2.1 -2.8 7.3 -3.6 9.1 -1.4 0.6 0.6 2 6 3.3 11.8 1.4 5.9 2.7 11.6 3 12.8 0.6 1.8 0.3 2 -2.1 2 -1.6 0 -4.2 -0.9 -6 -2.1z"/>
  <path d="M497.3 309.6 c-0.3 -1.2 -0.7 -7.3 -1 -13.6 -0.5 -9.5 -0.3 -12 1 -14.6 1.7 -3.6 2.9 -3.9 6.9 -1.9 4.4 2.3 5.6 4.8 5.6 12.1 0 7.5 -2.8 14.7 -7 18 -3.3 2.6 -4.9 2.6 -5.5 0z"/>
  <path d="M597.5 264.9 c-0.4 -0.7 -0.7 -5 -0.7 -9.7 0 -5.6 -0.4 -8.9 -1.2 -10 -1 -1.1 -1.2 -9.3 -1.1 -39.3 0 -20.8 0.2 -38 0.3 -38.2 0.2 -0.1 14.3 -0.7 31.4 -1.2 17.1 -0.6 38 -1.4 46.4 -2 8.5 -0.5 26 -1.2 39.1 -1.8 13 -0.5 34 -1.4 46.5 -1.9 12.6 -0.6 32 -1.3 43.3 -1.6 l20.6 -0.5 0.6 21.7 c0.4 12 0.7 35.4 0.7 52.1 l0 30.4 -5.8 0.4 c-6.3 0.5 -7.3 0 -7.3 -4.1 0 -3.4 -4.9 -17.7 -8 -22.8 -5.9 -10 -14.4 -16.1 -22.8 -16.1 -3.9 0 -4.5 -0.3 -4.9 -2.4 -0.9 -3.4 -6 -5.4 -12.2 -4.6 -3.7 0.5 -5.1 0.3 -6 -0.8 -0.7 -0.8 -2 -1.5 -2.9 -1.5 -2.1 0 -2.1 -0.4 -0.1 -6.6 2.7 -7.8 3.3 -12.8 1.6 -13.5 -1.8 -0.7 -6.8 3.1 -13.6 10.1 l-5.1 5.4 -4.2 -1.9 c-14.8 -6.6 -46.8 -6 -65.8 1 -8.7 3.3 -18.8 9.7 -26.6 16.9 -2.5 2.3 -4.7 4.3 -4.9 4.3 -0.2 0 -0.3 -1 -0.3 -2.3 0 -2.4 -0.1 -2.4 -6.7 -2.1 l-6.8 0.3 -0.3 4.6 c-0.5 7.3 0.3 9.1 3.8 8.9 5.2 -0.3 5.3 -0.3 3.2 4.7 -1.8 4.3 -2.1 4.7 -5.2 4.7 -7.2 0 -17.9 8.2 -21.1 16.3 -1.9 4.4 -2.5 4.9 -3.8 3.1z m37.7 -64.6 l3 -0.5 0 -7.3 c0 -6.4 -0.2 -7.4 -1.6 -7.5 -0.9 0 -2.9 -0.2 -4.5 -0.4 -1.5 -0.2 -4.6 -0.1 -6.7 0.2 l-4 0.5 0 7.6 c0 4.3 0.2 7.9 0.5 8.2 0.6 0.5 8 0.1 13.3 -0.7z m47 -6.6 c0.9 -0.6 0.8 -10.7 -0.2 -12.2 -0.5 -0.8 -2.7 -1.1 -7.6 -0.9 l-6.9 0.3 -0.3 7.3 -0.3 7.3 7.3 -0.7 c4 -0.4 7.5 -0.8 8 -1.1z m52.2 0.7 c2.1 -0.7 2.4 -1.4 2.4 -5.5 0 -5.7 -1.9 -8 -5.9 -7.2 -1.5 0.3 -4.2 0.6 -5.9 0.6 l-3.2 0 0 6.5 0 6.5 5 0 c2.8 0 6.1 -0.4 7.4 -0.9z m56.7 -1.9 c2.2 -0.8 2.4 -1.3 2.4 -7.3 0 -3.5 -0.4 -6.7 -0.7 -7 -0.4 -0.3 -4 -0.2 -7.9 0.1 l-7.2 0.6 0 7.3 0 7.3 5.5 0 c3.1 0 6.6 -0.4 7.9 -0.9z"/>
  <path d="M624.8 197.6 c-0.4 -0.4 -0.7 -2.7 -0.7 -5.2 l0 -4.6 5.4 0.3 5.3 0.3 0.3 4.5 0.3 4.4 -3.1 0 c-1.7 0 -3.9 0.3 -4.9 0.6 -1 0.3 -2.2 0.2 -2.6 -0.2z"/>
  <path d="M669.8 187.9 l0 -3.7 4.7 0 4.7 0 0 3.7 0 3.7 -4.7 0 -4.7 0 0 -3.7z"/>
  <path d="M724.7 188.8 l0 -3.7 4.2 0 c4.1 0 4.2 0 4.2 3.2 0 3.3 -1.4 4.3 -6.2 4.3 -1.9 0 -2.1 -0.5 -2.1 -3.7z"/>
  <path d="M780.5 186.1 l0 -4.7 5.1 0 5.1 0 0 4.2 c0 3.8 -0.2 4.2 -2.2 4.2 -1.2 0 -3.5 0.3 -5.1 0.6 l-2.9 0.7 0 -4.8z"/>
  <path d="M826.4 213.8 c-0.8 -49.9 -0.9 -60.3 -0.6 -85.6 l0.2 -13.8 4.9 0 4.8 0 0.2 74.4 0.2 74.4 -4.5 0 -4.6 0 -0.7 -49.5z"/>
  <path d="M839.7 245.6 c-0.8 -22.4 -0.8 -118.2 0 -140.7 l0.6 -17.4 17.3 0 c9.5 0 20.7 0.3 25 0.7 l7.6 0.6 0 51.7 c-0.1 46.9 -1.3 120.7 -2 121.5 -0.2 0.2 -11 0.5 -24.1 0.7 l-23.8 0.3 -0.6 -17.2z m32.8 1 c1 -2 1.2 -13 0.2 -14.6 -0.4 -0.7 -3 -1.2 -5.8 -1.4 l-5.1 -0.4 -0.3 6 c-0.2 3.3 0 7.4 0.3 9.1 0.6 2.9 0.7 3 5.1 3 3.6 0 4.8 -0.4 5.6 -1.8z m-1.1 -49.6 l0.3 -9.1 -5.7 0 -5.6 0 0 8.7 c0 4.8 0.3 9 0.7 9.4 0.4 0.4 2.8 0.6 5.4 0.4 l4.7 -0.3 0.3 -9z m3.9 -64.9 c10 -5.1 12.6 -18.6 4.9 -27.1 -6 -6.7 -15.9 -7.3 -22.6 -1.2 -9 8.2 -8.4 22.4 1.3 28.4 3.9 2.4 11.6 2.3 16.4 -0.1z"/>
  <path d="M865.8 245 c-0.4 -0.4 -0.7 -3.2 -0.7 -6.1 0 -5.2 0.1 -5.4 2.3 -5.4 2.3 0 2.4 0.1 2.1 5.8 -0.2 4.4 -0.7 6 -1.7 6.1 -0.8 0.1 -1.8 0 -2.1 -0.4z"/>
  <path d="M863.4 197 c0.3 -5.6 0.4 -5.9 2.6 -5.9 2.2 0 2.3 0.3 2.6 5.9 l0.3 5.8 -2.9 0 -2.9 0 0.3 -5.8z"/>
  <path d="M862.3 130.1 c-9.2 -3.8 -10.7 -15.5 -3 -23.3 4.7 -4.5 9.1 -5.4 14.6 -2.7 12.6 6.1 8.8 25.4 -5.2 26.6 -2.2 0.2 -5.1 -0.1 -6.4 -0.7z m6.7 -6.1 c0 -2.5 0 -5.6 -0.1 -7 -0.1 -1.3 0.5 -4 1.3 -6 0.9 -2.4 1.1 -3.8 0.5 -4.5 -3.3 -3.3 -6.5 13 -4.2 20.7 0.9 2.7 2.3 0.7 2.5 -3.3z"/>
  <path d="M892.7 261.6 c-0.3 -0.5 -0.1 -22.8 0.4 -49.6 0.5 -26.8 0.9 -59.5 0.9 -72.7 l0 -24 4.1 0 4.1 0 0.4 10.5 c0.1 5.7 0.1 38.6 -0.2 73.1 l-0.5 62.7 -4.4 0.4 c-2.3 0.2 -4.6 0 -4.8 -0.5z"/>
  <path d="M624.2 229.4 c0 -3.3 0.1 -3.3 3.8 -3.3 3.6 0 3.7 0.1 3.4 3.1 -0.3 2.7 -0.6 3 -3.7 3.3 -3.4 0.3 -3.5 0.3 -3.5 -3z"/>
 </g>
</svg>