<svg version="1.0" xmlns="http://www.w3.org/2000/svg" width="1539" height="1539" viewBox="0 0 1539 1539">
  <path d="M249.49 1500.98c-18.34-3.61-23.3-7.97-23.15-20.59.15-15.33 8.42-25.25 34.12-41.48 10.07-6.31 12.47-8.42 13.53-12.77 1.65-5.86.6-62.67-1.95-102.05-.9-14.43-2.86-75-4.51-134.51-1.65-59.52-3.46-116.33-4.06-126.4l-.9-18.19-4.21-1.5-4.36-1.65v-30.66c0-22.69-.9-39.23-3.76-64.33-3.61-31.56-6.01-49.45-7.51-53.65-.45-1.2-5.71 0-17.58 4.36-15.78 5.86-18.04 6.31-33.06 6.31-15.48.15-16.23 0-22.39-4.36-4.36-3.16-8.12-7.51-11.12-13.53-4.36-8.57-4.51-9.47-4.51-29.16.15-14.88 1.05-24.95 3.46-37.27 1.95-9.32 3.76-17.88 4.21-19.09.45-1.35-.75-2.25-3.76-2.86-5.71-1.2-5.86-3.61-1.8-27.35 4.21-24.05 6.76-34.12 13.38-52.6 9.17-25.7 15.78-37.12 30.96-53.2 18.79-19.99 55.31-39.68 89.27-48.24 3.46-.9 6.31-2.25 6.31-3.16 0-.75-6.91-8.72-15.33-17.58-8.42-8.87-19.24-21.04-23.9-27.05-7.97-9.92-22.09-35.47-24.2-43.43-.75-2.71-1.95-3.46-6.01-3.46-12.17-.3-24.35-7.97-31.26-19.99-8.27-14.58-9.17-30.51-2.25-40.58l3.31-4.81-6.31-12.77c-21.34-42.83-25.85-85.97-13.23-129.25 5.71-19.99 12.77-32.01 27.5-46.59 13.83-13.98 27.05-21.79 44.34-26.3 9.62-2.4 32.61-3.01 41.63-.9 5.26 1.2 5.86 1.05 9.47-3.76 2.1-2.71 8.27-8.12 13.68-12.02 24.05-17.13 62.07-21.64 93.93-11.12 42.98 14.28 75.6 60.57 84.01 119.48 1.65 12.32 1.8 47.94.15 58.01-1.05 6.31-.75 7.21 3.76 12.47 7.97 9.17 10.07 24.5 6.01 41.63-3.61 15.93-12.47 26.6-24.65 29.76-4.06 1.05-4.06 1.2-4.96 18.34-1.05 20.74-4.96 36.82-16.08 66.43-6.16 16.68-7.82 22.69-6.46 23.6 1.05.6 7.21 1.5 13.53 1.95 19.09 1.5 42.68 7.97 61.32 16.83 19.69 9.32 26.15 13.68 39.98 26.3 24.2 22.24 36.22 45.69 44.79 87.47 3.76 18.64 5.56 46.74 3.16 49.75-1.2 1.35-.75 7.06 1.95 21.34 1.95 10.82 3.76 21.64 4.06 24.05.45 4.06.9 4.51 4.81 4.06 6.61-.9 24.8 6.91 25.7 10.82 4.81 23.3 14.13 163.22 11.42 173.44-.9 3.76-3.31 4.81-25.85 12.47l-24.65 8.42-.9 7.36c-2.25 17.73-12.77 30.66-24.8 30.66-2.1 0-5.86 1.65-8.27 3.76-5.11 4.21-12.62 6.01-21.19 4.81l-6.01-.75.9 45.24c1.95 91.08 5.41 154.95 11.42 215.97 3.01 29.16 7.51 83.41 7.51 88.67 0 1.95 4.06 4.66 14.28 9.62 22.99 11.27 32.31 22.09 32.31 37.57 0 6.31-.6 7.97-5.11 12.17-10.67 9.92-43.74 16.98-72.14 15.18-21.04-1.35-55.61-7.66-68.53-12.47-7.97-2.86-13.23-6.01-18.19-10.82-7.82-7.66-10.37-14.13-10.37-27.2 0-4.81-1.05-9.47-2.25-11.12s-2.25-4.66-2.25-6.61c0-2.1-2.4-15.93-5.26-30.96-4.36-22.54-10.97-61.92-18.49-109.11-.75-5.56-1.5 20.44-2.1 77.4-.9 87.32-1.35 93.48-6.91 104-4.06 7.51-20.89 14.13-47.64 18.64-9.92 1.65-26.15 5.71-36.07 9.02s-21.79 6.91-26.3 8.12c-12.32 3.01-32.31 3.91-43.58 1.8zm39.08-7.66c8.87-1.95 47.34-14.28 44.79-14.43-.6 0-11.42 2.1-24.05 4.66-27.8 5.71-52.15 6.46-66.43 2.25-9.92-2.86-12.02-2.25-7.36 2.25 6.61 6.76 33.82 9.32 53.05 5.26zm284.05-11.42c12.62-2.1 26.75-6.76 31.56-10.52 3.16-2.55 2.25-2.4-5.11.75-16.83 7.36-26.45 8.87-57.26 9.02-15.63 0-25.55.45-21.79.9 11.57 1.5 42.38 1.35 52.6-.15m-288.86-1.2c1.35-.9.75-2.86-2.71-7.51-5.56-7.66-10.52-10.37-23.75-12.62-9.32-1.5-10.97-1.5-14.43.75-2.1 1.5-4.96 4.66-6.16 7.21-3.16 5.86-1.35 8.12 8.12 10.97 7.51 2.4 35.77 3.16 38.93 1.2m26.6-4.06c9.92-2.1 25.85-5.56 35.47-7.51 20.29-4.36 35.92-9.47 46.44-15.18 6.31-3.46 7.82-5.11 9.17-10.07.9-3.31 1.2-7.51.75-9.32l-.9-3.46-11.57 5.71c-18.79 9.17-29.16 11.12-57.11 11.27h-24.5l.9 4.96c.75 3.76.45 4.81-1.35 4.81-1.35 0-3.01-1.05-3.76-2.4-1.8-3.31-9.32-1.5-10.37 2.4-.6 2.25-1.65 2.71-4.96 2.1-6.01-1.2-6.91 1.65-2.55 8.12 2.1 3.01 4.21 7.06 4.81 9.02.45 1.8 1.05 3.31 1.35 3.31.15 0 8.42-1.65 18.19-3.76zm183.36-.6c-.9-.6-7.36-3.31-14.73-5.86-7.21-2.71-15.78-6.16-19.09-7.82-3.16-1.65-6.31-3.01-6.91-3.01-2.55 0 3.76 5.11 10.52 8.72 11.57 5.86 34.57 12.02 30.21 7.97m-117.98-4.96c10.07-3.16 21.04-8.42 21.04-10.37 0-.6-4.66.9-10.37 3.31-5.71 2.4-16.38 6.01-23.75 8.12-12.02 3.46-12.47 3.61-4.96 2.86 4.51-.6 12.62-2.25 18.04-3.91zm179.45-6.16c2.55-5.11 4.51-9.92 4.51-10.82.15-.75-1.8-2.4-4.21-3.61-3.91-1.8-4.66-1.8-6.31.6-2.55 3.46-6.61 1.95-5.56-2.1.6-2.4-.15-3.46-3.46-4.81-9.02-3.31-12.32-3.46-13.38 0-1.5 4.96-5.71 4.06-4.96-1.2l.6-4.21-24.05-.9c-13.38-.6-30.21-1.8-37.42-2.71-7.36-.9-13.53-1.35-13.98-1.05-.3.3-.15 4.06.45 8.27l.9 7.66 9.92 4.66c30.21 13.83 52.15 19.24 79.05 19.39l13.53.15 4.36-9.32zm31.11 4.81c12.93-3.46 20.89-7.66 20.89-11.27 0-5.86-7.97-15.63-12.62-15.63-4.81 0-20.59 8.12-25.55 12.93-4.21 4.36-9.92 14.13-9.92 17.28 0 2.1 11.72.75 27.2-3.31m-308.25-13.08c0-1.95-4.51-5.56-10.22-8.42-4.81-2.4-5.11-2.4-10.37.75l-5.41 3.46 9.47 1.8c5.11 1.2 9.77 2.4 10.22 2.86 1.35 1.2 6.31.9 6.31-.45m16.23-7.51 4.96-2.71-11.27-4.96c-9.77-4.21-11.57-4.66-14.28-2.86-4.06 2.55-3.76 3.31 4.36 8.57 7.97 5.26 9.62 5.41 16.23 1.95zm282.25-6.31c4.81-2.4 9.77-4.51 10.82-4.51 3.31 0 1.8-2.55-2.71-4.51-5.56-2.25-10.37-1.2-20.89 4.81l-8.12 4.66 4.36 1.95c6.16 2.71 6.76 2.55 16.53-2.4zm-206.05-6.01c5.86-1.8 14.43-5.41 19.09-7.82 15.18-8.12 13.98-1.05 13.83-78.45 0-67.03-2.25-143.23-5.26-179.75-.9-10.37-2.1-29.61-2.86-42.83-.75-13.23-2.4-31.11-3.61-39.83-1.2-8.72-2.71-21.19-3.31-27.8l-.9-12.02h-91.23l-1.65 6.61c-2.4 9.77-9.92 23.6-16.83 31.11l-6.16 6.61 1.05 32.76c.45 17.88 1.95 67.48 3.16 110.01 1.2 42.53 3.01 87.92 3.91 100.7.9 12.77 1.8 39.23 1.8 58.61l.3 35.32 6.31 3.46c10.97 6.01 22.84 7.82 48.54 7.21 18.94-.45 25.25-1.05 33.82-3.91zm182 1.5c.75-.75 4.96-3.31 9.47-5.71 7.21-4.06 7.82-4.66 5.11-6.01-2.4-1.35-5.86-.45-16.83 4.06-12.47 5.11-13.38 5.86-10.37 7.36 4.36 2.1 10.67 2.25 12.62.3m-18.04-9.77c5.11-1.2 13.23-3.91 17.88-6.01l8.72-3.76-1.05-18.49c-.45-10.07-1.95-28.41-3.16-40.88-8.27-82.66-10.97-122.64-12.77-199.14-.9-35.92-1.95-68.08-2.4-71.39-.6-5.56-1.35-6.31-8.72-10.22-8.12-4.36-21.79-16.08-24.65-21.34-1.5-2.86-1.65-2.86-16.53.75-13.08 3.01-15.63 3.16-19.84 1.5-9.02-3.76-11.87-7.21-13.83-16.68-1.65-7.97-2.25-9.02-4.96-8.42-1.65.45-10.97 2.86-20.59 5.41-9.77 2.55-22.24 4.96-27.65 5.56l-10.07 1.05 1.05 14.43c.6 7.97 1.95 21.49 3.16 30.21 1.05 8.72 2.4 22.84 3.01 31.56 3.01 49.45 9.47 106.86 18.94 169.83 6.01 39.68 21.79 128.65 23.3 130.91 3.61 6.01 70.64 9.77 90.18 5.11zM283.3 1065.14c6.91-13.98 6.91-16.98-.3-18.19-3.16-.45-7.66-.9-10.07-.9-4.21 0-4.36 0-3.31 6.91.45 3.91.9 12.17.9 18.34v11.27l3.76-3.46c2.1-1.95 6.16-8.27 9.02-13.98zm257.75 5.71c0-3.91-2.86-4.81-8.27-2.86-2.1.9-1.8 1.5 1.8 3.76 5.56 3.76 6.46 3.61 6.46-.9zm2.4-13.53c6.91-3.61 12.32-4.06 10.37-.9-1.35 2.4 4.96 4.96 9.62 3.91 2.25-.45 6.31-2.86 9.02-5.26 3.31-3.16 6.46-4.51 9.77-4.51 6.46 0 12.47-4.81 16.08-12.62 3.91-8.57 3.91-26.75-.15-36.82-2.71-7.21-2.86-8.27-.75-28.26 1.2-11.42 4.66-38.93 7.66-61.32 6.16-46.44 7.97-82.21 5.26-101.6-3.31-22.99-6.76-39.23-8.57-39.98-1.65-.6-40.73 9.02-54.11 13.23l-4.81 1.5 4.66 17.58c3.61 13.98 4.51 20.44 4.36 31.86 0 7.82-.15 47.19-.3 87.32v73.19l-3.46 6.46c-4.21 7.97-13.83 15.63-22.54 18.04-7.66 2.25-10.82 4.81-9.62 7.97.75 1.8 3.16 2.4 9.92 2.4 4.96 0 9.32.6 9.77 1.35.9 1.35-2.1 12.93-5.26 20.59-2.25 5.56-1.05 9.62 2.86 9.62 1.5 0 6.16-1.65 10.22-3.76zm-20.44-3.16c0-3.76-1.05-4.21-5.11-2.71-3.16 1.2-3.01 4.66.15 6.46 3.46 1.8 4.96.75 4.96-3.76zm-23.75-5.11c23.9-6.46 26.75-7.51 26.75-9.62 0-1.2-2.55-2.4-6.31-2.86-10.22-1.35-14.73-9.62-9.47-17.13 1.35-1.8 6.01-4.51 10.52-5.86 4.51-1.5 10.67-4.66 13.53-7.06 9.17-7.51 10.37-11.27 10.37-34.87.15-42.98-1.2-110.47-2.25-110.47s-61.17 21.04-77.1 27.05c-8.57 3.31-8.72 3.46-7.82 8.12 2.25 10.82 14.58 88.52 19.09 121.44 2.86 19.69 5.26 35.77 5.41 35.77.3 0 7.97-2.1 17.28-4.51m-25.1-1.8c-.45-2.71-2.86-18.49-5.26-35.02-4.81-32.61-11.87-78-16.23-102.95-2.55-15.63-2.71-15.78-8.12-18.79-3.01-1.65-6.01-2.4-6.61-1.95-.45.6.45 8.42 2.1 17.28 1.8 8.87 6.31 33.82 10.07 55.31 13.38 75.6 15.48 85.37 18.94 88.37 4.66 3.76 6.16 3.16 5.11-2.25m-99.19-5.71c37.57-2.86 78.9-12.02 78.9-17.58 0-1.5-1.95-13.83-4.51-27.5-2.4-13.68-7.82-43.74-12.02-66.73-4.06-23.15-7.51-44.34-7.51-47.04 0-4.81.6-5.41 8.12-8.72 4.36-1.95 29.61-10.82 55.91-19.69 26.45-8.87 49-16.53 50.35-17.28 3.01-1.5 1.95-9.47-4.06-32.46-3.61-13.98-4.36-15.48-7.51-15.48-1.95 0-3.91-.75-4.36-1.5-.45-.9-2.86-10.67-5.11-21.79-3.61-17.58-3.91-20.59-1.95-22.09 3.46-2.86 5.26 1.2 8.42 18.94 1.5 8.72 3.46 15.93 4.21 15.93 1.35 0 31.26-7.51 56.81-14.28 7.66-2.1 14.58-4.21 15.33-4.96 3.01-3.01-5.26-53.05-11.87-71.69-7.82-21.79-15.18-33.67-30.51-49-15.18-15.33-29.01-24.65-49.45-33.06-13.08-5.41-35.02-11.27-48.09-12.77-7.97-.9-9.17-.6-9.17 1.5 0 4.96-7.97 18.19-16.08 26.6-16.53 17.43-45.69 33.97-67.33 38.47-21.94 4.51-46.89-.75-65.68-13.68-8.27-5.56-11.27-9.32-17.28-21.64-.45-1.2-32.76 10.52-42.38 15.48-18.34 9.17-27.5 15.78-41.48 29.91-10.07 10.22-15.18 16.83-19.99 26-10.97 20.89-20.44 53.96-25.1 87.47-.75 5.56-.45 6.46 1.65 5.56 6.46-2.55 25.4-4.21 38.32-3.46 15.33.9 35.32 4.81 36.82 7.21.45.75 0 7.51-.9 14.73-1.05 7.36-1.65 13.98-1.35 14.73s10.07-2.86 21.64-7.97c11.57-5.26 23.15-9.92 25.7-10.37 4.06-.9 4.96-1.8 5.71-6.76 1.8-10.97 13.38-16.83 33.82-17.13 10.82-.15 11.12 0 15.33 4.96l4.36 5.26 17.28-5.56c22.09-7.06 40.43-9.32 59.22-7.21 21.64 2.4 31.71 8.87 31.71 20.44 0 3.76-5.86 11.27-8.87 11.27-.75 0-1.8 1.95-2.4 4.51-1.05 5.11-8.42 13.53-11.57 13.53-1.2 0-3.01 2.55-3.91 5.71-2.71 8.72-7.82 12.77-16.38 12.77-5.71 0-7.51-.6-10.52-4.06-3.91-4.51-3.46-4.51-17.58.6-7.21 2.55-11.72 3.16-22.99 2.86-12.77-.45-14.28-.15-16.23 2.71-2.71 3.91-18.64 9.47-26.9 9.47-4.66 0-9.62 2.25-23.6 10.52-9.77 5.86-22.84 13.08-29.01 15.93-9.77 4.66-11.27 5.86-10.67 8.72 4.51 21.49 10.07 79.35 10.67 111.97.3 17.73.75 32.46 1.05 32.61 1.2 1.2 24.8 3.76 44.64 4.96 32.01 1.8 44.94 1.8 68.38.15zm256.25-35.92c11.72-4.21 21.79-7.82 22.24-8.27 2.4-2.55-7.06-146.08-10.97-164.27l-.75-3.31-11.27 4.66-11.27 4.51v8.57c0 8.72-2.55 30.96-7.51 66.28-1.5 11.12-4.36 32.76-6.01 47.94l-3.31 27.65 3.46 11.72c1.95 6.61 3.61 11.87 3.76 11.87s9.92-3.31 21.64-7.36zM222.87 890.8c20.14-6.91 44.94-18.64 65.68-31.11 8.72-5.26 15.93-9.62 16.23-9.92.3-.15-.6-5.86-1.8-12.62-1.35-6.76-2.4-16.38-2.4-21.19 0-7.97-.3-8.87-3.01-8.87-5.41 0-20.74 5.86-50.5 19.39-23.9 10.97-29.46 12.93-30.81 11.27-2.25-2.71 0-5.56 6.16-8.12 2.55-1.05 4.51-2.25 4.51-2.86 0-.45 1.05-6.91 2.25-14.43 1.2-7.36 2.25-13.98 2.25-14.43 0-2.4-20.59-5.11-39.38-5.11-11.27 0-20.89.3-21.19.75-.45.45-2.71 9.92-4.96 21.04-3.31 16.23-4.21 24.35-4.36 40.58 0 18.94.3 20.89 3.91 27.8 2.55 4.96 5.71 8.72 9.77 10.97 8.87 5.26 26.15 4.06 47.64-3.16zm276.24-21.94c43.43-15.48 45.69-16.53 46.14-20.29.3-2.1.3-3.91 0-3.91-1.35 0-103.85 34.42-104.45 35.17-.9.9 7.21 5.26 10.22 5.41 1.35 0 22.99-7.36 48.09-16.38m-172.39-22.09c5.11-1.8 6.91-3.16 6.61-4.96-.45-1.95-2.25-2.25-10.97-1.95-5.86.3-10.67.75-10.97.9-.15.3.3 2.25 1.05 4.51 1.8 4.51 4.36 4.81 14.28 1.5m41.48-9.62c4.36-.9 11.57-3.16 15.93-5.26 8.57-4.06 14.13-4.66 18.94-2.1 2.25 1.2 2.71 2.55 2.1 5.41-.9 3.31-.6 3.61 3.01 3.16 5.41-.6 10.37-7.21 9.02-12.17-1.05-4.21-5.56-6.16-17.73-7.97-5.71-.75-7.21-1.5-7.21-3.76 0-4.51 15.33-4.06 24.95.9 9.17 4.66 10.52 4.66 13.53 0 5.26-7.97-.75-12.77-16.08-12.77-8.42 0-8.87-.15-8.87-3.76s.45-3.76 8.72-3.76c4.96 0 12.17 1.05 16.23 2.25 10.97 3.31 12.93 3.01 12.32-1.8-.6-5.56-8.42-9.32-23.45-11.27-19.84-2.55-40.73.45-67.63 9.62-17.43 5.86-17.88 6.76-15.63 25.85.9 7.36 2.25 13.98 3.01 14.73 1.2 1.2 9.47 2.86 19.24 4.06.9 0 5.26-.6 9.62-1.35zm-40.88-5.56c3.31-.75 4.06-2.86 2.55-6.76-.6-1.65-3.01-1.8-10.67-1.05-5.41.45-10.07 1.2-10.37 1.5s-.15 2.55.3 4.81c.9 4.21 1.05 4.36 7.82 3.31 3.76-.45 8.42-1.35 10.37-1.8zm299.83-2.86c3.91-1.35 7.06-2.86 7.06-3.61 0-1.5-5.41-3.01-10.82-3.01-3.61 0-4.21.6-4.21 4.51 0 2.55.15 4.51.45 4.51s3.61-1.05 7.51-2.4zM320.7 816.71c6.16-.9 6.91-1.5 6.91-4.81s-.45-3.61-4.66-2.71c-2.55.45-7.06.9-9.77.9-4.51 0-5.11.45-5.11 3.76 0 4.21 1.05 4.36 12.62 2.86zm8.42-15.48c0-2.55-2.1-2.71-9.02-.75l-6.76 1.8 7.97.15c4.21.15 7.82-.45 7.82-1.2zm-16.53-6.01c2.86-.75 7.06-1.8 9.47-2.25 2.86-.75 4.06-1.95 4.06-4.21 0-3.01-.6-3.01-9.02-2.25-10.97 1.2-19.54 4.66-19.54 7.66 0 2.71 6.61 3.16 15.03 1.05m59.52-143.08c23.6-4.21 63.42-30.06 72.14-46.74 4.36-8.57 5.11-11.42 2.86-13.23-1.65-1.35-3.01 0-6.76 7.82-6.46 12.77-12.47 18.79-21.64 21.49-15.93 4.81-68.68 14.28-78.6 14.28-12.77-.15-19.24-2.4-29.91-10.67-6.76-5.11-8.57-6.01-9.77-4.21-1.8 2.86-1.65 3.76.9 8.87 6.01 11.57 33.37 23.6 55.01 23.9 3.76.15 10.82-.6 15.78-1.5zm17.28-32.01c16.23-3.61 31.26-7.82 33.52-9.17 5.41-3.61 9.92-11.72 18.19-33.06 10.97-27.95 18.64-51.4 21.04-64.33 4.51-24.05 2.4-77.55-5.26-130.45-5.86-39.68-12.62-57.41-27.8-72.74-10.07-10.22-21.49-17.28-22.39-13.98-6.76 24.35-13.23 37.27-25.25 50.2-9.47 10.07-24.05 18.94-26.75 16.23-1.05-1.05-.6-3.61 1.5-8.57 2.86-6.46 6.01-26.6 4.06-26.6-.45 0-2.71 3.61-5.26 7.97-5.11 9.17-16.83 20.44-25.55 24.95-11.42 5.86-12.93 3.91-8.42-11.42 3.76-12.77 2.4-32.01-2.86-42.83-2.25-4.51-5.71-9.02-7.66-10.22-3.31-1.65-4.51-1.5-10.67 2.1-11.57 6.91-18.79 21.19-18.79 37.57 0 14.58 3.61 24.05 12.32 33.37 4.06 4.36 7.06 8.72 6.46 9.47-1.5 2.55-12.93 1.8-19.69-1.2-7.51-3.46-18.04-12.62-21.04-18.49-5.11-9.77-6.91 3.16-2.86 19.09 1.35 5.11 4.51 11.57 7.06 14.73 4.21 5.26 4.36 6.01 2.25 8.27-2.1 1.95-3.46 2.1-10.67.45-14.88-3.31-33.97-18.49-39.68-31.56l-2.4-5.41-1.05 4.51c-1.8 8.12-1.35 30.21.9 43.74 3.16 17.88 19.54 84.92 25.1 102.8 5.41 16.68 9.62 25.4 19.24 39.83 14.43 21.34 56.21 64.48 67.78 69.89 9.77 4.66 27.95 3.31 64.63-5.11zM222.11 488.17c-3.31-13.53-6.61-25.4-7.51-26.3-4.51-5.56-17.58 2.55-17.88 11.12-1.2 20.89 11.57 39.08 27.35 39.38l3.91.15-5.86-24.35zm258.95-24.2c15.18-9.92 19.69-45.39 7.06-55.91-5.56-4.81-10.22-4.81-14.58-.15-3.46 3.76-3.46 3.91-2.4 30.51.6 14.73 1.35 27.2 1.8 27.95 1.05 1.65 2.71 1.2 8.12-2.4"/>
  <path d="M338.01 589.15c-15.33-1.95-29.16-11.12-28.1-18.64.6-3.91 10.52-7.97 36.67-15.18 23.3-6.46 37.87-9.47 48.69-10.07 8.12-.45 8.27-.3 8.72 3.76.6 5.11-6.46 16.68-14.58 24.05-14.58 13.23-31.86 18.49-51.4 16.08m29.61-10.67c6.61-2.4 11.27-5.71 18.34-12.77 9.17-9.17 12.17-15.18 6.76-13.53-1.5.3-5.71 1.05-9.47 1.65-17.43 2.55-63.27 15.63-64.18 18.34-.45 1.05 1.2 3.01 3.31 4.36 10.97 7.21 29.16 7.97 45.24 1.95m-47.8-35.92c-10.52-5.56-17.73-19.24-17.73-33.67 0-10.52 2.1-16.83 7.66-23.9l4.81-6.01-2.4-11.27c-3.31-14.88-5.41-17.73-14.88-20.59-9.62-2.86-12.32-2.86-21.79 0-12.93 3.91-26 20.14-26 32.31 0 5.11-3.91 7.82-6.16 4.36-3.46-5.56 4.81-25.4 14.13-33.97 9.62-8.72 17.58-11.42 30.96-10.67 6.31.45 12.62 1.2 14.13 1.95 2.55 1.05 2.55.9.15-5.41-4.21-10.82-4.06-10.82-20.14-10.07-16.38.9-29.61 4.81-42.38 12.62-14.73 9.02-19.69 5.86-12.47-7.97 8.27-15.93 23.75-24.8 43.43-24.95 19.54 0 28.86 5.41 35.92 21.19 4.51 10.07 10.82 31.26 13.38 44.79 1.65 9.17 1.5 9.92-1.5 13.83-7.36 9.02-8.42 11.57-9.02 19.84-1.2 15.78 5.56 28.56 16.68 31.86 7.21 2.1 9.17 4.06 6.76 6.76-2.25 2.71-7.06 2.25-13.53-1.05z"/>
  <path d="M275.79 482.59c-12.02-4.96-11.12-23.45 1.35-27.65 9.02-3.01 18.94 3.91 18.94 13.08 0 9.77-11.72 18.04-20.29 14.58zm101.9-28.4c-10.97-8.57-5.56-25.85 8.12-25.85 7.06 0 10.82 2.4 13.23 7.97 4.21 10.07-2.25 20.59-12.32 20.59-3.16 0-7.21-1.2-9.02-2.71z"/>
  <path d="M349.43 446.37c-1.35-2.1 3.31-11.87 9.02-18.94 10.37-12.62 30.66-18.49 47.49-13.68 15.78 4.66 29.01 16.08 24.2 20.89-1.35 1.35-3.16.45-7.51-3.76-19.39-18.94-53.8-13.83-65.83 9.62-3.61 7.21-5.56 8.87-7.36 5.86zm-7.81-41.48c1.8-10.52 13.68-21.79 29.46-27.8 7.21-2.71 10.82-3.01 24.2-2.55 15.93.6 21.79 2.4 32.01 9.17 4.81 3.16 5.26 7.82 1.2 10.07-1.65.75-7.97 1.5-14.13 1.5-15.48 0-34.27 3.61-51.7 9.77-8.12 2.86-16.38 5.26-18.34 5.26-3.31 0-3.46-.45-2.71-5.41zM847.8 1480.24c-15.93-3.16-24.35-10.37-26.3-22.54-2.55-16.08 8.12-29.16 34.72-42.38 8.87-4.51 19.24-9.92 22.99-12.02l6.76-3.76-.6-13.38c-.45-14.13 1.95-23.6 6.61-25.4 1.65-.75 2.25-3.16 2.25-10.22 0-27.05-10.07-103.7-19.69-149.69-7.97-38.32-8.87-56.96-4.51-97.39 1.8-16.08 3.16-31.41 3.16-34.12 0-4.96-.3-5.11-6.31-5.56l-6.46-.45.3-15.63c.15-8.57 1.8-31.26 3.76-50.35 1.8-19.09 3.31-37.12 3.31-39.98-.15-2.86.9-24.05 1.95-46.89l2.1-41.63-10.67-10.07c-10.97-10.37-27.8-31.56-35.62-44.79-3.46-6.01-5.56-7.82-10.97-9.77-8.87-3.16-18.34-12.77-21.79-22.09-3.76-9.77-4.51-10.67-14.43-15.63-10.37-5.26-19.39-13.53-19.39-17.73 0-3.46 3.76-7.82 6.61-7.82 1.05 0 5.26 1.05 9.17 2.25l7.21 2.1-7.66-7.82c-9.02-9.17-11.57-14.58-8.72-18.34 1.95-2.71 8.72-2.71 15.03 0 2.55 1.2 2.55.9.3-3.46-4.06-7.97-2.55-16.83 3.01-16.83 1.05 0 3.91 1.8 6.46 3.91 4.36 3.61 4.66 3.76 4.66.9 0-5.71 1.65-7.82 6.46-7.82 3.76 0 6.61 2.1 15.33 10.97 5.86 5.86 12.47 13.23 14.58 16.08l3.91 5.26 2.4-5.56c1.2-3.01 4.66-7.36 7.36-9.77 4.66-3.76 5.26-5.26 6.16-13.98 1.2-10.97 10.52-52.6 13.98-62.22 2.71-7.51 5.11-22.84 3.91-25.85-.6-1.5-3.01-.9-10.82 3.16-15.03 7.51-27.05 10.22-42.23 9.47-18.49-.9-30.21-7.51-42.38-23.45-7.21-9.62-18.19-30.06-20.89-39.08-1.5-5.26-2.4-6.16-7.21-7.06-19.99-3.61-21.19-5.11-15.93-21.34 2.1-6.46 4.21-16.83 4.66-22.99.75-10.22.3-12.62-4.51-25.55-12.32-33.97-14.28-40.73-16.83-55.46-2.86-17.43-2.25-37.12 1.65-51.25 1.2-4.51 1.95-8.42 1.65-8.57-1.2-1.35-10.67 11.42-14.13 19.09-5.26 11.27-5.56 26.45-.6 35.77 3.01 5.56 3.16 6.46 1.05 7.21-6.31 2.55-11.87-10.97-10.97-26.75 1.05-19.24 11.57-36.82 28.26-47.19 4.96-3.01 8.57-6.01 8.27-6.76-.45-.6-3.16-1.95-6.01-2.86-4.21-1.35-6.91-1.2-13.38.6-18.04 5.26-32.31 25.55-35.62 50.5-3.46 26.6-3.46 25.7.9 36.07 5.56 12.93 5.56 22.84.3 32.31-3.91 6.76-3.91 7.21-1.8 15.18 1.5 5.71 1.8 10.37.9 15.03-2.55 13.23-14.43 25.55-27.8 29.01l-6.61 1.65.15 25.85c.3 25.1.15 26-2.71 26-3.01 0-3.01-1.35-3.91-75.15-.45-41.33-1.05-78.45-1.2-82.66-.3-6.76-.6-7.06-1.65-3.16-.75 2.4-2.1 35.47-2.86 73.64-.9 38.02-2.1 73.49-2.55 78.75-.9 8.12-1.35 9.32-4.06 9.32-2.86 0-3.01-.6-1.95-22.54 1.05-21.34.9-22.54-1.8-22.54-1.5 0-5.86-1.95-9.77-4.51-3.91-2.4-8.42-4.51-9.77-4.51-3.91 0-9.32-4.36-9.32-7.36 0-1.5-1.65-4.21-3.61-6.01-5.41-4.96-8.42-12.32-8.42-19.99 0-4.81-.9-7.51-3.01-9.47-3.76-3.46-3.76-6.16-.15 38.47 5.56 67.03 5.41 61.47 1.8 61.47-1.95 0-3.31-1.2-3.76-3.31-.75-4.21-5.41-63.72-5.71-74.09-.15-6.76-.3-6.61-1.2 3.01-.6 5.86-.75 15.03-.3 20.44s.15 19.69-.45 31.86c-.9 20.29-1.35 22.09-3.91 22.09-2.71 0-2.86-1.35-2.86-18.64v-18.49l-3.61.6c-4.21.9-11.42-2.55-20.29-9.77-12.32-10.07-14.58-17.43-9.02-30.36l3.16-7.21-4.21-6.31c-5.26-7.97-5.86-19.99-1.5-29.76 2.86-6.31 2.86-6.76.3-13.98-6.76-18.64-.6-39.08 14.88-49.75 4.96-3.16 5.26-4.06 5.26-11.72.15-15.48 7.82-26 20.29-27.8 7.06-1.2 10.97.3 17.88 6.61 2.71 2.55 4.51 3.31 4.96 2.1 1.95-5.26 8.12-12.17 13.53-15.18 5.26-2.86 6.31-4.36 7.21-9.32 2.25-13.38 13.53-22.54 27.8-22.54 21.79.15 36.52 17.58 33.82 40.58-.9 8.27.6 15.03 3.46 15.03.6 0 3.01-3.76 5.26-8.27 2.1-4.51 6.46-10.82 9.47-14.13 7.21-8.12 21.49-15.18 30.66-15.18h6.91l2.55-7.97c6.91-21.94 33.52-48.24 63.42-62.82 37.12-17.88 91.68-21.49 134.51-8.87l14.13 4.21 2.25-3.16c6.91-10.37 25.7-25.1 32.01-25.1 4.06 0 4.21.3 4.21 7.21 0 3.91-1.35 12.47-2.86 19.09-1.65 6.61-2.71 12.32-2.4 12.62.3.3 6.91.6 14.58.9 16.53.45 22.99 3.01 26 10.37 1.95 4.66 2.71 4.96 11.12 5.86 18.04 1.95 32.76 12.02 43.58 30.06 12.32 20.89 17.43 41.93 17.28 71.69-.15 23.15-2.25 35.77-11.12 63.87-9.77 31.56-10.82 45.99-4.06 58.31 6.16 10.97 21.04 15.63 30.36 9.47 6.16-4.06 7.36-1.2 3.61 8.72-7.06 18.19-22.39 29.46-40.43 29.46-8.72 0-11.12-.6-18.49-5.11-7.36-4.51-8.12-4.66-6.16-1.65 2.1 3.31 10.52 7.66 16.38 8.57 5.11.75 4.66 6.61-.6 9.47-2.55 1.2-4.66 2.55-4.66 2.86 0 .3 3.61 2.25 7.97 4.36 19.24 9.47 36.67 31.71 48.39 61.92 2.25 5.86 4.96 11.57 6.16 12.77 1.05 1.2 3.16 5.41 4.81 9.17 3.61 8.27 10.07 13.98 22.54 19.54 6.91 3.16 9.32 4.96 9.32 7.21 0 3.61-6.61 9.02-12.32 10.22-2.4.45-4.21 1.2-4.21 1.5s2.55 5.26 5.86 10.67c19.69 33.97 33.37 68.98 36.22 92.58 1.65 14.43.6 28.86-3.01 41.78-3.91 13.68-25.1 38.78-42.83 50.65-15.48 10.22-28.26 14.43-44.49 14.43h-13.08l-.75 13.53c-.3 7.36.3 21.94 1.35 32.31s2.71 32.91 3.61 50.2c1.2 26.3 1.2 32.01-.6 34.72-1.95 3.01-20.29 9.62-33.37 12.17l-4.66.9-5.56 33.21c-7.66 46.74-7.97 43.74 6.91 68.38 25.1 42.23 39.68 84.77 53.05 154.35 2.1 11.57 4.21 22.54 4.66 24.35.45 2.1 1.35 3.01 2.71 2.55 1.2-.45 3.76 1.35 5.86 4.21 4.21 5.41 12.47 25.7 13.98 34.27.6 2.86 3.31 8.57 6.01 12.77 2.86 4.06 6.46 11.72 8.27 16.98 4.66 14.13 2.86 19.24-10.22 28.56-5.41 3.91-16.98 12.47-25.85 18.94-8.72 6.61-20.14 13.83-25.25 16.23-20.74 9.77-52.15 8.87-64.02-1.8-4.36-3.91-4.81-4.96-4.66-13.08.15-13.38 7.36-24.8 30.06-48.69l9.32-9.77-3.61-12.47c-3.91-13.53-4.66-22.54-1.95-25.25 1.2-1.2-1.8-10.37-11.12-33.67-24.95-62.97-46.74-110.32-63.42-137.82-4.51-7.51-9.77-17.43-11.57-22.39l-3.46-8.72-.45 7.82c-.3 4.36.9 15.48 2.55 24.8 7.97 44.04 8.42 50.2 8.42 109.86 0 56.66 0 56.81 3.16 57.56 1.8.45 4.06 2.55 4.96 4.51 2.1 4.66 2.1 33.97.15 41.33-1.05 3.91-1.05 6.76.15 9.77 2.55 6.61 3.61 32.31 1.5 38.32-2.4 7.36-7.51 9.77-28.1 13.38-9.77 1.8-24.95 5.26-33.67 7.66-25.85 7.21-40.13 8.72-55.46 5.71zm36.97-8.12c10.22-2.25 31.56-8.87 24.5-7.51-37.57 6.46-42.08 7.06-55.61 6.31-13.23-.6-13.83-.45-8.27 1.35 8.27 2.55 27.05 2.55 39.38-.15m180.95-4.81c5.26-2.55 16.53-9.62 24.8-15.63 8.42-6.16 19.84-14.43 25.4-18.34s9.77-7.51 9.32-7.97c-.45-.45-5.11 2.55-10.37 6.61-13.68 10.82-39.38 26.75-48.39 30.21-17.88 6.61-39.83 7.36-53.05 1.65-4.96-2.25-6.46-2.4-6.46-.9 0 6.31 13.23 10.07 33.21 9.47 13.98-.45 16.98-1.05 25.55-5.11zm-200.04-5.41c0-3.16-8.12-15.03-13.08-19.24-5.71-4.81-13.23-7.97-16.08-6.91-2.86 1.2-8.42 11.87-8.42 16.38 0 5.26 1.95 7.21 9.17 9.47 8.87 2.71 28.41 3.01 28.41.3m52-6.31c23.15-4.66 40.73-9.02 41.33-10.07 1.35-2.25.45-14.73-1.95-25.55l-1.5-7.06-20.29-.45c-11.12-.3-20.59 0-20.89.6-.3.45-2.55 1.35-4.96 1.95-4.36.9-4.36.9-2.25 6.16 1.2 2.86 1.8 5.86 1.35 6.61-1.8 3.01-5.56 1.35-7.21-3.01-2.1-5.41-4.96-5.71-13.08-1.5-6.01 3.01-7.36 4.96-4.51 6.76.9.45 1.5 2.25 1.5 3.91 0 4.21-5.26 3.61-7.21-.9-2.25-4.81-2.71-4.66-11.42.75-4.66 3.01-6.61 5.11-6.01 6.46.75.9 3.01 4.36 5.26 7.51 2.4 3.16 4.96 8.12 5.86 10.97.9 2.86 2.71 5.11 3.76 5.11 1.2 0 20.14-3.76 42.23-8.27zm20.89 4.51c7.21-1.35 14.28-3.01 15.63-3.91 2.71-1.65 2.71-1.65-18.64 2.55-6.61 1.35-12.32 2.71-12.62 3.01-1.05 1.05 1.95.75 15.63-1.65m113.17-.6c3.46-.75 6.91-1.65 7.36-2.25 1.95-1.8-8.42-12.32-16.23-16.38-6.76-3.61-9.47-4.06-17.73-3.76-9.32.45-9.92.75-13.38 5.71-5.41 8.12-4.06 12.32 4.96 15.33 8.12 2.71 24.35 3.31 35.02 1.35m32.16-14.13c24.05-15.33 40.28-27.95 40.28-31.26 0-2.55-4.96-13.68-8.72-19.09-1.05-1.65-3.16-1.05-9.77 2.71-9.62 5.41-21.64 9.02-29.91 9.02-5.11 0-5.71.45-5.71 3.76 0 3.01-.75 3.76-3.46 3.76-4.66 0-8.87 4.51-7.06 7.51 2.86 4.36 1.8 6.46-2.86 5.56-3.76-.75-4.66-.3-6.01 3.16-1.65 3.91-1.2 4.66 7.66 14.13 5.26 5.41 9.77 9.92 10.22 9.92.45.15 7.36-4.06 15.33-9.17zm-221.53-16.68 7.51-5.11-3.61-1.95c-3.16-1.65-4.66-1.35-12.62 2.4-4.96 2.4-9.02 4.81-9.02 5.26 0 1.2 6.01 4.21 8.42 4.36 1.05.15 5.26-2.1 9.32-4.96m182.61-1.5 2.4-5.11-7.51-1.8c-7.51-1.8-7.66-1.8-12.77 3.16l-5.26 5.11 8.72 1.65c4.81 1.05 9.47 1.8 10.37 1.95s2.71-2.1 4.06-4.96zm-159.76-9.02 7.66-3.61-4.51-3.16c-4.21-3.01-4.81-3.16-8.72-1.05-8.72 4.81-8.87 4.96-5.86 8.27 1.65 1.8 3.01 3.16 3.31 3.16.15 0 3.76-1.65 8.12-3.61m171.18-5.26c3.61-4.96 3.61-4.96-7.36-6.91-4.36-.75-5.86-.3-8.87 2.86-2.71 2.86-3.16 4.06-1.5 4.51 1.2.3 4.21 1.35 6.61 2.1 6.91 2.4 7.82 2.1 11.12-2.55zm-151.95-3.01c1.5-.9 1.05-1.5-1.65-2.25-2.1-.45-4.96-1.35-6.61-1.8-2.1-.6-1.95-.15.9 2.25 3.91 3.46 4.51 3.61 7.36 1.8m29.46-12.32c.45-5.11.9-12.47.9-16.38v-6.91l-9.32.6c-5.26.3-9.62.9-9.92 1.05-.3.3-.9 6.91-1.35 14.73l-.9 14.43 5.86.6c14.73 1.5 13.53 2.1 14.73-8.12m21.64 5.56c1.95-1.8 2.4-5.71 2.55-18.04 0-8.57-.45-16.08-1.05-16.68-.9-.9-13.08 1.95-14.88 3.61-.6.45-1.35 8.57-1.95 18.04l-.9 17.13 6.91-.9c3.76-.3 7.97-1.8 9.32-3.16m-47.79-6.76c0-3.16.45-9.77.9-14.58l.9-8.87-7.66-2.4c-4.21-1.2-7.97-1.95-8.42-1.65-.45.45-.75 6.76-.75 14.13v13.38l6.46 2.86c3.46 1.65 6.76 3.01 7.51 3.01.6 0 1.05-2.55 1.05-5.86zm174.34 3.01c2.25-.75 3.46-2.1 3.16-3.31-5.86-22.24-8.87-30.66-10.82-30.36-1.05.3-5.71 1.2-9.92 2.25-9.17 2.1-9.32 2.71-5.11 14.88 6.31 18.04 6.16 17.88 12.93 17.73 3.31-.15 7.66-.6 9.77-1.2zm-25.55-6.16c-1.65-3.31-3.91-9.92-4.96-14.73-1.95-8.42-2.1-8.57-7.51-9.02-3.01-.3-5.56.15-5.56.9 0 1.95 6.01 20.14 7.82 23.3 1.5 2.86 6.16 5.26 10.67 5.41 2.4.15 2.4-.3-.45-5.86zm45.54-1.5c5.86-3.76 7.06-5.26 7.06-9.02 0-4.81-7.66-26-10.97-30.66-1.95-2.55-2.25-2.55-6.46 1.5-2.4 2.4-5.56 5.11-7.06 5.86-2.4 1.35-2.25 2.86 2.25 19.24 2.55 9.62 5.41 17.58 6.46 17.58.9 0 4.81-1.95 8.72-4.51zm-162.17-26c4.66-1.5 6.31-2.86 7.21-6.31.75-2.55 1.35-26.45 1.5-53.35.15-52.3-1.05-68.98-8.57-110.92-4.36-23.9-4.66-32.76-1.5-50.35 1.2-7.06 1.95-13.83 1.5-14.88s-1.35-13.68-2.1-27.95c-.75-14.28-1.65-26.3-2.1-26.9-.6-.45-5.86-1.2-11.87-1.5-12.02-.9-17.73-3.46-17.73-7.97 0-2.55-1.05-3.01-7.06-3.01-4.06 0-9.62.45-12.62.9l-5.26.9-3.61 32.46c-5.41 47.19-4.96 59.67 3.46 101.75 10.07 50.5 16.53 98.29 20.29 149.54l1.05 15.63 6.01 1.8c7.66 2.4 23.9 2.4 31.41.15zm132.56-7.66c4.36-2.1 9.77-5.41 11.72-7.36l3.61-3.61-2.86-16.38c-7.82-43.43-20.29-91.98-30.51-117.83-6.91-17.13-18.49-39.53-30.21-57.86l-8.57-13.53.9-11.87c.45-6.46 3.01-24.35 5.56-39.53s4.36-27.95 4.06-28.41c-.45-.3-7.06.75-14.88 2.55-18.64 4.06-51.25 8.87-60.57 8.87h-7.36l.9 24.5c1.8 45.09 6.31 62.97 22.39 90.93 18.94 32.91 52.6 107.46 68.83 152.85 3.61 9.92 7.21 18.94 8.12 20.14 2.4 3.01 18.94 1.05 28.86-3.46zm-76.8-400.68c21.19-4.21 40.73-10.52 54.11-17.73l10.52-5.56-.3-22.54c-.15-12.32-.9-25.85-1.5-30.06l-1.2-7.51-18.34-9.77c-22.09-11.87-38.17-24.05-50.35-38.63-4.96-6.01-9.62-10.97-10.22-10.97s-3.91 3.61-7.21 8.12c-24.8 32.76-57.71 61.02-70.79 61.02-2.25 0-7.51-1.8-12.02-3.76-5.56-2.71-8.57-3.31-9.17-2.25-1.35 2.25-5.11 69.89-4.06 72.74 1.2 3.01 13.83 6.61 32.16 9.17 21.64 3.16 66.88 1.95 88.37-2.25zm116.03-57.11c10.97-5.41 15.78-9.02 27.95-21.04 7.97-7.97 14.58-15.63 14.58-17.13 0-1.95-1.5-2.4-7.21-2.4-16.83 0-37.87-9.02-50.8-21.94-12.17-11.87-26.9-45.54-23.75-53.96.75-1.8 3.61-2.25 13.98-2.25 30.81 0 66.58-5.71 67.48-10.82.75-3.61-12.62-32.61-23.6-51.1-7.66-12.93-10.82-16.98-15.93-19.84-3.46-2.1-8.57-6.31-11.27-9.47-4.36-4.96-6.01-5.71-11.87-5.86-3.76 0-9.32-1.35-12.17-2.86-7.51-3.91-20.74-18.04-28.56-30.66-17.28-27.8-21.94-34.12-29.16-38.78-7.66-5.26-10.82-6.16-9.47-3.01 11.42 25.1 18.49 50.05 26.3 93.48 9.32 51.25 20.89 140.07 18.49 142.48-5.41 5.41-44.04-30.36-58.31-54.26l-3.01-4.81-6.01 10.07c-7.21 12.02-7.06 12.32 6.31 27.05 11.87 13.23 29.01 25.55 49.9 36.22 20.29 10.37 18.64 7.97 20.74 30.36 1.8 18.49 1.2 18.04 20.59 17.43 10.37-.3 13.23-1.2 24.8-6.91zm-196.43-31.26c10.37-7.06 34.57-30.81 45.39-44.64 16.08-20.59 34.42-50.65 32.16-52.9-.6-.75-53.65-10.82-56.81-10.97-.45 0-4.36 6.46-8.57 14.43-9.92 18.94-27.05 44.19-29.91 44.19-1.2 0-5.71-3.31-10.22-7.36-4.36-4.06-14.43-12.17-22.09-17.88l-14.28-10.67-.9-19.24c-1.65-32.31-2.71-44.34-3.91-42.98-.6.6-2.25 5.11-3.61 9.92-1.35 4.66-3.16 8.57-3.76 8.57-3.76 0-6.61-2.55-12.77-11.12-7.06-9.92-20.14-22.84-21.64-21.34-.45.45 3.16 6.61 7.82 13.68 7.97 11.42 9.92 17.28 5.71 17.28-.6 0-7.51-6.16-15.18-13.68-7.66-7.51-14.28-13.23-14.73-12.77-1.2 1.05 4.96 10.22 13.68 20.29 11.57 13.68 8.42 18.49-4.96 7.36-8.57-7.36-22.69-15.63-22.69-13.38 0 .9 5.71 7.06 12.77 13.83 17.73 17.13 16.98 21.04-2.71 14.13-14.73-5.26-19.54-4.51-9.62 1.65 19.84 12.02 21.04 13.08 24.2 21.64 3.91 10.37 11.87 18.49 20.89 21.04 6.01 1.8 7.51 3.16 10.97 9.77 12.47 23.45 42.98 55.91 61.77 65.53 7.36 3.91 12.32 2.86 22.99-4.36zm246.63-19.39c3.46-8.57 4.96-28.41 3.31-41.78-.75-7.06-1.8-13.08-2.1-13.38s-5.71.75-11.87 2.4c-18.34 4.96-52.3 3.61-68.08-2.55-2.4-1.05-2.55-.6-1.65 3.16 2.25 10.52 12.93 29.01 21.04 36.67 12.32 11.72 31.71 19.09 50.65 19.39 6.46.15 7.36-.3 8.72-3.91zm-113.47-24.8c-4.81-44.94-17.73-132.71-19.84-134.81-1.05-1.05-1.65 3.16-5.11 31.56-5.56 46.74-6.91 50.95-17.43 50.95-3.61 0-4.96.75-5.56 3.31-1.05 3.76 1.8 9.02 12.32 22.99 7.06 9.47 32.76 35.32 35.17 35.32.9 0 1.05-3.91.45-9.32m-144.73-24.05c8.57-12.17 15.18-23.15 19.24-32.91 3.16-7.06 3.16-7.82.9-9.17-1.35-.75-2.55-2.71-2.55-4.51 0-6.31 7.97-38.63 13.83-56.06l6.16-18.04.3-29.31c.15-16.08.75-32.01 1.5-35.17l1.2-6.01-11.12 9.47c-18.19 15.33-44.19 30.96-61.17 36.82-4.96 1.65-5.71 2.86-7.36 9.02-4.06 16.23-6.61 36.67-6.76 53.96-.15 19.99-.15 19.69 15.03 59.67 5.56 14.28 6.91 16.53 14.88 23.6 4.81 4.36 8.87 7.97 9.02 7.97s3.31-4.21 6.91-9.32zm245.28-9.92c10.52-2.55 12.77-4.66 9.92-9.17-1.05-1.65-3.76-1.35-15.33 1.35-9.62 2.25-20.89 3.61-35.62 4.21-11.72.3-21.19 1.05-20.89 1.35.45.3 4.96 1.5 10.22 2.71 13.23 2.86 38.78 2.55 51.7-.45m-285.41-16.98-5.26-12.62-.15 8.87c0 8.27.3 9.32 4.96 13.08 2.55 2.25 4.96 3.91 5.26 3.61.3-.15-1.95-6.01-4.81-12.93zm146.99-11.42c1.35-4.66 6.76-44.19 8.42-62.07.9-9.47 2.25-21.04 3.01-25.55 3.01-17.58-10.07-55.31-27.8-79.35-3.76-5.26-7.82-9.32-8.72-8.87-7.06 2.25-15.33 26.3-15.18 44.04.15 11.57 0 12.17-3.91 14.43-3.01 1.65-5.86 6.61-11.27 19.39-14.43 34.42-28.71 84.61-24.65 87.02.9.6 4.81 1.5 8.72 2.1 3.76.45 18.49 3.16 32.46 6.01 30.36 6.01 37.72 6.61 38.93 2.86zm126.4-68.08c.45-.75-1.65-2.4-4.81-3.76-3.16-1.35-8.27-4.21-11.27-6.31-5.11-3.46-6.16-3.61-10.22-1.95-5.41 2.25-4.81 3.46 4.21 9.17 5.11 3.31 8.72 4.36 13.98 4.36 3.91 0 7.66-.6 8.12-1.5zm-42.83-19.54c-2.71-5.11-1.2-10.82 3.91-14.28l4.66-3.16-8.57-18.04c-10.07-20.89-19.24-34.12-30.21-42.68-15.03-11.87-17.88-12.77-38.93-12.77-11.72 0-20.44.75-22.99 1.8l-4.06 1.95 3.91 6.01c3.16 4.66 4.96 6.01 8.42 6.01 10.37 0 24.65 11.72 34.27 27.95 20.59 35.02 34.72 50.2 47.04 50.2 3.76 0 4.06-.3 2.55-3.01zm14.73-1.95c.75-3.46-2.25-7.06-5.86-7.06-3.16 0-3.61 3.16-1.2 7.66 1.8 3.61 6.31 3.16 7.06-.6m-147.89-35.32c1.5-1.8 2.4-5.41 2.4-10.37 0-13.98 7.97-38.78 14.13-43.89 3.46-2.86 3.01-5.41-1.35-7.36-7.97-3.61-10.82-2.4-14.73 6.16-7.82 16.68-11.27 30.96-13.23 55.01-1.95 23.6-.75 26.3 5.41 13.23 2.71-5.56 6.01-11.42 7.36-12.77zm-75.3 4.66c5.56-2.71 14.73-7.97 20.29-11.57 12.02-7.66 38.02-29.46 41.48-34.72 2.86-4.36 5.71-11.27 4.66-11.27-.45 0-6.31 5.11-13.08 11.42-18.49 16.98-36.22 29.76-53.2 38.32-12.17 6.01-15.48 8.42-16.08 11.27-.75 4.51.9 4.06 15.93-3.46zM882.37 629c17.13-8.87 41.18-27.35 61.62-47.34l14.13-13.68-7.51-6.31c-19.54-16.53-28.26-28.71-32.46-45.09l-1.65-6.91-7.82-.45c-6.61-.45-7.66-.9-8.12-3.91-.45-3.16-.15-3.31 5.41-2.4 6.46 1.05 12.47-1.35 17.88-7.21 4.81-5.11 6.76-11.27 6.76-21.64.15-15.78-7.66-27.65-19.54-30.06-10.07-2.1-21.19 8.57-23.75 22.69-1.35 7.66-1.65 8.27-4.51 7.21-1.95-.75-2.25-2.55-1.8-8.72l.6-7.97-6.01-1.8c-25.7-7.66-42.68-24.65-55.76-55.76-15.93-38.02-31.86-51.4-61.17-51.55-15.48-.15-17.28.9-14.88 8.57 3.31 9.92 9.92 17.13 20.44 22.09 10.07 4.81 11.42 7.51 3.61 7.51-10.22 0-24.35-11.72-30.06-25.1-2.55-6.01-3.16-6.61-5.41-4.81-1.35 1.2-4.36 6.01-6.61 10.82-12.02 25.4-9.17 64.33 7.51 105.36 10.22 24.8 11.12 36.22 4.36 59.22-3.61 12.32-3.46 12.93 6.16 14.58 10.97 1.8 13.38 3.61 16.08 11.87 9.02 27.35 27.65 50.95 44.79 56.51 17.28 5.56 42.98-1.05 68.08-17.58 4.36-2.86 8.57-4.81 9.47-4.21 2.55 1.65 1.65 4.96-2.1 7.97-3.31 2.55-3.76 4.06-4.21 16.53-.3 7.66.15 13.83.75 13.83s3.16-1.05 5.71-2.25zm115.58-49.9c0-.45-2.71-3.16-6.01-6.01-5.86-5.11-7.97-10.97-4.06-10.97 1.2 0 3.31 1.35 4.81 3.01 6.61 7.36 12.93 9.77 25.1 9.62 14.28-.3 25.25-1.8 25.25-3.76 0-.75-.9-1.35-1.95-1.35-2.71 0-10.67-8.57-13.83-14.88-3.01-6.01-3.91-22.84-1.2-23.75 1.05-.3 3.16 1.95 4.81 5.26 3.31 6.46 11.12 13.83 18.49 17.73 7.21 3.76 23.45 2.4 30.51-2.55 5.26-3.76 12.77-12.77 12.77-15.18 0-.6-2.71-1.2-6.01-1.2-12.32 0-24.95-10.37-28.56-23.45-3.01-10.67-1.05-28.71 5.41-50.2 10.22-34.57 11.42-40.28 12.17-62.37.6-17.28.15-23.6-2.25-35.32-7.97-38.78-27.05-62.22-52.15-64.33l-8.12-.6-1.65 6.46c-1.05 3.61-3.16 9.92-4.81 13.83l-3.16 7.21 6.16 13.08c12.47 26.45 16.83 45.39 16.83 72.44 0 9.77-.9 22.84-2.1 28.86-4.06 21.19-16.08 46.89-31.56 67.48-3.91 5.26-8.27 11.57-9.62 14.13-3.31 6.31-3.16 18.49.45 23.9 2.86 4.21 2.86 4.36-.15 6.46-1.8 1.35-5.41 1.95-9.92 1.65-6.91-.45-6.91-.45-7.82 4.66-1.05 6.31-.15 7.66 4.51 7.66 4.81 0 13.98 4.66 18.49 9.62 3.31 3.46 9.17 5.41 9.17 2.86m-42.08-32.01c-4.96-9.62-1.2-12.17 6.76-4.66 2.4 2.4 6.46 4.66 8.72 5.26 4.21 1.05 4.36.9 3.16-3.91-3.01-11.72 1.05-25.55 10.67-36.97 6.91-8.12 19.99-30.21 24.65-41.48 15.33-36.97 12.93-84.16-6.46-122.64-3.46-7.06-7.21-12.62-8.12-12.32-1.05.15-2.71.45-3.61.75-1.35.15-1.8-1.65-1.5-6.61.3-6.31-.15-7.51-8.27-17.13-13.68-16.08-36.67-32.16-56.36-39.23-38.47-13.68-96.49-10.67-133.01 6.76-35.32 16.98-62.07 46.29-62.07 67.93 0 8.27 1.8 9.32 6.31 3.61 9.47-12.02 43.13-7.36 63.27 8.87 9.02 7.21 15.33 16.98 25.1 38.63 9.77 21.79 13.98 28.56 23.15 37.57 6.16 6.01 18.79 13.38 29.91 17.28 6.01 2.1 6.01 2.1 12.47-3.91 7.36-6.76 11.42-8.12 21.64-7.21 14.28 1.35 23.75 13.53 25.25 32.01.9 12.17-1.65 21.64-8.27 30.36-5.86 7.66-6.01 9.62-1.8 21.04 6.31 16.68 19.84 31.86 28.86 32.01 2.4 0 2.4-.45-.45-6.01m-406.24-44.94c-8.87-9.17-11.12-13.38-7.66-14.73 1.8-.6 4.21.9 8.27 5.11 6.76 7.21 7.36 6.46 7.36-8.72 0-11.87-1.05-14.43-9.17-23.45-6.01-6.61-7.21-9.92-4.06-11.87 1.05-.75 3.91 1.35 7.21 5.11 2.86 3.46 5.71 6.31 6.31 6.31s1.2-1.8 1.5-4.06c.75-6.31 5.26-6.31 7.06-.15.75 2.71 1.5 3.91 1.5 2.55.15-1.35 1.95-5.71 4.06-9.77l3.91-7.21-3.46-7.36c-6.16-13.08-3.91-27.65 6.01-38.93 5.56-6.46 5.26-10.22-1.5-20.14-6.01-8.72-13.38-10.82-21.04-5.86-5.26 3.46-7.36 8.87-7.36 19.09v10.07l-6.76 5.26c-16.68 12.77-20.74 25.1-13.98 44.19l3.31 9.32-3.31 6.76c-4.66 9.77-4.36 18.04 1.2 26.75 5.26 8.42 5.56 10.82 1.5 16.83-3.61 5.56-3.91 12.32-.45 17.28 3.16 4.66 6.16 7.06 16.83 13.08l8.42 4.81.45-16.68.45-16.83-6.61-6.76zm70.34.45 1.05-24.95-6.76-7.06c-8.72-9.17-16.38-20.59-15.78-23.9.75-4.21 4.96-3.76 7.06.75 2.25 4.96 12.32 18.49 13.68 18.49.6 0 1.5-9.32 1.95-20.74 1.65-36.37 4.21-57.41 7.21-58.91 1.65-1.05 3.01-.75 4.06.45 1.95 2.25 4.81 22.24 4.96 33.82 0 4.66.6 9.77 1.2 11.27.9 2.55 1.2 2.55 3.76-.3 3.31-3.76 6.61-4.06 7.82-.9.6 1.35-1.65 5.11-5.26 9.17l-6.16 7.06v36.52c0 28.41.45 36.67 1.95 36.67 3.61-.15 13.98-5.71 18.19-9.92 8.72-8.87 10.52-18.79 5.11-29.76l-3.16-6.61 3.91-4.81c7.97-9.47 8.27-16.83.9-37.27-3.01-8.57-3.16-10.37-1.65-19.54 3.76-22.39 3.61-25.4-1.35-31.11-4.66-5.11-4.66-5.26-3.61-17.73 1.2-14.43-.45-19.99-8.12-27.8-9.77-9.62-24.05-9.77-33.52-.3-4.66 4.66-5.71 6.76-5.71 11.42 0 7.06-1.05 8.87-6.01 10.37-11.72 3.61-17.43 13.08-16.08 27.05.9 9.02.75 9.47-3.76 13.68-5.86 5.56-10.07 14.73-10.22 21.79 0 3.16 1.95 9.17 4.66 14.58l4.66 9.02-4.96 7.06c-4.36 6.16-5.11 8.27-5.11 15.63 0 7.06.75 9.62 4.21 14.13 3.01 4.06 4.06 7.06 4.06 12.17 0 5.71.9 7.97 4.96 12.47 2.71 3.16 6.01 7.36 7.36 9.47 2.1 3.61 17.88 13.23 21.64 13.38 1.2.15 2.1-7.97 2.86-24.8z"/>
  <path d="M787.69 585.99c-4.36-4.06-9.02-14.28-9.17-19.69-.15-18.94 19.99-16.53 26.75 3.16 2.4 6.91 2.25 12.32-.6 16.38-3.16 4.51-12.17 4.51-16.98.15m11.87-9.47c0-6.16-5.86-15.18-9.77-15.18-2.55 0-3.01 1.05-2.86 6.31.15 7.97 3.91 13.98 8.87 13.98 3.31 0 3.76-.75 3.76-5.11m-28.71-92.43c-13.98-14.73-13.83-44.49.45-54.71 5.86-4.36 17.43-5.11 24.65-1.65 7.36 3.61 16.08 12.47 20.14 21.04 5.56 11.42 6.01 26 .75 21.64-1.2-1.05-2.25-3.31-2.25-5.11-.15-8.27-12.17-25.7-21.19-30.36-6.61-3.31-13.98-2.71-19.24 1.8-6.16 5.11-5.86 6.61 1.5 6.61 8.27 0 15.18 7.06 17.88 18.04 3.76 15.48-.9 27.35-11.12 28.26-4.96.45-6.46-.3-11.57-5.56m133.31 4.51c-1.5-2.25.45-5.41 4.06-6.91 4.51-1.95 5.41-10.37 1.5-12.62-3.31-1.65-5.26-.75-7.82 4.06-3.61 6.76-7.82 1.95-4.66-5.56.9-2.4 3.61-5.11 5.86-6.16 12.77-5.26 22.09 14.28 11.87 25.1-3.31 3.46-9.32 4.66-10.82 2.1zm-159.61-63.87c-1.35-3.61 3.91-12.62 10.37-18.34 6.61-5.56 17.73-9.62 26.45-9.62 11.87 0 24.2 6.16 22.24 10.97-.9 2.4-1.65 2.25-8.57-.45-15.78-6.16-31.71-1.65-41.33 11.87-5.71 7.97-7.82 9.17-9.17 5.56zm294.73-17.74c.15-10.82.75-15.48 2.1-15.93 3.31-1.05 4.66 3.01 4.66 14.43s-1.65 16.83-5.11 16.83c-1.65 0-1.95-3.31-1.65-15.33m16.98 11.28c-.3-.6-.3-6.61.15-13.08.9-12.62 3.46-16.38 6.16-9.17 2.25 6.01 0 22.39-3.31 22.99-1.35.3-2.71-.15-3.01-.75zm-144.13-29.61c-16.68-5.86-28.86-21.19-30.96-38.63-.75-6.76-.6-7.36 2.25-7.36 2.4 0 3.31 1.5 4.66 7.51.9 4.21 3.01 10.22 4.66 13.38 3.61 7.21 13.68 16.08 20.89 18.34 7.66 2.4 9.62 4.21 7.51 6.76-2.1 2.55-2.1 2.55-9.02 0zm12.62-27.51c-10.67-8.12-16.83-16.38-16.98-22.54 0-5.41 4.21-4.06 7.51 2.4 3.01 6.16 12.32 14.58 20.74 18.79 6.16 3.16 6.46 6.91.45 6.91-2.86 0-7.21-2.1-11.72-5.56m28.86-12.77c-6.76-3.76-20.29-16.68-20.29-19.39 0-4.06 4.81-3.61 9.17 1.05 1.95 2.1 6.91 6.31 10.82 9.17 4.21 3.16 7.06 6.31 6.76 7.66-.6 3.01-2.86 3.61-6.46 1.5zM39.53 1381.79c-.45-1.2.15-3.16 1.2-4.36 3.01-2.86 210.71-141.13 212.81-141.73 2.71-.75 3.91 2.55 1.65 5.26-1.05 1.35-40.13 27.95-86.87 59.07-46.74 31.11-93.93 62.82-105.05 70.34-11.12 7.66-20.74 13.83-21.49 13.83s-1.65-1.05-2.25-2.4zm8.11-36.07c-.6-.6-1.05-1.95-1.05-3.01 0-1.8 46.14-33.52 152.55-104.6 36.67-24.35 51.55-33.67 52.9-32.61 3.01 2.55.9 4.81-15.63 15.63-8.72 5.86-53.8 36.07-100.25 67.48-46.29 31.26-84.92 57.11-85.82 57.41-.9.45-2.1.15-2.71-.3zm-16.68-65.07c-6.31-6.91-6.31-17.88 0-27.5l3.46-5.56-3.76-6.76c-8.42-15.18-3.61-32.76 10.97-39.98 6.76-3.16 7.82-4.36 7.82-8.12.15-6.31 5.56-16.68 11.12-21.34 8.57-7.36 17.13-10.07 30.06-10.07 7.06.15 13.83-.6 16.98-1.95 6.76-2.86 20.74-2.71 27.05.3 5.41 2.55 9.62 8.72 9.62 13.83 0 2.25 1.35 3.16 6.16 3.76 10.37 1.35 18.49 11.42 17.73 22.09-.45 4.81.3 6.31 4.51 9.92 8.27 6.91 12.17 21.79 6.91 26.15-3.46 2.86-5.26.3-5.26-7.21 0-7.97-2.71-12.17-10.07-15.93-4.66-2.4-4.81-2.71-3.91-9.17 1.65-12.17-3.16-18.49-15.18-20.14-5.56-.9-6.01-1.35-7.51-7.66-1.35-5.41-2.71-7.21-6.91-9.47-6.76-3.46-16.68-2.55-22.99 1.95-3.91 3.01-5.11 3.16-9.32 1.65-18.34-6.61-41.48 7.06-42.38 25.25-.15 3.76-.3 7.36-.3 8.12-.15.6-1.65 1.05-3.46 1.05-4.96 0-12.77 5.26-16.23 10.82-3.76 6.31-3.76 14.13 0 20.74 6.46 11.12 6.76 12.02 4.81 14.73-8.27 11.57-10.07 19.09-5.56 24.95 1.2 1.65 2.25 3.76 2.25 4.81 0 3.01-4.06 3.46-6.61.75zm143.23-88.23c-2.86-3.46-2.4-18.19.6-23.9 4.66-9.02 14.43-15.78 22.84-15.78 2.71 0 3.91-1.2 5.26-5.26 2.25-7.06 8.87-12.17 18.19-14.13 13.08-2.86 26.9 1.5 26.9 8.42 0 4.21-.15 4.21-7.51.45-13.38-6.91-30.06-1.05-32.46 11.27-.75 4.66-1.35 4.96-8.42 5.56-14.28 1.5-21.49 10.82-20.14 26.45.9 9.77-.9 12.17-5.26 6.91zm-94.08-42.98c-1.8-3.31-2.71-8.42-2.71-15.48 0-8.87.6-11.57 4.21-17.73 4.66-7.82 14.43-15.18 23.75-17.58 5.26-1.5 5.56-1.95 7.21-10.22 3.61-18.19 16.08-27.95 35.92-28.26h11.12l2.55-6.01c5.11-11.27 17.28-18.64 31.26-18.64 8.72 0 14.43 2.25 19.09 7.36 1.95 2.1 4.66 3.16 8.72 3.16 7.51 0 14.13 3.46 16.68 8.72 2.1 4.06 1.95 7.82-.45 7.82-.6 0-3.61-2.4-6.61-5.41-5.11-5.11-6.01-5.41-12.62-4.66-6.91.75-7.51.6-11.27-4.21-10.52-13.23-35.17-4.81-40.73 13.98-1.5 5.56-2.71 6.91-4.81 6.61-18.64-3.01-25.55-1.95-33.21 4.66-6.76 5.86-9.47 12.32-9.47 21.94 0 7.82-1.2 9.17-8.42 9.17-7.66 0-19.69 8.57-24.2 16.98-2.86 5.71-2.86 19.09.15 24.95 3.16 6.01 3.01 7.66-.6 7.66-1.8 0-3.91-1.95-5.56-4.81m591.25-197.63c-2.55-2.55-.15-5.41 10.67-12.77 6.31-4.21 29.16-20.59 50.65-36.37 21.49-15.63 51.55-37.57 66.73-48.54 18.64-13.68 28.1-19.69 29.16-18.64.75.75 1.05 2.4.6 3.61-1.05 3.01-152.85 113.77-155.85 113.77-.6 0-1.5-.45-1.95-1.05zm-3.01-29.46c-.45-1.2-.3-2.71.15-3.61.6-.75 12.93-9.92 27.35-20.29 14.43-10.37 45.84-32.76 69.59-49.75 23.9-17.13 44.34-31.11 45.54-31.11 3.16 0 4.51 4.66 1.95 6.16-3.01 1.5-73.19 51.25-110.92 78.45-16.83 12.17-31.11 22.09-31.71 22.09s-1.5-.9-1.95-1.95zm75-83.11c-.45-1.35-.9-3.91-.9-5.86 0-6.16-5.86-11.27-14.28-12.47-7.97-1.2-7.66-.9-8.12-11.12-.3-6.46-4.96-10.22-12.93-10.22-3.61 0-8.42.75-10.52 1.8-3.61 1.65-4.21 1.35-8.42-3.76s-5.26-5.56-12.32-5.56c-13.23 0-21.94 6.76-24.35 18.49-.9 4.51-3.31 4.81-5.71.75-4.51-6.91 8.27-22.09 21.34-25.25 9.32-2.25 16.08-1.2 23.3 3.76 4.51 3.01 6.61 3.61 12.02 2.86 12.93-1.8 22.99 4.66 24.5 15.78.75 5.41 1.35 6.16 4.81 6.16 10.97 0 21.19 14.58 17.28 24.65-.45 1.35-1.8 2.4-2.86 2.4-1.05 0-2.4-1.05-2.86-2.4zm-65.53-68.39c-1.05-1.65-4.06-4.06-6.76-5.26-3.16-1.2-5.56-3.61-6.46-6.46-3.46-9.92-20.89-14.13-31.56-7.66-6.31 3.91-8.12 3.76-7.51-.3 1.35-9.47 23.6-12.62 36.22-5.26 3.76 2.25 7.21 5.41 7.82 7.06.45 1.65 3.76 4.81 7.21 7.21 4.96 3.16 6.46 5.26 6.76 9.02.6 5.71-3.01 6.76-5.71 1.65zm20.59-3.15c-3.91-2.1-7.06-10.37-7.06-18.04 0-9.47 5.26-17.73 13.98-22.09 6.46-3.16 7.06-3.91 7.06-8.72 0-6.76 4.96-15.78 10.52-18.94 5.11-3.16 17.88-3.31 21.79-.45 3.46 2.55 1.95 7.66-1.95 6.16-14.43-5.56-23.6 1.35-23.6 18.04v9.02h-4.81c-6.16.15-11.57 3.16-14.13 7.97-2.86 5.26-2.4 15.33 1.05 21.04 3.16 5.41 1.65 8.57-2.86 6.01zm111.37-76.95c-2.25-5.11 2.4-13.98 9.32-17.73 9.62-5.11 26-2.4 23.6 3.76-.75 2.1-1.65 2.1-5.56.9-9.92-3.46-19.69 1.8-21.79 11.87-1.2 5.71-3.16 6.16-5.56 1.2zm-293.82-97.99c-.45-1.35-.15-3.01.75-3.91 2.1-2.1 218.23-4.66 220.33-2.71.75.75.9 2.25.45 3.46-.75 1.8-12.32 2.4-75.75 3.16-41.18.45-90.63 1.2-109.86 1.5-30.21.6-35.17.45-35.92-1.5"/>
  <path d="M1073.09 584.79c0-2.25 1.65-2.86 11.57-3.76 6.31-.45 28.41-.9 49.15-.9 45.09 0 182.31-2.71 201.99-3.91l13.98-.9-.45-10.67-.45-10.82-15.78.45c-8.72.3-35.32 1.5-59.37 2.55-41.18 2.1-141.13 5.26-166.37 5.26-10.67 0-11.72-.3-11.72-3.01 0-1.65.9-3.16 1.95-3.16.9-.15 14.28-.6 29.61-1.2l27.8-.9-.45-36.07c-.3-19.84-.9-43.43-1.5-52.6l-1.05-16.53-27.05.45c-14.88.3-27.2.75-27.35.9-.3.3-.9 15.03-1.5 32.91-.6 24.05-1.35 32.61-2.86 33.21-4.96 1.95-5.41-2.86-3.91-37.42.75-18.64 1.95-34.42 2.4-35.02 1.8-1.65 48.24-3.16 106.11-3.31 53.5-.15 84.61 1.35 87.47 4.21 1.05 1.05 1.35 18.79.9 53.5l-.75 51.85 13.68-.75c7.51-.45 17.13-1.05 21.49-1.5l7.82-.75.75-9.32c1.2-12.32 3.31-117.53 2.71-138.72l-.45-16.53-13.53-2.1c-11.27-1.65-32.31-1.65-122.04-.3-72.29 1.2-108.81 1.35-109.86.3-2.71-2.71 1.8-5.26 10.82-6.01l8.57-.75v-79.66c-.15-43.74-.6-88.22-1.35-98.74l-1.2-19.24h-24.35c-13.23 0-37.42.75-53.5 1.5s-61.77 2.55-101.45 3.76c-39.68 1.2-86.27 3.01-103.7 3.76-17.28.9-59.52 2.55-93.78 3.76-34.27 1.2-62.67 2.55-63.12 3.16-.45.45-1.05 30.21-1.05 66.13-.15 36.07-.6 65.83-1.05 66.28-.6.45-1.95.45-3.31 0-1.95-.9-2.25-9.17-2.25-69.44v-68.38l3.46-1.35c1.8-.6 27.05-1.95 55.91-3.01 29.01-.9 74.24-2.71 100.7-3.91 26.45-1.2 72.74-2.86 102.95-3.76 30.21-.75 71.09-2.1 90.93-3.01 19.84-.75 49.3-1.8 65.53-2.4l29.46-.9 1.05-41.48c.6-22.84 1.5-42.08 1.8-42.68.45-.75 4.06-1.2 7.97-1.2 4.06 0 9.32-.45 11.87-.9l4.66-.9.45-23.15c.3-16.38 1.05-23.6 2.4-24.95 1.5-1.5 12.02-1.95 48.09-1.8 25.4.15 49.6.9 53.65 1.65l7.51 1.2.45 25.25.3 25.1h10.37c8.12 0 10.52.6 11.27 2.4.45 1.35.9 19.84.9 41.18s.45 39.23 1.2 39.53c1.05.6 124.74-1.2 199.44-2.86 34.72-.9 43.89.15 42.38 4.36-.6 2.1-48.24 3.46-169.23 4.66-39.23.45-71.84 1.35-72.59 2.1-1.65 1.65-2.1 44.04-1.5 131.36l.3 64.18 26 .75c36.07 1.05 42.83 1.95 44.94 5.86 1.65 3.31 1.05 78.15-1.35 142.03l-.9 27.35h9.77c11.72 0 11.72 0 11.72 16.68v11.87h13.23c7.21 0 13.98-.6 15.03-1.35 1.65-.9 2.25-10.52 2.86-42.68.45-22.84 1.5-42.38 2.1-43.43 1.8-2.71 29.46-2.71 31.26 0 .6 1.2.9 20.74.45 43.74l-.75 41.63 36.67-.15c35.62 0 36.67.15 36.67 3.01 0 3.01-1.35 3.01-54.11 3.91-29.76.6-77.1 1.8-105.21 2.71-52.15 1.8-200.19 4.66-240.02 4.66-20.74 0-22.24-.15-22.24-2.86zm342.67-51.25v-40.58h-19.09l-.9 12.47c-.6 6.76-1.05 24.95-1.05 40.58v28.1h21.04v-40.58zm-200.19 18.79c1.35-.45 1.8-12.47 1.8-53.35v-52.6l-28.86.9c-15.93.6-29.16 1.2-29.46 1.35-.3.3.3 14.13 1.2 30.81.75 16.83 1.5 40.13 1.5 51.85s.3 21.64.6 21.94c.9.9 50.5 0 53.2-.9zm62.52-2.4c.3-.3 1.05-22.99 1.65-50.35l1.05-49.9-18.49-1.05c-10.22-.6-22.99-1.2-28.41-1.35l-9.77-.15-.45 52.45-.3 52.45 27.05-.75c15.03-.45 27.35-1.05 27.65-1.35zm-146.84-281.95c-.6-58.31-1.05-122.64-1.05-142.78V88.68h-7.06c-4.06 0-8.12.6-9.32 1.35-1.8 1.2-2.1 13.98-1.65 85.37.3 46.14.45 109.71.15 141.43l-.3 57.41h20.14l-.9-106.26zm100.55 104.3c3.01-2.86 6.76-330.49 3.91-332.3-2.55-1.5-74.55-3.01-86.12-1.8l-9.92 1.05-1.05 20.59c-.6 11.27-.9 71.69-.75 134.06s.15 127.75 0 145.33c-.3 17.43-.15 32.31.3 33.06.75 1.2 92.43 1.35 93.63 0zm25.25-1.05h3.16l-.15-137.97c-.15-75.75-.3-138.72-.3-139.62-.15-1.35-2.86-1.95-7.82-1.95h-7.51l-.3 38.78c-.15 21.19-.15 40.28-.15 42.38.3 3.91-1.8 100.4-3.46 163.67l-.9 36.67 7.06-.9c3.91-.6 8.57-1.05 10.37-1.05z"/>
  <path d="M1181.3 328.39v-17.28h10.52c12.47 0 12.32-.15 11.72 20.29l-.45 13.53-10.82.45-10.97.45V328.4zm15.03-.15v-11.27l-4.06.45c-4.06.45-4.21.9-4.66 9.32-.6 10.97.15 12.93 4.96 12.93 3.76 0 3.76-.15 3.76-11.42zm-16.53-65.08c-1.95-3.76-1.95-24.2 0-29.46 1.35-3.76 1.95-3.91 10.82-3.46l9.47.45.45 16.38c.3 12.17-.15 16.83-1.5 17.73-1.05.6-5.41 1.2-9.77 1.2-6.31 0-8.12-.6-9.47-2.86zm11.12-4.06c1.8-.75 2.4-3.16 2.4-11.27 0-5.71-.6-10.37-1.35-10.37s-2.4-.45-3.76-.9c-2.1-.75-2.4.75-2.4 11.27 0 12.02.45 13.08 5.11 11.27m-11.87-134.21c-33.52-15.48-18.34-67.18 18.94-64.48 26.9 1.95 38.32 37.42 18.49 57.41-9.62 9.62-25.55 12.62-37.42 7.06zm27.5-7.97c15.48-9.32 16.53-35.62 1.8-45.39-7.66-5.11-11.87-6.01-19.24-3.91-17.43 4.66-26.6 25.55-18.04 40.73 7.06 12.62 22.39 16.38 35.47 8.57z"/>
  <path d="M1191.22 95.29c-3.31-3.16-3.01-5.71 1.2-12.32 5.11-8.12 9.62-11.72 11.72-9.62 1.35 1.35.45 3.61-3.01 9.32-2.71 4.21-4.81 9.32-4.81 11.42 0 4.21-1.8 4.66-5.11 1.2zm206.05 336.65c-.6-.6-1.05-7.06-1.05-14.28 0-15.18-.3-14.88 15.03-14.88 9.32 0 10.22.3 11.12 3.46 1.65 6.16 1.05 21.64-.9 23.15-2.4 1.95-22.69 3.91-24.2 2.55m18.49-15.03v-8.27l-6.31.45-6.46.45-.45 7.97-.45 7.82h13.67zm-14.13-84.01c-.45-1.35-.9-8.12-.9-15.03 0-11.42.3-12.77 3.16-14.43 4.36-2.25 24.65-.45 27.05 2.55 1.95 2.4 1.05 24.2-1.2 26.15-.6.6-7.06 1.65-14.13 2.25-11.27.9-13.08.6-13.98-1.5zm22.84-14.58.45-8.72h-16.69v18.19l7.97-.45 7.82-.45zm-114.52 10.52c-.45-1.95-.9-7.66-.9-12.77 0-11.87 1.35-12.77 19.99-12.17l13.83.45.45 12.47c.45 12.17.3 12.32-3.46 13.83-2.25.9-9.62 1.5-16.38 1.5-11.72 0-12.62-.15-13.53-3.31m22.09-4.21c3.91 0 4.06-.3 4.06-7.51v-7.51h-19.54v16.99l5.71-1.05c3.01-.45 7.36-.9 9.77-.9zm-617.7-5.56c-2.25-.75-2.71-20.74-.6-22.09 1.8-1.2 20.74-1.8 21.79-.75.6.45.6 2.1 0 3.46-.6 1.8-2.86 2.4-8.27 2.4h-7.36v5.86c0 3.31.75 6.16 1.8 6.46.9.3 1.35 1.8.75 3.16-.9 2.4-4.36 3.16-8.12 1.5zm-.15-78.75.45-15.63 14.88-.45c10.97-.3 15.33.15 16.23 1.5 1.95 3.31 1.5 24.65-.75 26.45-1.05.9-8.57 2.1-16.53 2.71l-14.73 1.05zm25.25-1.35v-9.02H721.4v18.04h18.04zm169.08 2.85c-.45-1.95-.3-7.97.3-13.38l1.2-9.77h27.06l.45 10.52c.15 5.86-.3 11.42-1.05 12.62s-5.71 2.25-14.13 2.71c-12.62.9-12.93.75-13.83-2.71zm21.79-11.27c0-6.46-.3-6.91-3.31-6.01-1.95.45-5.26.9-7.51.9-3.91 0-4.21.45-4.21 6.01v6.01h15.02v-6.91zm-128.05 12.02c-.75-.6-1.2-6.46-1.2-12.93 0-11.42.15-11.87 4.06-13.38 2.1-.75 9.02-1.2 15.33-1.05l11.42.45.45 11.87c.3 6.61-.15 12.47-.9 13.23-1.65 1.65-27.8 3.31-29.16 1.8zm22.54-7.36c1.05-.45 1.8-3.16 1.8-6.76v-6.01h-18.04v14.72l7.21-.75c3.91-.45 7.97-.9 9.02-1.2zm486.81 5.86c-1.35-1.35-1.35-24.95.15-27.05 1.35-2.1 24.5-3.76 27.8-1.8 3.91 2.1 3.76 26.15 0 27.35-5.26 1.35-26.75 2.71-27.95 1.5m24.2-15.18.45-7.97h-18.19v16.69l8.72-.45 8.57-.45zm-318.03.75.45-13.98h30.06v12.77c0 14.88.3 14.58-19.24 14.88l-11.72.15.45-13.83zm23.3 5.71c.15-.15.45-3.31.75-6.91l.45-6.76h-18.04l-.45 7.97-.45 8.12 8.72-1.05c4.81-.6 8.87-1.2 9.02-1.35zm362.36 2.71c-.75-.6-1.2-6.46-1.2-12.93 0-11.27.15-11.87 3.91-13.23 2.1-.9 7.82-1.5 12.62-1.5 12.17 0 13.98 2.1 13.23 15.18-.3 5.56-1.05 10.67-1.5 11.27-1.5 1.35-25.85 2.55-27.05 1.2zm21.34-13.38v-6.76h-15.02v13.52h15.02z"/>
</svg>
