<svg version="1.0" xmlns="http://www.w3.org/2000/svg" width="1664" height="1082" viewBox="0 0 1664 1082">
  <path d="M228.93 1060.28c-1.04-1.3-.65-5.98 1.69-18.98 3.77-20.02 6.24-24.7 17.55-32.24 7.41-4.94 36.92-18.2 60.58-27.3l13-4.94v-31.85l-20.15-8.19c-31.85-12.87-46.8-19.63-77.35-34.58-32.76-15.99-49.14-26.39-59.67-37.83-12.35-13.39-17.68-26.26-20.93-51.61-1.04-8.19-2.34-15.34-2.73-15.99s-2.08-1.17-3.77-1.17c-11.05 0-27.82-11.96-37.18-26.39-14.3-21.97-18.72-63.57-8.84-82.94 5.33-10.79 14.82-18.07 23.4-18.07 2.86 0 3.9-.52 3.38-1.69-7.02-18.2-13.26-48.49-15.34-73.06-5.2-65.91 16.12-144.82 53.69-198.38 9.49-13.52 30.42-34.58 43.68-44.07 20.8-14.82 43.16-25.22 68.51-31.85 17.68-4.68 48.1-6.11 59.8-2.6 11.31 3.25 19.76 7.93 27.56 15.21 6.24 5.98 7.15 6.37 9.36 4.81 19.5-14.3 34.06-21.71 50.18-25.48 14.17-3.25 48.75-3.25 63.57 0 5.72 1.17 10.4 2.08 10.53 1.95.13-.26 2.86-4.16 5.85-8.84 8.32-12.35 20.8-24.7 24.96-24.7 8.19 0 19.37 20.54 24.44 45.11.91 4.16 1.82 7.93 2.08 8.32s5.33-.65 11.18-2.34c25.48-7.41 40.04-8.84 45.37-4.42 2.86 2.34 3.12 3.38 2.99 14.69-.13 10.4-.78 14.04-4.81 26-2.73 7.67-4.81 14.17-4.81 14.43 0 .39 5.07 1.04 11.44 1.56 32.37 2.6 59.67 21.45 74.36 51.22 9.75 19.63 11.96 38.35 8.45 74.23-2.34 23.27-2.34 25.22-.26 34.58 2.6 11.7 6.63 18.33 13.78 22.36 8.97 5.07 16.9 3.64 27.82-4.94 10.14-8.06 12.61-7.02 12.61 5.72 0 22.75-16.64 49.53-36.66 59.02-10.79 5.2-17.55 6.63-30.81 6.76h-10.92l.91 5.33c2.08 12.74 11.7 23.27 23.53 26 5.85 1.3 8.45 1.17 16.64-.78 5.46-1.3 10.79-1.95 11.83-1.56 7.54 2.99-5.33 28.34-22.23 43.68-15.47 14.17-28.99 18.98-51.74 18.07l-13.26-.39-1.56 9.49c-5.72 33.8-24.18 59.41-46.28 63.96l-6.76 1.43-.91 10.01c-2.34 26.65-8.71 41.99-23.4 56.81-5.07 5.07-13.26 11.96-18.33 15.21-13.91 9.1-59.28 32.63-92.04 47.84l-29.51 13.52v7.28c0 3.9.39 11.96.91 17.94l.78 10.66 9.23 2.73c13 3.77 49.4 17.68 58.24 22.1 14.69 7.41 20.54 14.95 23.92 31.07 3.38 16.25 4.42 26.39 2.86 28.21s-7.02 2.34-8.06.65c-.39-.65-1.82-8.32-3.38-17.03-4.16-24.31-7.15-28.6-26-36.66-12.61-5.33-36.4-14.17-38.22-14.17-1.56 0-7.54 10.53-24.57 42.25-14.82 27.82-15.6 28.86-20.93 24.96-2.73-2.08-2.99-1.69 19.89-43.68 14.17-26.26 15.08-28.6 9.62-28.73-.78 0-2.34-.39-3.38-.78-1.3-.52-7.02 7.93-20.41 30.29-19.76 32.89-22.49 36.79-26.26 36.79-2.99 0-6.24-4.55-24.83-35.23-19.89-32.5-18.07-30.29-23.53-29.25l-4.68.91 6.5 12.61c3.51 6.89 11.44 21.71 17.55 32.76s11.05 21.19 11.05 22.36c0 3.38-5.07 4.29-7.93 1.56-2.34-2.47-21.32-35.62-31.72-55.51-2.86-5.46-5.59-10.01-6.11-10.01-2.21 0-41.99 17.68-48.23 21.32-9.49 5.72-11.83 10.01-15.21 27.69-1.56 8.45-3.51 16.12-4.16 17.03-1.82 2.08-5.59 1.95-7.41-.26m155.48-46.67C402.22 984.1 403 982.28 403 974.22c0-4.55-.39-5.72-2.21-5.72-1.3 0-16.9-3.51-34.71-7.8s-32.89-7.41-33.41-7.02c-.65.39-1.17 6.5-1.17 13.65v13.13l17.81 29.77c9.75 16.38 18.07 29.77 18.46 29.77.52 0 7.93-11.83 16.64-26.39m-6.5-73.06c22.1-4.68 65.39-23.53 119.99-52.13 28.73-15.08 39.78-22.36 49.53-32.63 13.65-14.3 17.03-24.96 19.37-59.54 1.69-26.65 3.9-117.26 3.9-161.46V600.6l-2.86-.52c-1.69-.26-8.84-1.56-15.99-2.73-34.32-5.59-66.56-21.71-92.3-46.28-19.24-18.46-29.51-33.54-42.25-61.75-17.55-39.39-26.39-54.47-37.96-64.87-6.63-5.98-14.69-10.79-15.86-9.62-.91.91 2.86 31.46 5.85 47.19 7.02 37.57 22.88 78.65 40.17 104.13 4.42 6.5 2.99 12.74-2.34 9.88-7.28-3.9-27.17-40.82-35.36-65.13-8.19-24.7-15.73-59.15-17.68-80.86-.52-5.59-1.3-10.14-1.82-10.14-3.25 0-14.43 40.3-17.68 64.09-3.25 22.62-1.95 60.58 2.73 79.56 5.07 20.8 5.2 21.32 2.6 22.23-4.94 1.95-10.01-8.19-14.56-29.38-3.25-15.21-3.25-63.96 0-81.25 1.17-6.37 2.21-12.61 2.21-13.65s-5.2 8.58-11.57 21.45-15.86 29.9-21.06 37.7c-10.66 15.99-32.11 39-48.62 52.26-26 20.93-61.49 38.74-86.45 43.42-4.68.78-9.88 1.95-11.57 2.34l-3.12.91.26 20.02c.52 44.07 5.07 140.79 8.06 169.65 4.03 39.78 13.65 52.13 58.37 75.79 15.73 8.32 53.3 25.74 74.1 34.32 52.52 21.71 70.33 25.87 91.91 21.19m-238.16-158.6c0-1.43-.78-20.15-1.82-41.6l-1.69-39-5.2-8.19c-9.23-14.3-15.47-17.42-23.4-11.7-14.17 10.01-15.47 48.75-2.34 75.79 5.59 11.57 13.91 20.93 22.36 25.22 6.89 3.38 12.09 3.12 12.09-.52m448.5 1.3c2.6-1.04 7.8-4.81 11.57-8.45 21.97-20.67 29.64-74.1 13.26-92.04-8.19-8.84-16.12-5.72-27.56 10.92l-4.55 6.63-1.17 38.22c-1.56 51.48-1.82 46.67 1.3 46.67 1.43 0 4.68-.91 7.15-1.95m75.01-71.5c9.23-1.95 19.11-7.41 28.34-15.86 5.46-4.81 16.9-19.89 16.9-22.1 0-.65-3.38-.91-7.67-.65-20.8 1.56-38.74-12.35-43.16-33.28-1.56-7.41-.13-15.99 2.86-17.94.78-.39 8.58-.91 17.16-1.04 14.82-.13 16.38-.39 24.31-4.16 14.3-6.89 25.61-20.67 30.42-36.79 1.17-3.9 2.08-7.28 2.08-7.41 0-.26-2.73.91-6.11 2.47-9.49 4.16-20.02 3.77-28.86-1.04-8.06-4.42-13.26-10.79-16.64-20.54-2.6-7.54-2.99-27.04-1.04-65.26.91-19.24.78-21.71-1.82-31.2-5.07-18.33-10.92-28.47-23.4-40.95-17.29-17.16-31.59-23.4-53.43-23.4-6.24 0-11.57.39-12.09.78-.39.52.91 4.16 2.86 8.19 27.95 55.25 40.04 126.88 31.33 185.38-1.43 10.01-3.12 20.28-3.77 22.75-3.12 12.48-8.45 28.73-13.65 41.73-3.9 9.49-5.33 14.43-4.29 14.69.91.26 4.03 1.17 6.89 1.95 10.27 2.73 18.07 15.21 21.45 34.45 1.43 8.45 1.43 8.58 6.11 9.23 2.73.52 5.72 1.04 6.76 1.3 4.42.91 10.27.52 18.46-1.3M138.58 609.7c1.82-.78 5.46-1.3 8.06-1.3 13.13 0 37.57-8.58 58.24-20.15 22.75-12.87 35.75-22.75 53.95-40.95 24.7-24.57 38.74-46.54 59.02-91.78 17.29-38.48 24.31-49.4 34.32-52.26 8.19-2.6 16.64.52 30.42 11.05 14.04 10.79 22.88 24.44 37.96 58.24 18.98 42.51 30.16 59.02 52.52 77.35 28.47 23.27 59.15 36.14 95.29 39.78 13.65 1.43 13-1.3 13.13 46.54 0 22.62.65 41.08 1.17 41.08 2.08 0 17.68-34.06 23.14-50.44 8.97-26.91 11.05-42.25 11.05-80.21-.13-27.56-.52-34.97-2.99-49.27-6.24-36.4-14.43-60.84-31.07-93.34-9.62-19.11-20.93-34.58-34.19-46.8-18.46-17.16-37.05-27.04-64.74-34.45-11.31-3.12-15.08-3.38-36.66-3.51-19.24-.13-25.74.39-32.5 2.21-15.86 4.29-28.99 11.7-46.02 26.13l-5.98 5.07-11.44-11.05c-15.08-14.56-20.8-16.9-41.86-16.9-29.38 0-50.83 5.2-76.7 18.72-20.28 10.53-29.9 17.16-43.42 29.77-27.95 26.26-44.59 54.73-62.92 108.42-4.55 13.13-9.88 38.22-11.96 55.9-5.33 45.89.39 93.34 16.12 130.65l4.03 9.75.39-33.54.26-33.54zm450.19-237.77c7.67-19.63 10.4-36.92 5.98-38.61-2.47-1.04-19.63 2.6-32.5 6.76-5.72 1.82-10.66 3.51-10.92 3.77-.13.26 4.03 4.94 9.36 10.4 5.33 5.59 12.61 14.04 16.12 18.98 3.38 4.81 6.63 8.84 7.02 8.97.39 0 2.6-4.68 4.94-10.27m-54.47-48.36c-4.29-16.51-11.57-32.37-15.08-32.37-2.47 0-20.28 24.05-18.46 25.22.26.13 5.33 2.47 11.44 5.07 6.11 2.73 13.39 6.24 16.25 7.93 8.06 4.81 8.45 4.55 5.85-5.85"/>
  <path d="M349.05 896.74c-7.93-4.29-22.23-21.84-37.96-46.28-8.32-13.13-11.57-20.93-8.45-21.06.52-.13 23.4-.39 50.96-.78s52.26-.78 55.12-.91c10.79-.52 9.23 4.94-9.23 32.63-13.13 19.37-21.06 29.12-28.08 34.19-4.29 3.12-6.5 3.77-12.48 3.77-4.03 0-8.45-.78-9.88-1.56m20.54-13.78c6.89-6.63 33.15-43.81 31.85-45.11-.26-.26-9.75.13-21.19.65-11.44.65-30.29 1.17-41.86 1.3-11.7 0-21.19.26-21.19.65 0 1.69 20.93 31.72 26.13 37.57 11.05 12.61 17.29 13.78 26.26 4.94M344.24 806c-7.54-5.07-17.94-16.12-17.94-19.11 0-3.9 1.69-5.33 11.05-9.49 4.94-2.21 9.36-4.42 9.75-4.68.39-.39.91-14.04 1.3-30.16.65-29.38.65-29.51 3.51-29.9 4.42-.65 5.59 4.16 6.5 26.39.78 20.67-.65 34.84-4.29 40.3-1.04 1.69-4.81 4.29-8.45 5.72-7.67 3.38-7.41 4.42 2.73 13 4.81 4.03 6.5 6.37 6.24 8.32-.52 4.16-3.64 4.03-10.4-.39m-142.09-95.03c-2.47-3.9 4.16-20.54 12.35-30.94 12.61-15.99 34.97-24.05 54.34-19.63 15.47 3.64 28.86 14.43 36.01 28.99 5.72 11.7 7.15 20.02 3.9 21.19-3.38 1.3-6.11-.91-7.8-6.63-4.16-14.17-12.87-24.83-24.83-30.68-7.54-3.77-9.75-4.29-18.85-4.16-8.84 0-11.44.65-18.59 4.16-10.92 5.33-19.24 14.43-25.61 28.21-3.9 8.06-5.85 10.92-7.67 10.92-1.3 0-2.86-.65-3.25-1.43m210.34-.78c-2.47-.91-2.08-8.45 1.04-16.51 11.83-31.85 44.72-46.93 73.19-33.54 11.96 5.59 22.36 16.25 28.6 28.99 2.6 5.46 4.68 11.7 4.68 14.04 0 3.38-.52 4.03-3.25 4.03-2.86 0-3.9-1.43-8.32-10.66-6.5-14.04-13.52-21.97-24.57-27.3-7.41-3.64-9.88-4.29-18.46-4.16-20.8 0-37.18 13.26-44.85 36.27-2.99 8.97-4.29 10.4-8.06 8.84m-220.22-89.57c-1.43-1.82-1.3-2.47 1.69-5.07 8.45-7.28 36.4-15.99 55.25-17.16s48.62 5.07 54.34 11.31c2.21 2.47 2.21 2.86.26 4.81s-2.99 1.82-13.52-1.3c-28.34-8.71-57.07-6.76-84.11 5.46-10.27 4.68-11.57 4.81-13.91 1.95m320.84-4.55c-20.93-9.49-43.16-13.26-60.19-10.4-4.94.78-14.69 3.25-21.71 5.46-7.02 2.08-13.26 3.51-13.91 3.12-.78-.39-1.3-2.21-1.3-4.03 0-3.77 5.72-6.63 22.49-11.18 8.58-2.34 14.17-2.86 28.21-2.86 20.15 0 28.08 1.69 45.5 9.75 12.09 5.72 15.6 8.32 15.6 11.57 0 4.03-3.25 3.77-14.69-1.43m542.75 443.82c-1.43-1.3-9.36-11.57-17.68-22.75-15.34-21.06-17.55-23.53-41.47-46.41-17.94-17.16-20.28-22.62-12.74-30.16 2.99-2.86 5.07-3.77 9.1-3.77 6.37 0 15.34 3.25 24.18 8.84 3.64 2.21 6.63 3.64 6.89 2.99.13-.52-2.6-7.41-6.37-15.21-12.22-26.13-15.86-35.88-15.99-43.03 0-7.8 3.25-12.61 9.62-13.78 9.1-1.82 16.25 3.25 25.61 18.33 3.25 5.2 6.11 9.23 6.37 8.97.26-.13-1.82-7.41-4.68-15.86-8.97-27.17-6.11-39.52 8.97-39.65 8.71 0 14.69 6.89 22.88 26.39 3.51 8.32 6.5 14.95 6.63 14.82s-.91-5.85-2.21-12.61c-3.12-15.34-2.34-22.36 2.73-27.56 2.99-2.86 4.81-3.64 9.49-3.64 12.22 0 16.38 7.67 32.11 59.15 5.85 19.37 11.05 35.62 11.44 36.27.26.65 5.33-3.9 11.18-9.88 12.22-12.87 19.37-17.03 28.99-17.16 5.33-.13 7.28.52 10.01 2.99 6.24 5.85 4.16 16.12-6.11 31.2-4.68 6.76-5.98 6.89 18.59-2.34 9.62-3.64 26.39-9.75 37.05-13.52l19.5-6.76v-16.9l-20.15-.65c-29.77-1.04-28.73-.26-56.29-41.86-29.64-44.72-62.66-98.67-72.02-117.39-9.62-19.24-11.18-27.43-12.87-71.37-1.3-32.24-.78-30.81-10.66-32.76-10.66-2.21-19.37-7.15-28.21-15.99-20.8-20.93-32.37-66.43-26-102.05 2.6-14.43 6.89-22.49 17.42-32.24l8.84-8.19-3.77-14.95c-7.02-28.21-15.21-64.35-17.29-76.31-5.46-32.11-7.41-75.4-4.55-101.14 4.94-43.42 26.65-104.39 49.14-138.32 8.97-13.65 29.9-35.49 44.07-46.15 41.34-31.07 98.54-40.82 139.23-23.92 13.78 5.72 23.92 13 37.57 26.91l11.96 12.22 14.43-13.78c23.14-22.23 43.81-34.19 72.67-42.25 11.05-2.99 14.82-3.38 33.28-3.51 17.81 0 22.36.39 31.85 2.99 23.92 6.5 48.23 21.32 66.3 40.04 30.42 31.72 47.32 73.32 56.16 138.32 2.47 18.07 2.86 27.56 2.99 61.1 0 40.43-.52 47.06-5.98 77.22-2.08 11.31-16.77 73.84-18.72 79.56-.26.78 2.73 4.81 6.5 8.84 12.09 12.87 15.6 26.52 14.69 58.24-.65 18.2-1.3 23.4-4.68 36.53-4.68 17.81-14.04 38.22-22.88 49.92-7.02 9.23-18.2 17.29-27.56 19.89-3.51.91-7.02 2.21-7.8 2.86-.91.65-1.82 8.84-2.34 20.28-1.56 35.1-3.51 59.28-5.46 68.51-4.16 20.28-23.4 53.04-71.5 121.94-27.56 39.26-33.93 47.45-40.56 52.13-5.33 3.64-15.6 5.98-26.52 5.98H1365v14.95l29.25 9.49c46.93 15.34 69.94 28.47 77.87 44.33 5.72 11.31 19.76 58.5 18.46 62.01-1.04 2.6-8.19 2.34-9.62-.39-.65-1.3-4.29-12.22-8.06-24.44-11.05-35.62-13.91-40.69-29.25-49.66-8.32-4.94-27.95-13.39-30.94-13.39-1.04 0-5.98 2.47-10.79 5.46-27.95 17.03-66.04 25.74-104.52 23.92-30.29-1.3-55.77-8.06-80.34-21.06l-13.39-7.02-11.18 4.55c-14.04 5.85-23.79 10.79-26.91 13.52-4.29 3.77-5.85 8.58-7.28 23.01-1.82 17.68-3.64 31.59-5.33 40.56l-1.3 6.76h-5.2c-5.72 0-5.85-.26-3.77-10.01.65-3.38 2.47-16.9 3.9-29.9 3.25-29.12 7.02-40.04 20.8-60.84 6.5-9.62 8.19-13.65 6.37-15.73-4.81-5.85-18.98 3.51-32.37 21.58-3.64 4.94-7.41 9.1-8.32 9.49-3.12 1.3-7.54-3.25-11.18-11.31-1.95-4.42-8.06-22.49-13.52-40.43-13.91-45.11-17.55-52.65-23.53-48.23-2.99 2.21-2.47 6.37 4.55 42.38 5.98 30.42 6.37 37.18 2.73 38.35-2.86.91-6.24-.26-7.02-2.34-9.23-22.49-31.33-72.15-32.89-73.84-1.3-1.43-3.64-2.47-5.33-2.47-2.6 0-2.99.65-2.99 5.07 0 2.86 2.08 11.83 4.55 19.89s7.54 25.09 11.18 37.83l6.76 23.27-2.73 2.6c-4.16 4.16-7.41 1.95-13.39-9.1-13-24.05-25.48-44.85-28.99-48.49-4.42-4.55-8.97-4.68-9.62-.26-.39 2.99 4.81 16.51 19.76 50.44 4.68 10.79 8.84 21.45 9.36 23.66.78 3.77.39 4.29-2.6 5.07-2.73.65-5.72-.78-16.12-7.67-6.89-4.68-15.08-9.62-18.07-11.18-6.63-3.25-13.39-3.64-13.39-.65 0 1.04 9.23 10.92 20.41 21.71 15.99 15.6 23.79 24.44 36.79 41.86 15.34 20.54 19.5 26.65 19.5 28.47s-9.1.52-11.44-1.43m269.49-70.59c15.34-1.43 30.16-4.55 43.68-9.23 9.36-3.25 25.22-10.92 26.39-12.74.52-.65-7.41-3.9-17.55-7.15-19.5-6.37-21.58-7.41-23.4-12.09-.65-1.69-1.95-2.99-2.99-2.99-1.56 0-52-6.63-83.46-11.05l-5.33-.78-.78 8.84c-.65 6.5-1.56 9.36-3.38 10.92-1.43 1.17-10.53 4.94-20.15 8.45-9.75 3.51-17.68 6.76-17.68 7.15 0 1.56 18.72 10.01 29.25 13.26 25.22 7.8 47.58 10.01 75.4 7.41m65.13-73.06c4.94-2.73 13.39-13.65 42.51-55.25 36.79-52.39 56.81-85.15 63.44-103.09 5.33-14.82 6.24-26 10.92-141.05 2.73-67.6 4.16-94.77 7.28-136.5 4.68-62.01 2.21-97.24-9.88-143.13-2.47-9.36-6.63-21.97-9.23-27.95-4.81-11.18-13-24.57-14.82-24.57-.52 0-1.43 2.21-1.95 4.81-1.82 10.01-7.67 26.13-13.91 38.61-11.31 22.88-25.61 40.95-43.42 55.38-14.17 11.31-27.82 17.68-27.82 12.74 0-.78 3.51-7.67 7.67-15.21 13.39-24.05 18.46-39.52 20.93-62.79 1.3-12.87-.13-38.09-2.34-40.3-.65-.65-2.73 3.12-4.81 8.32-5.98 15.73-20.93 43.94-28.73 54.34-18.46 24.57-41.73 42.64-60.58 47.32-4.94 1.17-4.81-2.08.26-10.14 6.24-9.88 12.74-23.27 16.38-34.19 3.12-9.1 3.38-11.57 2.86-24.44-.52-12.35-1.3-15.99-5.2-26.26-5.98-15.86-11.83-25.22-20.93-33.67-10.4-9.62-21.97-12.22-34.84-7.67-15.34 5.46-31.07 30.81-38.22 61.75-3.64 15.6-2.99 39 1.3 55.25 1.95 7.15 3.9 14.69 4.16 16.77.78 3.77.65 3.77-4.16 2.99-16.12-2.6-43.55-30.03-57.33-57.07-6.5-13-10.79-29.25-11.83-44.85-.52-8.84-1.3-13.26-2.21-13-2.08.65-7.15 14.04-9.36 24.18-5.07 23.92-.65 43.68 18.07 81.25 8.32 16.64 11.18 23.53 10.01 24.18-4.68 2.99-30.16-8.32-46.28-20.54-25.09-18.98-38.87-40.04-41.47-62.92-.39-3.77-1.04-8.97-1.43-11.44-.65-4.16-.91-4.29-2.6-2.08-.91 1.3-3.12 6.37-4.68 11.05-2.73 7.93-2.99 10.79-2.99 39.13 0 16.77.26 39.39.65 50.05l.65 19.5-4.16 9.75c-5.07 11.57-5.2 14.56-2.34 59.15 3.38 54.86 4.55 77.61 6.5 138.45 2.47 74.49 4.03 102.44 6.5 112.06 3.12 12.61 12.22 29.25 42.12 77.61 22.36 36.14 51.74 79.95 59.02 88.01l5.85 6.37 27.04.78c14.95.52 54.73.78 88.27.65 53.56-.26 61.62-.52 65.13-2.34m-303.68-270.4c0-12.74-2.47-80.6-3.77-101.66l-.91-16.77-4.42-3.77c-5.72-4.68-15.86-8.06-21.19-7.02-14.17 2.6-24.18 23.4-24.31 50.18 0 20.15 6.76 47.84 15.08 62.14 8.97 15.21 23.53 25.74 36.01 26.13l3.51.13zm441.35-.26c7.54-3.25 13.39-8.45 19.63-17.81 14.04-21.06 21.19-45.63 22.23-76.18.78-20.93-.39-31.07-4.68-41.21-6.89-15.86-22.36-19.76-34.32-8.58l-5.33 4.94-.91 14.82c-.39 8.06-1.43 16.38-2.34 18.46-.91 2.21-2.21 21.71-3.38 50.05-2.6 61.88-2.6 57.33 1.3 57.33 1.82 0 5.33-.91 7.8-1.82"/>
  <path d="M1290.25 830.7c-2.86-1.43-11.96-7.93-20.15-14.43-30.81-24.31-54.08-42.25-61.62-47.71-9.36-6.5-10.92-8.84-8.19-11.57 1.82-1.82 7.41-1.82 52.52-.39 41.34 1.3 58.24 1.3 92.17-.13 54.73-2.21 51.35-2.21 52.91.39 2.08 3.12 0 5.07-37.7 35.62-52.78 42.77-56.68 44.85-69.94 38.22m17.29-10.27c3.64-1.95 63.18-48.36 68.12-53.17.52-.52-33.8-.91-76.05-.91h-77.09l13.78 10.53c7.67 5.72 21.32 16.51 30.42 23.92 20.15 16.12 28.99 22.1 33.02 22.1 1.56 0 5.07-1.17 7.8-2.47m-41.6-95.55c-13.65-4.94-30.16-19.24-35.62-31.07-12.09-26.52-7.8-60.45 11.05-88.53 3.25-4.94 10.66-13.78 16.38-19.5l10.4-10.4-.39-46.15c-.26-25.48-1.04-48.49-1.69-51.09-1.04-4.16-2.47-5.59-10.01-9.88-18.2-10.53-35.23-14.95-58.76-14.95-18.46 0-31.72 2.08-55.77 8.97-8.84 2.47-16.9 4.29-17.81 3.9-4.94-1.95.52-13.91 10.66-23.53 15.73-14.95 35.62-23.01 57.07-23.01 15.47-.13 26 2.21 39.65 8.97 7.8 3.77 12.48 7.41 23.53 18.46 7.54 7.54 15.47 16.38 17.55 19.5l3.77 5.72 1.04 50.18c.52 27.56.78 52 .26 54.21-.52 2.86-2.99 6.11-8.32 10.66-13.91 12.09-28.47 34.19-32.5 49.4-2.73 10.01-4.03 26.26-2.73 34.97 2.73 19.37 14.82 35.36 32.76 43.29 10.27 4.42 12.61 6.76 10.01 9.88-1.82 2.21-4.29 2.21-10.53 0"/>
  <path d="M1127.23 562.38c-3.12-3.64 5.33-17.94 18.07-30.68 14.95-14.95 36.92-25.48 56.16-26.91s34.06 3.9 49.14 17.42c7.8 7.15 9.36 10.53 5.98 13.26-1.82 1.56-2.08 1.43-17.55-10.53-10.4-7.93-18.72-10.66-31.98-10.66-25.48.13-51.35 15.34-67.21 39.65-6.63 10.27-9.49 12.22-12.61 8.45m330.85-12.48c-8.71-11.44-24.83-25.61-34.97-30.55-26.39-13-50.57-10.01-70.72 8.71-4.42 4.16-8.71 7.54-9.36 7.54-2.34 0-4.29-3.9-3.51-7.02 1.04-4.03 13.78-15.73 21.71-19.76 18.46-9.23 43.68-9.1 64.09.52 11.57 5.46 25.87 17.42 35.36 29.38 9.1 11.44 11.05 17.68 5.33 17.68-2.08 0-4.55-2.08-7.93-6.5m21.97-89.31c-1.43-.39-8.32-2.34-15.34-4.42-35.1-10.27-60.06-10.27-98.93.13-7.8 2.08-14.69 3.51-15.21 3.12-4.55-2.73 4.42-17.16 16.12-26 18.33-13.65 32.24-18.85 51.35-18.85 19.63 0 34.45 5.2 49.27 16.9 7.54 5.98 18.2 19.5 19.37 24.44.78 2.86-1.17 5.85-3.38 5.46-.39-.13-1.82-.39-3.25-.78m-366.47 580.45c-6.24-9.62-5.98-29.64.39-43.03 4.03-8.45 13.26-18.46 16.12-17.42 3.12 1.04 2.21 4.29-3.51 13-3.12 4.81-6.5 11.7-7.28 15.34-1.56 6.37-1.17 20.02.78 30.81.65 3.64.52 4.16-1.95 4.16-1.43 0-3.51-1.3-4.55-2.86"/>
</svg>
